<mxfile host="app.diagrams.net" modified="2023-08-14T13:32:08.428Z" agent="Mozilla/5.0 (Windows NT 10.0; Win64; x64) AppleWebKit/537.36 (KHTML, like Gecko) Chrome/115.0.0.0 Safari/537.36" etag="6YDoqDigENI_GruEnJau" version="21.6.8" type="device" pages="2">
  <diagram name="PÃ¡gina-1" id="3_4fkKaqy00jWFuxlNOR">
    <mxGraphModel dx="1219" dy="764" grid="1" gridSize="10" guides="1" tooltips="1" connect="1" arrows="1" fold="1" page="1" pageScale="1" pageWidth="827" pageHeight="1169" math="0" shadow="0">
      <root>
        <mxCell id="0" />
        <mxCell id="1" parent="0" />
        <mxCell id="POtu942e6d3Yeao2YYhx-1" value="" style="shape=image;verticalLabelPosition=bottom;labelBackgroundColor=none;verticalAlign=top;aspect=fixed;imageAspect=0;image=data:image/png,iVBORw0KGgoAAAANSUhEUgAAAmIAAAHGCAYAAADXM+eDAAAAAXNSR0IArs4c6QAAAARnQU1BAACxjwv8YQUAAAAJcEhZcwAADsMAAA7DAcdvqGQAAO0CSURBVHhe7J0J2FVT+/9XEqKZJJSozGlOmUohSYgyJdUrSjJnKEOm8r4Uv4jkFU0o/3gpypRkaCBTVOYMKfNM5vVfn/vs9bQ7zt77nPOcpxPuz3Wd63n2tPZa95q+615r713OOoyiKIqiKIqyztkg+KsoiqIoiqKsY1SIKYqiKIqiFAkVYoqiKIqiKEVChZiiKIqiKEqRUCGmKIqiKIpSJNZ/IfbFF8a8844xv/0W7Pgb88cfqbS+/36wQ1EURVGUvzOFEWIIiMWLjZk1y5iHHzZm3jxjvvkmOJgnhHn11cZsu60xDRsaM2KEMZddZsy//mXMBx8EJ+XBzTcbs9VWxtx7b7BjPeK++4xp0sSY0aON+f33YGcaP/9cGDsoiqIoilJ0CiPEVqww5ogjjDnkEGM6dTJm772NqVvXmGHDjPnll+CkHPnoI2PuuCMlmiZONKZtW2MefNCY++9PHcuXr74y5pNPSi8UC83KlcZcdZUxHTsaM3SoMeXLBwfS+OGHwthBURRFUZSiUziPGIJr++2NefJJY+6805jKlY3597+NeeaZ4CQH04vLl0eLILxA772X8vpwDj/CPPJIY9q0Meaxx4xZsiT1v4epy3ffjRd8HCPcn34KdmRg1arUr7RkE59MbLKJMdddl/LYVaoU7Azx/ffGfPihMdWqZbYDtmNKsxBpUBRFURRlnVDYNWIVKqSmEY8/3ph99kmJh7ffTh1jynK33YzZYQdjttgiJa7wAiGOunUz5oADUl61+vWNufLKlHft88+NefppY3bc0Zg5c4zp39+YAw805o03jPnsM2O6d095zLhmjz1SIi+dl14ypmXLlKCrV8+YRx4JDgQgXrhvnTrGbLONMTvvbMzs2cHBEK+8kooHU4Lw44+pNDCVyBRhVHyyua5nz9QUbIcOqb+9eqVEKGKL+JBuzm/VKrUvbAcgvo0bp9JIGrj///6XOoZ9CZ/rly1L7VMURVEUZb2gbBbrf/ddatoMLw/CAA/R6aenPGcTJhhz1lnGPPSQMSNHpjw5eJGeeCIlWjgPT88JJxiz6aYp8XTGGampzk8/Tf0QFzNmpNZUnXxyapoO8bfhhkEEAjjvkktS4gVht+++xjz3XHDQgdeK43iYLrrImLFjU+Lx/PNT9wmDgEI0sZ908PPbhBMVn6TrEKOk/z//SV3HtO7dd6eE5+rVqXP/+9+UQDvllJS3jGv5kT7E3qmnpsK48cbUWrpvvzXm3HONefPNlBcSsYnoY7+iKIqiKOsNhRViH39szIABKcHDgn3+4hmbPz8lxlg/hueGdVBbbpkSRQgfqFjRmFGjjPm//zOmc2djjjkmtQ8BhhDD05QJxAYetosvTnm1wiAGX3455VW67TZjpkwxpl+/4KCD43PnGrPLLsYcfHDK49SsWUrcEN98iItPJrDHzJkpAYcXDRH6668pgeYh/kz3Xn55ym5hmPrlScujjzbmtNOMOeccYw47LCW88AYi3BCJiNE99wwuUhRFURRlfaCwQgwBgbhhigwPzz33GFO1amptE54gPDZMkTGtxgJ/pjL9N8c32yw1bZkthx+eEh8IKRbyM72J9ygMC/PxGtWqlYoHC+DDQobzEYIvvGDMXnul4oZo4bxy5YKTsiSb+GSCOCLCEG+knydFIfzUZO3aqeOZwNuFbbfbLtjhwAvJ9UztAmknDEVRFEVR1isKK8TwAD3wQGp90qBBqYXlsPnmKWHDU4EIL/9jOpJF/flAmEzh4W1D+HBfRFQYxB1i78sv13jevv469ReqVDFm441Tnjum7Xy8EFDp3iOmGUkD04UITp5e9GFCVHySruM1GrffnvLUIcpuuCE4kCU1a6b+4o304E0j3d6LyPQkU6SKoiiKoqxXlM0asXSYfsOjM358ykuGWLn11tK9y4u1ZrzmAYHjPWnpa8S23tqYBg1S03Jnn51a5D5mTHDQgeeIaUk8YkyJLliQEpHXX7+2WAKEFqKRcy+80JjjjkutafNExSfpOtbT4dFCID71lDF33RUcyJLmzVNePuzK1Ou4canXW7Bgn4cUEH5MCeOlJA6KoiiKoqw3FEaIMZXHei4W52d6/1WLFqn1TXh8WPvFNCCL8lnbxPlct9FGKS+OBxHDPsLFo5R+Hj8W+++3X+p9Y4cemhIcYZiSu+ACY6pXTwmcqVNTQghPHeH4V2ywBgsRxfqso44y5tFH//wmfx4a6NMn5VlCtCGgOJdwiFtUfJKu69LFmKZNU14xnrpEsBI/PHWcw8/bANLtwJo2bEu4pK1v35SnD88a6+u4jusJL2xfRVEURVGKTjnrCP4ve/DOvPVWat0Wr7nAW1QamEIkPDxCeKE2iNCVnMdrNPASpS92B//+Mqb38KKx3ioqLBbB84Qir+JADIWJi0/cddiDV0sgoIhjPmBbHhTAu8Y9EGuKoiiKoqzXFEaIeW+Nsv6zDnW3oiiKoijxrJs1YoqiKIqiKMqfWLdTk4qiKIqiKEoJ6hFTFEVRFEUpEirEFEVRFEVRioQKMUVRFEVRlCKhQkxRFEVRFKVIqBBTFEVRFEUpEirEFEVRFEVRioQKMUVRFEVRlCKhQkxRFEVRFKVIqBBTFEVRFEUpEirEFEVRFEVRioQKMUVRFEVRlCKhQkxRFEVRFKVIqBBTFEVRFEUpEirEFEVRFEVRioQKMUVRFEVRlCKhQkxRlFjee+898/XXXwdbipIfH3zwgfnyyy+DLUVRPAUXYjTaixcvDray5/fffzcvvPCCee2114I90QwdOtT07t072MqNhx9+2Nx///3BVjzvvPOOufXWW4OtdUtp0pgNy5YtE1s88sgjYveff/45OPLX54knnjD77LNPsBXP4MGDTf/+/YOtdQudUocOHYKtsqG05Wju3Lmmc+fO5q233gr2rD+UJm251O0ffvjBjBs3Lqu2qSzIpc3Kl0K3N+n16qWXXjKdOnUyL7/8crAnM8W2taIUg4IJsV9++cXceOONpnnz5uass84yP/30U3AkOxBvNPhdu3Y1y5cvD/Zm5ptvvjFfffVVsJU9f/zxh5kxY4Z54IEHgj3x0BjcdtttwVY0V111lbnmmmuCrcKQbxqzgbw57bTTTJ8+fcz5559vOnbsaPbYYw/z9NNPB2f8tVm9erX5/PPPg614sHOxvD2//fZbmXsISlOOvvvuOzNixAhzzjnnmJYtWwZ71x9Kk7Zs6zZQPm6//fZEEVGIdiA9jFzbrHwpdHsTrle0N6TpX//6l2nfvr3siyJbWyvK34mCCDG8WWeccYaZOnWq2XvvvYO9uTFr1iyz6667mo033lhG4en8+OOP5t1334313HzyySfm008/DbZSjcHHH38cbLnEbrCBuemmm8wdd9wR7FnDZ599Jr8whx9+uHnuueeCrRQ0KsSD+HjeeOMN8+abbwZba0N8iJeHhubtt99e63pPUho5zkg+SuRyHI8k+REHx2ngTzrpJPPKK69ImDvuuKO59NJLzffffy/ncPyjjz6S6YRM4bHv/ffflxGsJy5t6SSlJYy3S/q5Pg5ffPFFsCcabMr9os4lvYSVSRgl3SfdFkm2o0x8+OGHxlob7FkbyiHXEk4mMtk+jLdXpnKUFLcw2PuCCy4wxxxzTLBnbdLLNsKS8ufLUJhc7luaOgLYJXwfBolsEz9PproNXEPehO+9zTbbmGeffdaccMIJwZ6yawfSw4hrszKRi53jbJlLOJwbVXegQoUKZuTIkTJAD5OtrSFTncgljoqyXuM6g1LjKoFduHChdQ2gdQ233X///e3q1auDo8m4kZjdd9997aRJk+zAgQPtYYcdZl1DFxy11o0IraugtnLlynaPPfawHTp0kHPg8ccftwceeKBct8UWW9hNN93UDh061LrRrt12222tE3a2W7ducg+48MILbb9+/eR/f+3pp59ua9asaTfZZBPrxIl1HYkcnz17tnXCUv6HcePGSZi77bab3WmnnSTNXbt2ta6hkV/VqlWta3Csa3Rtx44d7fnnn29r165tW7RoYV0Da7t37y73qVu3rq1Ro4YdM2ZMEHJ8Gn/99Vc7evRoSR/HN9tsM4nzt99+K8exed++fW3Lli1trVq17MyZM+2qVask7tddd52cE4b0tW3b1l500UXBHivh169f365YscLOnz/f7r777nbrrbe2W265paT3pZdekvO8zXr27GmrVatmzzzzTOsa4Ni0hUlKSxjKwGWXXSZ25V7E59FHH5VjxLFJkyaS3+TbPvvsY1977TU59uCDD0r+eEaMGCH5sN1220lYPXr0sK4jlGOnnnqq2IkyyzHiNGrUKOs6bTked59MtoizHekZMmSIpJnzO3fubLfffns5Bq6jtieeeKKtWLGirVSpkpSHyZMnS/2CTPdLJ64cxcUtTFx+ZirbxNt1nrZp06a2QYMGsr9///72u+++k2sKcV+IS5uPlxtMSDnGhthqzpw5tlWrVmJP4rZo0SI5P71uU4doFw466CCxLb/x48fLsc8//9y2a9fOPvDAA7JdFu2AE0MZwwDfZlEmyXs36JX94AYHUnZpO7O1MxSinIAbQIu9fd0ZPHiwlFfqlRPwck66/XKxtRN4Uk+oM4TPsZUrV8bGkXJEfzBt2jTZVpT1nYIIsTD5CDEaRTq75cuXS0dLxX755Zfl2Mcff2wbN24s4dJY0YAgNnyjQadLBaUzp+G/9dZbpdIecsgh1o2WpIOg0fQVO9xA+GsHDBggQoBGhcbpscceKznuO3QaCBr0iRMnyjaVHUFDOo899ljbq1cv6dwRGsSZRmKXXXaxy5YtkwaUYwgkL/IQB6SLTiwpjXTApGHKlCnSyM2dO1dEBYIGSFOVKlWkMeNenIPwpMG+77775Jww6UKMaxByiGFs+Prrr9t58+ZJONiFBhP7AjbBvr1795ZwktKWTlJawtCQci7XcC6dKp0eeUGndtppp8k9uc/BBx9su3TpIvmRLsS4ngYdnnvuORE/xBe87ehcyTs6PzrIxYsXZ3WfdFsk2Y70cG8GLXRadLoeOuxmzZpJZ01chg8fLnElLpDpfmGSylFc3MIkldX0so2d2rRpI+cRNvWY87EpFOq+cWnjOJ0xgxHut2TJErEdbQn1mfpAu3TyySfL+ellhHKw+eabi/Al/PPOO0/yAjFF2I0aNZIyW5btQKYwINxmjR071u688872gw8+kG3SRhpfffXVrO2cZMtswyEOpA3xS1zfe+89e88998h14TiH7QfZ2hp7MTDeb7/9ZGBJnWE/58TFkXNpy66//nrZVpT1nfXiqcn//e9/xgkx4zpAWWPmRomGReTgGhjjKpq4qjfaaCNz6KGHGjeilGMeNyqSdSxu1CuLtLfaaiuDG5z9rqEQd/eKFSuCs9eGc1xDYJwgM25Eb7bYYouM5zJl6jpB89BDD4k7vHr16rK9ySabmA033FB+blQofz1uVGZco2nKly8vx1isynHWwLHtGmOZRklKI/d0Dbqsn2OqwjVM5oADDjCuEQ7OMJJu14jLvTjHjTLNqFGj5JoomAIeNGiQcaLVuI7JuJG32NB1UMZ1rLJGCFtgz7BN3AjUnHvuuZL+pLSlk01aPE6US564UbCcy1/XCcrCX6YJXYMucSA+p5xyitgxU9650b5xAkimqV3DL3npOtTgqDEHHnigLFQm/kceeaRMpbBmMZv7pNsiznY8RODEgsRn0003NWeeeaaUT2DqBRswXcw0MXE58cQTpTwsWrRIzoH0+4VJKkdJ+erJJj/DZZvpbdeJytIC4sCSgB122MHMnz9fzi3EfZPSBpSRs88+W+7Hj/g5cSHli/rAsgmm0FwHH1yxNuRLjx49JHwn2iS+pCVMWbYDcWF4qANO9JgFCxbIthN1xgkXKTPZ2rlQ5YR1XE48muOPP17i6gZUEg75kEQ2tqZMUYaoB8SBOsM0uRONsXHk/6eeekr6AEX5K1B0IUZjNnv2bOkkEVNXXHGFrOmYPn26VEwWkNIx0jB50jsgKFeunPylYnPcb9NAcD2NVxT+XM7jR2edDgLluuuuk8YBIUGD70atwdE/Q5hu1BdspdYo8WSSG6XL+hQ3WpN9TgwnppF1FIhJ0uZhO3x/hCSdRC640aQ0mnRWNHgIMqCz6tKli3SsPXv2lPwJr80gHtzPE5e2dLJJiwdxgvBIz2/2k1YEu4fzAFum48UfYpXGmQY7HDfKiO886FRJG2Uvm/uk2yLOdpRxrvdpp4z4+9IR06lgCw9ljnt/ElpblH6/MEnlKClfPUn5mV62sRNpu/jii0Wo8lu5cqWIAyjEfbNtB7w9Ocb5YVGA7Sjz/DLh2wFAFEF6u1GW7UA21K9fXx6coH2kXCA4jjjiCElbtnYuVDlBzFE/qlSpEuzJnmxszTo8fgyO08k2joryV6DoQuyZZ56RURWeMBosfm3btpXRIh4JRkEIs/BovFgVDq8dXo17771XHiefNGlScCQZ0jlhwgQzbdo08bbgrapYsaIcS0ojnTGemXAHQkfHaLw08AQTTzPxBGW9evWCvcbw9CtxWbJkiXhjGIXGEZe2dHJJS82aNaXTSM9vOsN0exEmjXtYNAH76fgY/bMImodCGjZsGBz9Mywc5se9c7mPJ852dFhffvlliUeGztenjQ6NH8c9hEMnX7t27WBPPEnlKNt8zSU/gXThheBhnYULF8oPjw2eZijEff8J7UA2IJjwJvOgAV5shApeZcjWzoUqJ+Q79Zj2uyxAoGEbBF862cZRUf4KFEyIMaqj02BUQ+XEo8A+4NHryy67TP4PQ4dEY4ZrGk/YJZdcIr/LL79c3NyM+nDp47GYMWOGXMPIh2vWNQgCGk5geoxpVN8A0WHjFYia8gAaE9KBRwT70FHRiEJSGhGmNDaMfoFGeM6cOTKlEAXeFQSIn+LNBcQAgph0MfJn6imOuLSlk0tamHrgXDp2IC14t5je436TJ0+W+1HuePcQYp4pyDDEA2GFpwnvyNKlS82qVauCoynoVCmjwF/C5B653McTZ7u99tpLyhDvbaMjvOWWW+R9boDwYxp24sSJch0dI8KG++65555yThJJ5SjbfM0lPwGvBB4Z7sX54L3ZUIj7/hPaAcgmDDy72Ps///mPxIG2ErK1c6HKCdODgKikvOKlGj16tJTtQkAcqIN33nmn2B078e43nn6OiyP9Drah/1CUvwIFEWJUwuOOO068Grjt6WQZIeMyBjpb39GF4bFj1iswNRaeQmA9B+8UIxxc+KylufLKK6UzZSqATpuGBBghMnLy1/MXt7s/jveCbX5AA4bnAdKv5VyO+3P9caATJj00PnSYCM5u3brJMab0eAcXcb322mtLwvFxADphGm3WhzC1wEgOlzv3TkojUxisXcIVjwBgTRP7WBMG4TR5EGL33XefCJl0SFfYJungPaKDaN26taSNBo97QLrNIC5t6SSlJQwjf4Qb53Buv379ZDTP+iOE+9ixY2WNH/Yjf4YNGyZ2COcb5ZB8uuCCC0TQDB8+XMLytsUGpJPj2B7xyvQlnVW29wmnM852pJn9eCIJmw6djhSID1N7dGINGjSQOPLIP++VIi6Q6X5hkspRXNzCxOVnprKNEOCevGbB1w/i/OSTT8rxQtw3KW2Z4kXehusFx/lxbriMAPvD5xIO16enuSzbAUgPA9LjRlmkTuBJPuqoo0quzdbOhSonTD2zxvTqq6+WNDFAYe0l4YTjnG6H9PSwP5Ot+cuLYVlKQJ2gnCEYEV9xccRThjh88cUXZVtR1nfK2WwXJxQZRlusQ2FdBut4igEjMl4ESYWno/EVH1j7RMMYFz86WTwgHKdhSScpjYyUGQ3SeNapUyfYWzYwAuVt6sQzahouTFLa0sk2LYh8BDujXjwvNMIe8uP111+XTpVj/I2CqW46UUbY4XzzIFzpFIkLcQqTy30gznZ4OvDKEQZlKD0s0ktc6dC4V9R6sDjiylG2+ZprfgJ24j1YeCR4CCEc90Ld95/QDmQTRhS51NtClBPgXKb9qTuIxEJDeaJcpdeZqDjyHrIBAwaId7lx48bBXkVZf/nLCDFFURRFiYOBDk85I8B4WlVR/gqoEFMURVH+NuDdxsPnp2wVZX1HhZiiKIqiKEqR0CGDoiiKoihKkVAhpiiKoiiKUiRUiCmKoiiKohQJFWKKoiiKoihFQoWYoiiKoihKkVAhpiiKoiiKUiRUiCmKoiiKohQJFWKKoiiKoihFQoWYoiiKoihKkVAhpiiKoiiKUiRUiCmKoiiKohQJFWKKoiiKoihFQoWYoiiKoihKkVAhpiiKoiiKUiRUiCmKoiiKohQJFWKKoiiKoihF4i8vxL7//nvz7rvvmj/++CPYoyhKIfnyyy/NBx98EGz9c3j//ffNV199FWwpiqKUDQUTYt9995259957zbXXXmvuv/9+8+OPPwZH4vnll1/MvHnzzEsvvWR+//33YO8aEFgvv/yymT9/frBnDVw7cOBAc80115jffvst2Ls2dCIdOnQItox5+OGHJX7rgqVLl5qbbrrJjBgxwjz99NMZ05fOF198Yfbff38zffr0YE80TzzxhNlnn33MypUrgz3rlqFDh5revXsHW8rfEcrjUUcdZaZOnRrsWbek1991xYIFC0znzp3NkiVLgj1/Zu7cuaZNmzbBlqIoSn4URIh98skn0lhed9115vnnnzcnnXSS6dGjh3irkqChO/zww82+++5rZs6cGexdA40dwuTII48M9qxh1qxZZsWKFeayyy4zG220UbB3bRBoNOaAqJsxY4Z54IEHZLusQCBefvnlJWnCJieeeKI57bTTgjOiIb50fqtXrw72RMM5n3/+ufn111+DPeuWb775Rj0GDspor169SsrZ34lx48aZbbfdNquyWxaE6++64ocffpDBU//+/WWgE8VPP/0kdVVRFKU0FESIVapUydx2223i9bnnnntEkNE5LVq0KDgjGhraKlWqmF122cVMnjx5Lc8WHqRJkyaZRo0ayT3S2XHHHcXjtNVWWwV71vDpp5+aDz/80Fhrgz0usRtsIOffcccdwZ4UeO+Y3qRhDcP9mZ7ItbF98MEH5T6jRo0yDz30kHgT8Op17949OCPFZ599JlM+SdOqHP/oo4/k3CivGmGR3kxhJd0HWyGmPV9//bV5++23M3o1va1+/vnnYM/aJNnMH6ez8yDY33vvvbXy3kM4nB+VbiBO77zzTmSckoi7fxjC5z7pacN+eHTTy08ScXYGbBTOcwQ+20nxBK6hPGQKO+m+HtK73377meHDh5tNN9002LuGTHlJ3LBlpkFYlP0ykan+erINh/KOvSj/YZLq0yabbGJuuOEGc+qppwZ71uDTHDUAiUu/oihKRlxDV3Aee+wxW7NmTfmbxHPPPWfr169vr776avnrBEtwxNrXXnvN7r777vb666+3DRs2DPZa60SD7dGjh3UjdVuvXj3bunVrORdcZ2iHDBliN9tsM1utWjXbuXNnu/3228sxuPDCC22/fv3kf8697LLLbNWqVeXcrbfe2j766KNybP78+bZJkybWdUDWNczWjYxL7gFnn322Peyww+x3330X7Enx66+/2q5du8p9V69eHexdG+J/4okn2ooVK1onMO0222xjnQi1rpG3H3/8sXXC006ZMkXOJR7YgLhtueWWdrfddrOu05djTvBJ2k444QS7+eab24022sgeffTR1nVQcjzuPq6jsx07drTnn3++rV27tm3RooV94403rBOLknd169a1NWrUsGPGjJGwYMaMGRJG5cqV7R577GE7dOggNvDE2ezxxx+3Bx54oO3Zs6fY+swzzxRbObEq+ehEtdxzwoQJcj527dOnj61Tp44cO/zww/9kawjHyYl5O2DAAEkzOBEscVi1apVsY5f27dvL/xB3/3RGjBghdtpuu+2kvFD+nKCxY8eOlbJWvnx5iUOnTp3k/NNPP92eccYZ8j88+eSTUk7hyy+/jLSzz5dLL71U6gN5h93mzJljW7VqJfnYoEED6wY5cn46F1xwgZTvgw46SOzMb/z48XIs7r7pRKUXMuUlPPvss7Zp06YSP67t379/SZ7FhRcmqf5mG86rr75qmzdvXpKvtCEQV5+SyosTWLJNntSqVcsec8wxdocddgiOxqf/+eefl/L81ltvybaiKIqnTIQYnQgNoBtxBnui8UIMAbT33nuLMPJcccUV9tBDD5WGPyzE6GxooN2oVBruk08+2Xbr1k2OIU7oWGfOnGndSN0OHjzYVqhQQY6BG+VKAwrTpk2TcwkfcUJnt3DhQvv555+LMDnttNOsG9mKoDn44INtly5dSsTVLbfcYi+55BK5fxiEFA39RRddFOz5M4ifZs2aifBBDAwfPlw6m8WLF/9JiL3++ut23rx5Er9vv/1WOlg6eSCtiB4aeGyxYMEC6XRuvPFGOZ50H+KJeFm2bJl1I3np0LAbaQY6vcaNG0v6OZ//sf3PP/8sAojOyAuxJJsRVzrX3r17y3HuN3v2bLk/8YapU6faXXfdVf7nGJ3kO++8I9t0jlwTJilO5C/hr1ixQraJE0LRE3f/dCgj77//vvxPmcWO2Io4TZo0SeJKXlHmADHYq1cv+R8efvjhkjKcZGfCatmypYS3ZMkSuRd1hIEN+bz//vtLmc8E5RtRjuDGJuedd56UAQRe3H3TiUovZMpL8r9NmzYSJmV1+fLlEva4cePkmrjwwiTV32zDGTRokAxKiBvlj/RDXH2KKy+cP3DgQEnjRx99JOlr27atCDpISv+sWbNk8BIloBVF+edS8KcmX3jhBeNG4GbAgAGmTp06wd5kmHpkHRiL1JmWcI2g/H/cccettf6L6QjXGBsn2mSKwDWsxgkK8+abb8pxFrC7jkzWrDGd4kbrMu2ZCSf+jBvBmnbt2sm0JX9btWol00zch6kJ1+EYN3I2p5xyinGjbFmTBv369TNOKJqNN95Ytj1MmzDl4zrDYM/aME3iOlRZR+fEqtlwww1l/RhpzDSVu9NOO8mCYDeylnszDevjAK7TMhdffLGpVq2acZ232OXJJ5/M+j487LDzzjub8uXLm6pVq5pOnTrJua4jkW3X0crUE2l3HZc54YQTJAwnkNeaas3GZuw799xz5Tj348GJbbbZRmz4yiuviM1cJybnVq5cWdJMGXBiV9LNNWGS4pRE3P3ToTxhayeUJI+5hvV5xIn/KT/EOdMUXjpxdgbCOvvssyXv+ZE/TlyaAw44QPLZl30nMuT8dIhrjx49xCasr8SOrOdLum+YqPR60vMS+1FvnZCVfOF+O+ywQ8lDNknheZLqb7bhbLHFFhKnZ599VqYaa9asKfuT6lMUlG3Cwq5OfJl69eoZNwAoye+k9LtBiZzTvHlz2VYURfEUVIixpoOOmMbfjdiDvdlzyCGHSAPJ+jLElhOK0vCGoeNg8S5ij46e35133iliDGig6STohKBcuXLSsWUCscK56R08+2nga9SoEexJdTyQtDid+1asWHGtNVdh6PRIIwLAgwjlXpmuocPt0qWLNPA9e/Y0s2fPXmutF+nz8SeddCy+c026D9eGBSMdG09Cbr/99vIAxfXXXy/7yAfSXaFCBem8PWG7ZWMzbINY8VBeFi9eLKKWfBwyZIipVauWHKPDQuiyVoeOmbWC6WvckuKURNz902GtH2WMxdtnnXWWdN7YJR/i7OzxZZb0kMZwGcaOCMYo0Ui+ehAh8Ouvv2Z1X09SetPzkvyn7jEo8PWSp3kZBEC29kuqv9mGw/07duwo6aQNIZ8hqT5FwYMx1Klw+SBe3tZJ6VcURYmiYEKM0SDeF0ar//d//5eVZyCdhg0bmr322ktE1oQJE8TDkd4x0rHQAQwePNgsXLiw5IcYAxb+I9S8t4BGOqqhZZRMZ55+HMHCwuiwp4ARMY1uWGhkguP169eXOCGE0kGs8As/CcZ9vv76a1O7du1gzxpuvPFGOc7TpXiyjjnmmODInyEdiCy8AbneB5555hmx+7Rp06Tj4mEDRCWQn+k2CdstH5sRT7wTeA18PiLCgU6OJxF5BUjfvn2lg0t/lUBSnPD8IFaiykLc/cOQDgQMnjc8rzytS1mNAyGByPFwXy8Y4uxclmR733zSS71jEMCDKd6WvALivPPOyym8uPqbSzjVq1eX9JFOygneK4irT3HlhfxEEIfrUzhP49KvKIoSR0GEGG54HvWmARsxYoTso8P3HRGvi+AVE0kw+j/66KPl6Us64EyvrMCDg7fk7rvvLmkUua9/lxZCjsaXKVI66VtuucUsW7ZMjqVDJ0xjTKMJjzzyiIy48cDQKPMUJw0zaeExfu6L0IS77rpL0so9wtBgIyB4SnLkyJElNmC6gm3EH9OhEydOFPFKY07jzX323HNPOTcMaSTNCB3OZ3ojDE9/jR49WqbvSDeigifdcr0PMM1HuvFIcB4dCeEC02McmzFjhmzjSeC9cZ5sbJYOr/cgPX76BvAqAE/1kTaENx6NdGEDSXGiY8STQV6QTzfffPNaZSHu/mGwAdPNeBcRiJTNVatWBUeNiBnug/08TF1xL9LAj7Lin1KMs3NZku19k9KbCTxM5BH2J2zwrzfJJby4+pttOJR16jXnszyCeu7TGVef4soLop2nt0kf6aK9waPo8zQu/cBUMGKQpz0VRVHCFESIvfbaa2bOnDnywxvEaJRfnz595Phzzz0X+e4uOgYaMP4CjeYee+wh05s0buCnZ4DzmEKioWTtSIsWLaTT80KPaYfWrVub9u3byxoNGnXWfXm4F54i6Nq1q2nbtq058MADRSwwRcXomeuYFhs7dqysB2EqB2ExbNiwkmtZh4VoSxcHwHQI1yOQ8OjRGXAPOgjij3eH+Ddo0EDui0C76qqrRFjgQQrbg9E/HSZpYuqWToTjgF1Y80JnQhwRFogs1knleh+gE6xbt66sI2K9GV4DOiA6PcJnvc6VV14pHSFrmPBY+uuTbEZcEVWE5eH6bt26SZ41btxY0kIa4cUXXzTNmjUTMXnEEUdInOgIw6THif8Jw8P5TE+xrof40amGRWjc/cPQQXMeHSnX8zoH7OnTThyZHmWNIWGBX6tGuJRpptO8JzLOzpnyhbLvyx1wnB/npsP+8LmE46c24+4bJim9mfJyu+22k3zgtS3YEZtQzqgnSeGFiau/2YZDPUPAUe6xP4KKtZAQV5/iygv3GDRokAgq2jj2k07iBHHpB15pweAtk9BXFOWfTTnrfet/MWhsWe/BiJhGkI7Yg4eM0TIdBo0hf6MgHN4nxOgY4cdI2cMomocBuJ5jceFkgrVaxIMOk+tZ2OzhvjTqLDTmWHi9TTqMqt966y3pWDJN8zEC9/dBnIbjmct9AOFGB0RcuV862JzOBGERTo8nH5sx5UT6mN7xDxYAeYJnzC+OjsKXA+KE+CS9XviTft57RrooC+miA6Lunw7hIi7x/vnO28M0NHmAMPBl0dsCMZ4+HZxk57Iil/vGpTcK0vzGG2/IAIWyGC5v2YaXVH+zCYd8p+zgAUMYMTD0xNWnpPKClwv7IWgpl+lEpZ+BIgMmPMaZ6o2iKP9c/rJCTFEywQLusBBTlGKDN4z1s7zoGg+doihKmD+7BxTlLwxeDjwlirK+gJeU17CoCFMUJRPqEVMURVEURSkS6hFTFEVRFEUpEirEFEVRFEVRioQKMUVRFEVRlCKhQkxRFEVRFKVIqBBTFEVRFEUpEirEFEVRFEVRioQKMUVRFEVRlCKhQkxRFEVRFKVIqBBTFEVRFEUpEirEFEVRFEVRioQKMUVRFEVRlCKhQkxRFEVRFKVIqBBTFEVRFEUpEirEFEVRFEVRioQKMUVRFEVRlCKhQkz5S/HBBx+YL7/8MthSFEVRlL82BRNi33zzjbnnnnvMtddea+677z7z448/Bkfi+eWXX8y8efPMrFmzzOzZs80777wTHMkfwrj11luDrfWP3377TdKKrcaMGWPeffdd2f/FF1+Y/fff30yfPl22H374YXP//ffL/38F5s6da9q0aRNslZ4nnnjC7LPPPsGWMS+99JLp1KmTefnll4M9mfnhhx/MuHHjzGuvvRbsURRFUZT1k4IIsU8++cQcdNBBZtSoUeb55583p5xyijn++OPN999/H5wRzZIlS0zXrl3NmWeeaU4//XTTpEkTc9RRR0mY+UIHfNtttwVbpQNx0atXr4J5YVauXGkOPfRQCRNhgehCbNx7770i0BBjq1evNn/88YeZMWOGeeCBB4IrS8dVV11lrrnmmmCrbPjpp58k/oUCO3z++efyP2ET/3/961+mffv2si+Kr7/+2tx+++2Jgk1RFEVRik1BhNhmm21m/vvf/5qnn35avGIIsgULFpjXX389OCMaxAfXI5yWLl0qXhDEHB2p5+effxYvV1Qn/9lnn8mUFeIFDj/8cPPcc8/J/x7u895770WKw99//918+OGHf/LkffrppyKYEALpfPzxx/LLFu5x2WWXyX1I51133SWewDlz5pgGDRoEZ6XYYIMNzE033WTuuOOOYE8K4k86SE8miD/he1t43njjDfPmm28GW2uIswtpxlsX590kTe+//7756quvgj1rgyh6++23Ez2kxJdwogRvhQoVzMiRI81ZZ50V7EmRKd+22WYb8+yzz5oTTjgh2JMivZwA/3/00Ueyn7AURVEUZZ1iy4D//e9/1nWG9uWXXw72ROMEk91+++3t3LlzZduJLtuxY0d74oknyvaIESNs7dq17XbbbWerVq1qe/ToYV3nLsdcx207d+5snZCzlStXtu3atbMrV660s2fPtnvvvbecA65Ttk2bNrVO7EhY/fv3t999950cu+CCC2y/fv3sQQcdZKtVqya/8ePHy7GxY8dK2OXLl5fwO3XqJPs/+eQTice2225r69WrZ1u3bm1fe+01ObZq1Sq593XXXSfbYZwYsnXr1rWjR48O9qyNE3W2UaNGdsqUKbJ94YUXStzg119/tU7gyj133HFHCWfChAlyzIlFsdnQoUMljZtuuqndY489rBO2Ys+uXbtaJ2Tkhw2doJHr4uwybtw4udduu+1md9ppJ/viiy/K/jBOwNn27dvbihUr2lq1atljjjnG7rDDDnLMCSrbvXt3W7NmTYlrjRo17JgxY+RYOk6M2vr160vcsPPgwYOtE0X2wQcflHvD559/Lvn7wAMPyHZcvqWfG1VO5s+fb3fffXe79dZb2y233FLS6kS3XEP8Bw4caKdNmybbiqIoilIWFGyNGOty8Gg5ESbTYIcddpjZZZddgqPZg4cJ74QTG7LNVCXeNbw2jz32mKwn44f34oorrjBOOIjHheuckBBPUnhKCy/aoEGDjBNO4hXiWtcBi+cOvv32W+M6W+OEn0yHnnzyyeaGG24Q78lJJ51kbrnlFrPzzjuLl47zwIks8fS8+uqr4vVz4kk8XbDJJpuY5s2bGyfQZDsM8cTLxPnZwLo77gNPPfWUxIU4kA7Wl/3nP/+RY3h1VqxYYR566CGZysR7uNFGG4mXkb943pjuZboYr9MZZ5wRaxeOORFqhg8fLtO87Pf54eGeTiSLrUkXeUQeeM8h+dCnTx+zfPlyueeQIUMk/ngYw+DNOueccyQe5Bk2deIwOLqG8LQtxOVb+Ny4clK9enVZS0gcOIYnzXti8cK+8sorckxRFEVRyoqCCTGmJVnrhXhheqlFixbS2WUDnR6igTViLMamg+zdu7cc69Chg9l2222lA+W8jTfeWDpsOnQEAh3xVlttZTbddFNzzDHHmFq1asl1HjpTzt11112lk0fc7LDDDnKth3sgBBAtLJan0+a88uXLy/1IR+XKleUedPCPP/642XvvvUVgIMR23333kmm/atWqydQstkgHsVquXDlTtWrVYE/2sHAfoUB8SNPmm2++1lQacUTQkE7swaJ5xAWCCXG44YYbyo978zfOLtyD6WKEHdN25AfbYbAD03/YbeuttxbhecEFF4iNgPuQl9wLMcY205/YIAzruBBMiETO3W677Uz37t2zKjtR+RYmrpzstNNOYieuQ8hynL/A/4jf9KlQRVEURSkkBRNiBx98sHhW6Pguvvhic/7555upU6cGR+Ox1srTk4iYSy+91DzyyCMiOgAxgNBhQTudIh0l5+N54bfFFlvIeVHgIUHEESceIuDHgvmwhwdx5EG0wK+//ip/00FMIDTHjx9fEt6dd94pcUwCEYB4ilpPFQeemcWLF5t+/frJPfEwpYvOsHjhXtgUW2Uizi6VKlUSrx95SbrOPvvsEs+cB/GEqArHgft7WyKahw4darbffntZs3f99dfLvvT44NlC+FWpUiXYkz3Z5FtcOUFId+nSRcRoz5495UnW8PoxRVEURSlrCibEPHg18AbhIVm4cGGwNx460QEDBpgrr7xSvBUIAcDrQmfOoms8Tixsb9iwoRzjmooVK0pHHgcdPN4NRCHx4cc02nnnnReckRvcF+/Y4MGDS8LjhxhLon79+iI6wt64bEFI4L3hWn9PnujMlyS7MCXMAwU8zckrNCZNmiT7PXihWEAfXlyPiPFC65lnnjETJkyQ6UMEJF5C8isd4oE49VOOhSaunNx4440iJnlyd9GiRVL2FEVRFGVdUhAhRkdGh43HA+jU8OD4tVCsW/JrqHIBTwZPw+Edw9vCGrRVq1bJMabmdtttNxFAeJg4l/U+6e8hw9uBaCB+fiqP6atsvVJ04ogE35FzX9aA3X333SUihDVJeJOAaS7EI169dBCRnTt3lqchWe8GXItYIX5x7LvvvjKdGBZxeLSyBXHr109BnF34IZ6gVatWpm7dun8SSghD8pfruY704/XyTy9iL0T5lltuKeEj8sijdJgeBGyAkMNLNXr0aPHmFYK4ckL+cRzb4P3Dvh7KMmvw/DvdFEVRFKUsKIgQo3Nniqt27doyFcXC8COPPNIce+yxcpxXSUS9DwuvCj/WY6WDx6Zbt26y9mjPPfeUxeOsF6ODR0TglWKqklc/sLYIUUCnSlh+qor9eNoQP3T6LARn8f2TTz4pxwkHL5WHsImPn+bjfNY3tWvXTqaxOM60IEKBhxFYC4f3zwtNhBgvtEWMpkO8eJCB92DxLjHWVvG7/PLLRbAw1UZ8uAeE48b52II4NG7cWNJyyCGHyLH06yA9XZzLOj7yh4X+cXZhGpKpOr+f6T7uHYZ7sdif9V94+sgfzifPYK+99hIBxzqxli1bilhHvKWv/WIqlHCuvvpqOR+RyxpAwg/nY5xtgP0+38Ln8jeqnOBpRSC2bt1a7IMo43zAU4Y4fPHFF2VbURRFUcqCcjZqEVGOIMaYPsQTQmefvn6pNNDZIw7wbPiO0oPngrVpdNoIiUyCDvCEcB7nI6CYXswWxBXeOESgX7vmvTd46Ojc/f5swYPEO7oQJ3jKouKdDtO1b731lkzpIWK8MMkGvJTcl3VffvF9lF3YzxOT2Bu7ptvdgzds2bJlIqIQlWEQqxzjXoigOPBWUX7q1Knzp3AKQVQ54b7Yk/jVqFFD9gEPIjBdPnHiRBG+iqIoilIWFEyIKcrfBQYVp556qgiwgQMHBnsVRVEUpfCoEFOUDOAFxZOXPpWqKIqiKIVEhZiiKIqiKEqR0OG+oiiKoihKkVAhpiiKoiiKUiRUiCmKoiiKohQJFWKKoiiKoihFQoWYoiiKoihKkVAhpiiKoiiKUiRUiCmKoiiKohQJFWKKoiiKoihFQoWYoiiKoihKkVAhpiiKoiiKUiRUiCmKoiiKohQJFWKKoiiKoihFQoWYoiiKoihKkVAhpiiKoiiKUiRUiCmKoiiKohQJFWKKoiiKoihFojBC7I8/jFm0yJhZs9b8Zs825uuvgxPKgOXLjenVy5hhw4z55ZdgZxlx223G1KplzMSJxvz8szGXXWbMv/5lzAcfBCeE+PFHY4480pgmTTIfT+Lmm43Zaitj7r032KEoiqIoyt+VwgixFSuM6dbNmEMOWfPr3NmYp58OTigD3n/fmP/9z5iHH06Jo7Lkyy+N+fRTY776ypgffjDmwQeNuf9+Yz76KDghBKL0s89S5+cjELnHJ58Y8803wQ5FURRFUf6uFM4j9ttvKU/Of/6T8urcdJMxLVoEJ2TJ77+nvEh4ldLhHggfRBHst58xy5alRFHlyql9wLXvvBMvZBBT3If7pfPxxylvW5SIqlHDmMceM2bJEmPatAl2Orjfhx8aY22wIw3sQ7iET1rCcK/33jPmp5+CHRlYtSr1S8fbbOXKP4erKIqiKMp6TWHXiFWpYswJJxhz6qnGnHSSMbVrG3Pjjalpvf/3/1LnLF5szE47pY4DgmbnnY0566yUuKpXz5ittzbmv/9NHYcHHjCmYUNj6tRJHbv4YmOWLjXmgAOMGTAgJXLwil1zjTHbbGNMgwbGbL65MQcfbMzbb6fCuPVWY3bc0ZhLLkmFtd12xjRubMyrr6aOz5uXEo5cv8MOqbiPHZs6Fob79O9vzIEHGvPGGynxQ9jEmzDbtVvbU4ZQ+r//M6Zu3VS4xL95c2Nefjl1/KWXjGnZ0pjtt0+F8cgjqf0ePH9HHJFKO3HDVkz7AnFu1Ch1X44zXQoIup49U9OjiFVFURRFUdZLCivEvv/emBkzjLn77tRfvFNMtTFN9+23qXPY56fuYPXq1DaCbcMNjTnuuNS+G25ITdEhds4+25hff02Js+HDU94n7kUYnIPYYU3VpZemhMmUKcb06ZMSLIg2YL0aouz6641p396YvfdOiUAvtl55xZj69Y2ZPDl1n403Nua661LHwiD6uC8/BA+C8PLLU54whBBpwLvlQbghthBGCErSwn1JL9cjDNlmOnfffY157rngQgeeMo7jgbvoolRcSff556e8YwhP/o4ZY8z48SnhBcQRAYenzNtdURRFUZT1jsIKMabH8BYdf3zK4/Xuu8GBLMAbxZqv0aNTnirEGSLuySdTwsaHec45a0SbB68UQox9Q4YYc8wxKVGGB2rhwuAkB2IJzxuL7lnkjweP6ULAizd1qjGdOhnTqlXKO5XNOq0XX0yJIQQki/oRW3vsERx0bLqpMRMmpAQknq999jGmUqWUrfCc4RnDy8W1CMh+/YILHRyfO9eYXXZJefeIV7NmqTgz/VquXErMvfWWMW3bptIGhI8QRuDtuWdqn6IoiqIo6x2FFWJMneFNuueelIcGIZQtrPPabDNjKlZMCQnEFV4w1lQhoJgqjII1Xwg3rmUaFAiP9Vx418LUrOlS7ZKNCKtQYc1asBdeSHnJttgiJQTnz49e7xXGx4/pTiDu4TVr4alLpiV5ohKByX7+IqSIc9WqxpQvb8yWWwYXOkgTHjDittdeKY8XAovziPsFF6S8eHjudt/dmGuvDS50EF6czRRFURRFKTqFFWIIKabYundP/cUbtNFGqWPffZf6i/hAYGWLFyZh7xpTb2EQYIgfpgEJHxBnTEcijJIgvCuuSE0zIiKJ60EHBQcTqFYt9ZeF+oDwCz9s8OabqbB5kIFpVqZAfZqwF4KKBxAQXBB+5QdikSlSpiyZYkTw8UOg4elq3Tr12hCmUzl31KjgQgdpyvTQg6IoiqIo6w2FFWKZ2Hbb1JQhnrILL0xNXXrRkQ1Nm6Y8W5MmGXPeeanF+UcfnfIkeQifRfIID7xDjz+e8g4xfcf+JBAtCDfWmjHNyNSlX0yfBGvSEGOIIdLXo8fa1xJPvG6IRIQY67m8WMRDxoMFTCGydgzbcNyDh5FpSTxiLPhfsCA1fcs6N9bGYQ+mM/Go8XACnj4gLUyx8gAA1yqKoiiKsl5SGCHGVBner002Sf0fhqcLEUN4mxBJTP8xjca5gMeMH14t1jzx4xj7EFisq0Lg4EUbMSIl6Jhyw5sUvo71YyyIf/TR1D1Za4ZXjrViwHl4n/x9CZvrfby5nrgPHGjMlVem1mJxPoSv5RwfP/bxBCTrulhPxqs7WMTPU44c41zWf3Xtmnp68fDDUwv3EV94upg+ZHqxenVj7rortUaNtWYIO8LHy/fvf6fCGDo09bqMo45KpZE0f/FFKt6kF4/haael4ssx4sw9fBoURVEURVnvKGcdwf9lBx4hpugQMIiQfMCLhEeJab24tWd4ihAlrAXjPO8lygam/LiW9V544XKB9CHG8JB5sedhPRjhMuW5224pkRWG+/JEJ+u9wmvEPHjqeGCB9Wh40XhdBeny4XI9diXNiqIoiqL8ZSiMEMMDo6w/rANtrSiKoihK6Sn7NWKKoiiKoihKRtbN1KSiKIqiKIryJ9QjpiiKoiiKUiRUiCmKoiiKohQJFWKKoiiKoihFQoWYoiiKoihKkVAhpiiKoiiKUiRUiCmKoiiKohQJFWKKoiiKoihFQoWYoiiKoihKkVAhpiiKoiiKUiRUiCmKoiiKohQJFWKKoiiKoihFQoWYoiiKoihKkVAhpiiKoiiKUiRUiCmKoiiKohQJFWKKoiiKoihFQoWY8rfjvffeM19//XWwpShKLnz55Zfmgw8+CLbKHu738ccfB1uK8s+j4EKMTnDx4sXBVn4sXbrUjBkzxvz73/82U6ZMMV999VVwpHAMHTrU9O7dO9jKjR9++MGMGzfOvPbaa8GeaHI5t9DMnTvXtGnTJthaf6Eh7tChQ7BVOkhz586dzVtvvRXsKVv+KjZeVwwePNj0798/2Fp/KUa9LGQ5Lyu++OILc9RRR5mpU6cGezLzzjvvmFtvvTXYyp9ffvnFnHzyyWbixInBnuwpbd17+OGHzf333x9sxZPLuYXkr1Bm4iiW3f5qFEyIUaFuvPFG07x5c3PWWWeZn376KTiSPT///LO5+OKLzT777GNmzJghguyyyy4zLVq0ME8//XRwVmH45ptv8hZ4eFtuv/128/LLLwd7osn23Kuuuspcc801wVZhIA9oWNd3fvvtN2lwSst3331nRowYYc455xzTsmXLYG/ZUggb06H06tWrIDYoNtSr9dEbmV6/cqnDhaJQ5bwsQZxuu+225rTTTgv2ZAYBe9tttwVb+YP933zzTXPooYcGe7KnNHXvjz/+kD7mgQceCPZEk+25ZVGP/wplJopcbJzEp59+anr27GmeffbZYM/fi4IIsd9//92cccYZMorae++9g725c99995n//ve/5uabbzYzZ86UURKGb9SokRk0aFBWlY4G9u233zY//vhjsGcN7Hv33XdF8EXBSBm3PGkCBCbbVAjPNttsI/E64YQTgj0puObDDz9c696ZzqUBIR7h89544w1pkDJBIfzkk0+Crfg0Eof3338/VmR+9tlnkiYqSibS7xcHaWF0zN90fFyi8o37YC9rbbBnbb7//nvxsIZtHyY9nsThggsuMMccc0ywJxlsQBzTGzvKCOnKFPckG8ddy/2wPXngIR0vvfRSRhuSx9jAl8e4sCH9/Di8/aPKQRxJ8QhTmvuQ96SHspCJbNObXr+i6rAvD3H5nk2aw5S2nOcDcSSu2ZQDD3m63377meHDh5tNN9002LuGsK0PP/xw89xzzwVH1pDUtqTz+OOPi/CrX79+sKd0dQ/8OeH2cdWqVTJQ82ywwQbmpptuMnfccUewZw2kIVw/M51b1vU4qcwQHtdnuhdkWy8yQZiZwibNH330kaQ7U7jck37NXxdl46TyTjjp7QVhvvjii+bzzz8P9qwhn/rjy0iudbnMcBldalyi7MKFC60TMdZ1hHb//fe3q1evDo5mx6+//moPO+ww27VrV+sKabA3xWOPPWZr1aolf6NwHant3r27rVmzpq1bt66tUaOGHTNmTHDUWqfMrWt8beXKle0ee+xhO3ToIPcDV+htx44d7aWXXmpdg2ArVqxoDzzwQDtnzhzbqlUrW6lSJdugQQO7aNEiOd8VBtuuXTvrlL5sk+Z+/frZgw46yFarVk1+48ePl2Pp57oRp3UNj91tt93sTjvtJHYjzRUqVJBf1apV7ciRI0vidP7559vatWvbFi1aWNeZxKbRFUbbvn17iT/2coLE7rDDDsFRa51osSeeeKIcJ03YY/LkyZJ/me7H+Zng3E6dOtmLL75YwneNttht3rx5wRnWzp8/3zZp0kSObbLJJnafffaxbhQtx1ylskOGDLGbbbaZ2Kpz5852++23l2NAWRg1apTYaccdd5S0TpgwQY7lY5coZs2aJfHG5pSLwYMHiy1GjBghYW+33XZyrEePHtaJX7kmycZx17766qu2efPmJWm6/vrr7dixY8UO5cuXlzhgV6BM9e3b17Zs2VLu4wYmsWFnOj+KsP0Jh/JHefc89NBDkl+u85Jt11hJmj1x8Tj11FPFJpB0n9NPP926AVywZe2TTz5pW7duHWxZ64SSbdq0qdQ97te/f3/rOlM5lm16aUsy1a9MdZjwabs4h/rBea5xl+Nx5TmK0pTzOOLshn369Olj69SpI2E6wST7SpOnmWw9e/Zs6wbdchzi2pYoyJuDDz5Y2hFPaeoe8aQdpoxVqVJF4jB9+nR78skn2+rVq0v9wt6eCy+8UM4HJwjlOmxLO0Ien3TSSdZ18nI8fG5Z1uNsyszo0aPtFltsIffhPOL87bffyvFs60U6SW065X/33Xe3W2+9td1yyy2l/3KiU44R58suu0zSQpw559FHH5VjYbtl064PHTpU6jv3p59eunSpXbJkicQJ27Ifu0G+9SeuLlM/KNdhu6ELevXqFWyVDQURYmEoCPkIsY8//lgyetiwYcGeNTiVLQ3L7bffHuz5MxRkjOcrDoW9cePG0kAQNv8TNyo/ooxC6oUYxylYFN7XX39dMp7CT0FE/LnRl6SJCu3Pb9SokZ0yZYps0/lsvvnm0vAQ/nnnnWebNWsmhSt8Lo0/wm7ixIlyHeKR+GKrY489VjKbdFDAvD122WUXu2zZMukQ4tJIgzdw4EDbpk0b60Ytdvny5bZt27ZSKTyIF+KFcOEebuQr6Vy8eHHG+0XBubvuuquc//LLL4t9sCWNKmkhnQik0047TeJK/DjWpUsXOf7ggw9K5SEtiHcEEJ2kh0aeeCxYsEC2p06dKveDXO0ShRvVSRhUMmxBI3/PPfeIHWmU3WhJznOjfrER4Wdj46hrYdCgQfboo4+WOGMHygf/T5o0ScofZQ97AGWKzgRBzzlx8YJM50eRZP9p06aJbVasWCHb2JGGy5MUDy/Eku5Dxx1u4B5++GHbsGFD+Z8yhJ3JS9KCrclTBjKQS3qj6ld6HSa82267TeownSsN+yuvvJJYnqMoTTmPI85uhElZeuedd2SbjgX7lDZP021N2hhIeuLalihWrlwpcQp3nqWpe8QTgUKekk/dunUTcXD55ZdLPtG3YBvu688Pl1WEzYABA0TUMEhDyPnBf/jcsqzHSWWGazlOGglr7ty5IkwQZ5DpftmQ1KaTJkQZ4WEfnA4IQKBsESfixnEcGDgYIGy3pHYd21HP6H8pt/x/zjnnyHHuv/POO9u77767RHTmU3+S6jL1g3J97733BldYe+aZZ5ZohbJivXlq0hUacde6ihPsWcNGG21knHKNdMMC1zlFbzbccEPjKqlsO0PLVKMbwRiXeTINQVisR+jevXtwZQrcqGeffbZxmSA/l+nGGd8ccMABxql8mXJ1lSfS/cmCSjeykfCdaBM3OOtlwmy88cbGjWCMG52Ki9eN0mSbtBFvfsSbvx7X+Ehc3GggNo24WJlqIQ6ucTL16tWTaTqn+iUcXOiuUTFulGfc6EHCcA26xHfRokVyDoTvFwf2InzXOYp9jj/+eOMqizz9hHue+LhKKOlzIyhzyimnSD64gm6eeOIJ4yqd2Iz4uYJuXIUKQk4t8HSNoNjLdYTGidw/ucKztUsUrE1xFU/izXWuMZMyQbqIl2tYJC2USeLhKnCijSHqWnCdhKSHMMhzN/KW+HMO93UdwVphuZGacQJCzomLlyf9/CiS7J9EUjw8pbkPdnIdnHENq5Qb6pIbFRs3mg3OyD69cfUrzIEHHmj69OkjdaJr167GdYBy76TyHEUhynmuUIZoe6ZPny7t5VZbbSX2SaI0ZSvbtiUd6h8/8sQTFY9s6h60b99eliaQT+QnZYZ8owyQBpaaRK25Ilw3iBYbNm3aVOprpvwty3qcVGboO5xYkvJJWEwl00dhf0+29SIdzo1q0+kTeTCCsoVNKFfeNo8++qjYq127dhIGf1u1aiXHwiSVd65lfS91nvC5H0twmKKsWLGiHOcv9oV86k++dbmsWW+EGJWXQp2pkpD5zBvXqFEj2PNnKNA8CelGF7J+wY1oZZ8Tm7KegEY1XOEzNU6+0HKM8/020KiQyVEZXa5cueC/VMMPbmQofz2VKlUy1113nXQwVCaEnxuhB0f/DGFSuDxxaaRBQ3jUqlUrODuVHh8vjmFHCq6H+GBTNyqQ7fT7xcG52Mjjr+M+NMxUjnB+UeCBvKBis41NgbDCtmZ9AE/e9uvXTyrJkCFD1kpXLnaJAmFOHN3oMdizBt/Y0aDx4AkVNBsbQ9S1QFo6duwocaShTXq6mAaHOHriwob086NIsn8SSfHwlOY+lCGu5+Ed7MZv5cqV0tF7sk1vttAG+fjRCRI+AjCpPEdR2nKeDzwsdcUVV5gbbrhBOvRJkyZltV6rNGUrm7YlE7SP3CNsk9LUPQhvE9/wNu0V21GDafDncy4/2pF0yrIeZ1NmsLM/DmyH+5F86wX3imrTcUJ06dJFRBKL5mfPnl1SrqgfxDlTnxomm/IeTit1EOGcqW2BfOpPvnW5rFmT6iKDd4hRDiPedM+XHwXHjaafeeYZM2HCBDNt2jTJnFGjRol6Bp+hFChPNo1TWdCkSRMZ9dx7773yWC8NZbbEpZGKSSUKC1nS6AsxhY9f+Dj2oALXrl072JMb4QrCiI44IGxohNPtzSiEik4F4Bzi4RtEwgnnByNORkPk+8KFC+XHE0lRxNklCuKAqKaBD0M8EXV4T1ncPWvWLNOwYUM5lmTjuGuBMk7ciCNlktFntiSFnQtJ9keQYJtMx3OJR9J9sGe4owvbkmsZFfMAkC8DCxYsEI9FWeHvDZRdBn94O5LKcxSFLueeOLvRkfXq1UueOO/bt68I2SVLlhQsTzORb9vCgJX4YmeIi0dS3VuXlGU9TiozlDfCCDsEGKAQp0IQtme4TeeNCOQpZQkvJ15HD3UEEROOZybyLe9R5BNeUl2mPCIow06UKOdLISmYEKNhoOKRACLOSNI3Fjy+ymso4iDDcYXS2PKkhS+IGJf3ifFuKNR4FHg4aGxQt9yfcLygYwqLYzxKC6h5hNC6hsJK5QVct3Xr1i0RAhQQ1LpPdybi0kih5OlS0oXtqZx4hnwjR2XBfTxx4kTxyFFp6OQIZ88995RzcoHrqJw8rcJo+M4775QROCMS/hLPyZMny3mUCx6LZ7SOS36vvfYSO7zwwgtSKW655RazbNmyIGRj9t13X3E1ewEOjBSjiLNLFLjaAfGGLRjxjR49WsLCZowyqZR0aKtWrZJzk2zMPaOu5R40YJxTp04daUB8HBGNlAPuHUVc2LmSZH8EEPFh+pbjPMXsj+cSj6T7MPBim2l6fiNGjCixJXWdNgFbk6eAzfMdtWZTvxgg0VaRVwySuC+ei6TyHEWhy7knzm5M5bAPkYO3xou2QuVpJvJtW5ih4FqWE0BcPJLq3rqirOtxUplp27at3P+pp56S7eeee87MmTMn9vUftId4i5Igv6LadMQhHjLqEXlMufVgA+JEXw2PPPKIeP3Sybe8A+UYgcS9PfmEl1SX8SaSTgb3tBVM+a4LrVAQIUbhPO6440SVM/VGIaHi48IECgsNXBLdunUzl1xyibn66qvFKMzvH3TQQTLnzD4MGAUFGGHDWqGWLVuKcqfyUtiZsmKu/corr5QKwJQgBdeHhxomo8PhM/pilOfhOD/OTT+f/8Pnsp/ruXf4XDIdmyACaLgQraQZDjnkEHlXGnG99tprM8YpLo2cxys+aNTq168vDSD3IR+A44yOqdwNGjQQ+44cOVLer4RQzXS/OLgnlZI4EWdGd1R2wiDfmB4ZO3asrLvgOGkfNmyY2AkXd+vWrWU9B+fS8ITXFJA32IXzWK9AOrAP5GqXKJjiwl6UK66lIjICxC7cm1EuNuRRfvZxvyQb8zfqWuoIjSq2J010hKxzA8oCnRLlnDQDaQyXqbiwIf38ONLtT6NDWB46PKZeWI/DcToC7gm5xCPpPn6dJvagMUf0eA8Ka/aorwzKfH2hnD755JNyPJf0Qjb1i7JKGaaDZeDItBH3TirPUZSmnMcRZzce8W/WrJnY64gjjpA6QX4WKk89dIp+CQbnxbUtUbAOibgjDqkfcfHgF1f3ID2eXMM+P2XGX9plvx0+36fHtxm+fHA++HPLuh4nlRmmQ4888kg5j+tYB8c+1oRB+v0AsXLPPfcEW9HEtel48BB0xI0yilhhP7BeDYFIXIgTU4V4CiEcn1zb9fC1CHbsShlATEE+9SepLpN+XkiNUKMNOv/882WtuC8HZUU5WwzfbgK4DWkoECp0mOH1QHHQEHAdi/CoKOng9UAxU/k5pxgwIuJliBQyGilfmIE5b0Z6cfFLSiOjRY4jLiho6dCQ0JghOvA6MALIFdZ9UOkuuugiqbRRcSatLPakkeNevgEERhuMBtmHHcLHPLiMeUM+rnG/CDiKJLtEgYeFBofON2wvbEQFpdKH8wiSbBx1LbbHY8HokkYjPJ3ACBR70JAxWIgiLl654O1PA0gjR4fNQlYPceWdQNiV/EkXtdnGI+k+voww6s40jcVx3gGGV4elCfmUV09c/RowYIDkCy8ppX5mytu48hxFocu5J85ueA0oZ8Qf75mnUHkaRT5tCx7pyy+/XLwo3t5x8Uiqe+uCsq7H2ZQZvLu864t70HZFQb1BRCFemVmKIps2nbaSckr7mj4lj014vxhlj7xH0ESRT3kHPFjkPRA3T2nqD7bNVJdJB+mhzUlvK8qC9VKIKes34UobXiug/DWh0cFbEhZIZcG6uk8+eCE2ZcqUYI+yLqBM4Nk499xztS0pA/AgI8BYQxu3kF3b9OJSkKlJ5Z8FIzimP+IqtvLXAZc80yplzbq6Tz4wyo97GEgpG1jXyXKUsp76+afCVCLrHZPaam3Ti4t6xBRFURRFUYqEesQURVEURVGKhAoxRVEURVGUIqFCTFEURVEUpUioEFMURVEURSkSKsQURVEURVGKxHohxPjEQ9zHYcsCXtb2/fffB1uKoiiKoijrnqILMd70zHck+fxIFHzIk095AG/d59tQvP06X3hD76WXXiqft1EURVEURSkWRRViCCI+3Mr3JPleVRR8joDPGACfhbj99tvl+2T5wucMjj76aPmsBh/IVRRFURRFKQYFF2J4rJj2Q2QB3zVjm+9npcM5fISWD2umf+uJY3wbku9bheHbWs8++6x8PysM397iPnzzKgxfuuebXIi5ME2aNJE48UFyRVEURVGUYlAQIYYIOvjgg83QoUPlK+h8qJSP+/Kdq3333Vc+bMrnQ1544YXgCmPmzZsnn1/o2bOnfMDz1FNPLVmzhQDDS8Y1/O64444SYYdnbP/99zfTp0+XbcQX3yrjK+qE06FDB1lzhsi66aab5AvqfFZliy22MGeccYZ8lBX4lAPHnnnmGdlG8J1++unm3nvvlW1FURRFUZSypiBCDC/UihUrzKxZs8xDDz1kFi1aJF+n79u3rxk2bJj58MMP5QvxY8eOlfMRU4MGDRJv2BtvvCGibP78+eaee+6RsEaMGGFWr14tYSxYsMB8/PHHJR4tBBbXcxxxdsUVV4i44lzO69+/v9lggw1kXRkfOx09erRMZ86cOVPE28SJEyUcPHB8qZ2v3ANfqX/llVckroqiKIqiKOuCgk1NIn7OPvtss9NOO8kPr9hhhx1mDjjgAFOtWjWz9957i6cLIYXg4av7u+66q3n11VfNN998Y3bYYQcRY4gsph4RaVtvvbWpV6+eueCCC8ymm24a3GkNhME1J554otlqq63kHL4cj7cLQYiHjLVnxG2//faTuDz22GPB1cbUqFFD7g1c/9RTT5mzzjpLthVFURRFUcqagq4RQ/AA3ia+pu+3ga+748Hix1Qm3quLL77YnHLKKfJbuXKleKjwdLHOLPwVeMIpV65csLUGvGT8mHZMB88W68m4r4dtvGMe4uinPBVFURRFUdY1BRVi2VKlShXxQE2dOtUsXLhQfkxBnnfeeSKcEEhffvllcHZq6tNaG2ytYZNNNjEVK1Y03377bbBnDXi78K6FhRZir3r16sGWkes222yzYEtRFEVRFGXdUhQhxpQkgouF8V4oMUXIgnm8W40aNZJj7EM88YoLnn5MZ/PNN5cHAe688065Fu/YrbfeKk9Jtm3bVtaqMd0IPB05Z84cWdjv4bxtt91W/meN2H/+85+ShwAURVEURVHKmoIIMaYNEVYbbrhhsCc17bfxxhsHW6mpSX6cy9OKV155pTzVyHoynmpkTRlPWRIGC/mXL19u6tevb/bcc085Bw8ahO/F38GDB8uDAg0aNJBwEXCVKlUyhx9+uDnyyCNNly5dRGwdeOCBsu/YY4+VcBBuCLGWLVvKNtOh06ZNMy+++KJsK4qiKIqilDXlbKY5v3UEHiyemsQbxWsqKleuHBxJeciWLVtm6tatK4v24+B6wmFtGoIu/E4y1qMhuFgfxpObnueff14W+d91110iBHlAYMCAAfJUJa/gUBRFURRFKWuKKsSKyeWXX24WL14sQgzhxnvMEGADBw4MzlAURVEURSlb/pFCjHVpt912m2nevLlp0aKF7ONdZCzcDz/pqSiKoiiKUpb8Yz1iiqIoiqIoxUbdP4qiKIqiKEVChZiiKIqiKEqRUCGmKIqiKIpSJFSIKYqiKIqiFAkVYoqiKIqiKEVChZiiKIqiKEqRUCGmKIqiKIpSJFSIKYqiKIqiFAkVYoqiKIqiKEVChZiiKIqiKEqRUCGmKIqiKIpSJFSIKYqiKIqiFAkVYoqiKIqiKEVChZiiKIqiKEqRUCGmKIqiKIpSJFSIKX8L3nvvPfP1118HW4qilIayqk9ffPGFeffdd4MtRVGgYELsu+++M/fee6+59tprzf33329+/PHH4EhuLF261IwZM8b8+9//NlOmTDFfffVVcKQwzJ0717Rp0ybYyo0ffvjBjBs3zrz22mvBnmhyObfQlCaN64ovv/zSdOjQIdgqHaS3c+fO5q233gr2rL8UMt3Kn3niiSfMPvvsE2yt/6yP5SHb+vTwww9LW58to0ePNjvuuON6W/6HDh1qevfuHWz9dXnnnXfMrbfeGmyt/xS7DqwPdbAgQuyTTz6RhFx33XXm+eefNyeddJLp0aOH+f7774Mzkvn555/NxRdfLI3ojBkzRJBddtllpkWLFubpp58Ozio9P/30k4zK8oER4u23325efvnlYE802Z571VVXmWuuuSbYKgylSeO64rfffpMKUFoYAIwYMcKcc845pmXLlsHe9ZdCpVvJzOrVq83nn38ebJVN/Sok61t5yLY+/fHHH9JOP/DAA8GeeGgP77rrLmnjly9fHuxdv/jmm28KPvAvBgz+b7vttmCrdHz66aemZ8+e5tlnnw32FJ5c6kBZxGd9qIMFEWKVKlWSjEcw3XPPPSLIGFUtWrQoOCOZ++67z/z3v/81N998s5k5c6aZOHGiGLtRo0Zm0KBBicKCiv72229n9MT9/vvv5v3334+tZHiwPvjgAzkXfvnlF9kmkzzbbLONxOmEE04I9qTgmg8//HCte2c6F4GEWz583htvvGHefPPNYGttKHSIXE9p0/jZZ59JmmhEM5F+vyi4nntlyhMfj6j84h7Yylob7FkbxDvTImG7h0mPIza94IILzDHHHBPsiQfBz4gxU/y4J/eOGkB8/PHH8osC+/LLRFy64+IE5Dfx8mUzX3zehMvPqlWrpPNNJylOmYgqX9yPsMirTGSqPx7uT5zzTXtU/YqrS9mQVM4h3/IASfUgnSg7lVV92mCDDcxNN91k7rjjjmDPGjKlG4FMG7vtttsGe1Ik2dEf59ow2bTXQFn86KOP1jo3DPlPm0x5z0RS2c1EPtfEtalJdTG93h1++OHmueeek//DJJUF4k2ZDNdf0vDiiy+uNbjx5FpG04mrA1H5FhWfpHzORFIdzCcf88ZFouA89thjtmbNmvI3G3799Vd72GGH2a5du1pX6IK9KQijVq1akWE5JWu7d+8u96tbt66tUaOGHTNmTHDUWldQbPv27W3FihUlHNfA2B122EGOuYywHTt2tJdeeqmtX7++nHPggQfaOXPm2FatWlknMG2DBg2sE5Ryvst8265dO+tGgbLtGizbr18/e9BBB9lq1arJb/z48XIs/dxx48ZZ1wjZ3Xbbze6000524cKFkt4KFSrIr2rVqnbkyJElcTr//PNt7dq1bYsWLazrTPJOI7iG1p544olynDQ5kWgnT55sXYHNeD/OzwTp7d+/v91///0lvoRFnF1FlOPz58+3TZo0sZtuuqndZJNN7D777GPd6EyOucJshwwZYjfbbDOxU+fOne32228vx4AyMGrUKLHRjjvuKOmcMGGCHMvHJplwI325frvttpP49+jRw7oOWY6R5zvvvLPcm7CqVKliDzjgADmGPTiXuNWrV8+2bt26JF2PP/64lJnTTz9d4kK6TzrpJOsaKTmelO64OGHvvn372pYtW0q+ugGK7E+He59xxhnBlrVPPvmkxNHjyynxJF3k//Tp0+3JJ59sq1evbitXriy298TFKROuA5F0kUbCotyvXLlS8nT06NF2iy22kP0cJ67ffvutXBdXf5w4tH369LF16tSRPHGdi+x76KGHpFw5ASnnuc5Jyr7nwQcflPpFO5KpfiW1F9kQV85LWx7i6kEmouy0LurThRdeKPkHcekm7IYNG9ry5cuLzZo3by7XZGPHnj17ip3OPPPMnNtrwt99993t1ltvbbfccktpe1966SU5BjNmzJC6QNncY489bIcOHaQfgqSym4l8rklqU+PqYlS9mz17tt17773lHMimLAwdOlRsR15gi6VLl9olS5ZIP+LzjThArmU0naQ6EJVvUfFJyud0sqmDueZjaSkTIUZFIYOcOg32xPPxxx+LIYcNGxbsWYMbrUgjc/vttwd71oZCSQflGzoKbuPGjaXzRGgMHDjQtmnTxjq1bJcvX27btm0rGQbcl0yjo3v99dclo8kQKjnC76uvvpIKQoflz2/UqJGdMmWKbJ966ql28803F1FDw3/eeefZZs2aSeEOn4soo6GYOHGiXEdnQHzdKNEee+yxtlevXpIOCoC3xS677GKXLVsmFbI0aQQaXOJFg8g9hg8fLulcvHhxxvtFQXrpyG+77TZJ7/XXXy+V8JVXXpE00qCfdtppEk/idvDBB9suXbpIOukgqbikw41m7eDBg6WD9NB4EIcFCxbI9tSpU+2uu+4q/+dqkyho3Gm8wI0YxQY+PjTol19+udiTuBIWZQJoLKmslAcqMeWhW7ducoxzqawDBgyQijpr1ixp3P3AISndUXECb2/ECWkmbplAZFOGPA8//LB0fB7CoVGhLGIv4k6jTnrJG+od9YBGHOLilA7xosPdb7/9RByRRu5DnhEOaWebuM+dO1caTxo5iKs/lAfi5Eakci5hc69p06ZJOVixYoXsJ7/pzD1eiEGm+pVPuQmTTTkvTXmIqweZiLLTuqhP5B+DPkhK99tvvy3xpA3kHtnYkQ6wd+/ecpw4Eu9c2mvOmTdvnpQ94oTgp0MFwiJ91G3KHqKMwY4XYkllNxP5XBPXpkJUXYyrd+E6AEllAZuSF9iTsPj/nHPOkePYkAHq3XffXSJEci2j6STVgbh8yxSfuPMzkXT/fPKxtBT8qckXXnjBuI7DuAppnIAK9sbjCpW4X13nEOxZw0YbbWTcaCnSPcg1nTp1MhtuuKGsPWDbVVxxXePKZXrQjSKMEyamXr164nZ3ajq4OuViP/vss40ruPJzmWxcZTQHHHCAcWrZuJGFuIyJYyZYG0f4xNM1AjLNw1qDMBtvvLFxjYpxo3lxn1avXl22SRfx5ke8+etx4kri4tR/qdKI29o1UrJuz4ljCcN13BLf8NRx+H5xOMFi3Ahcru/atatxBdi8+uqrxo1AJC6uYZG0uZGJOeWUU+SY6zRlEbWr8GIv4uZGuMZV5iDU1MJf13CLrVwjZFwH/ScXc7Y2iYJ7uwom04uUN+7lOgS5hild4kN5wIau05bwSJOrmCXlwFV64zqxtaa7sLsTEcZ1RKZp06bGiR5JMySlOypOHtZMOjEhaSZu+dK+fXuZbiJvyEM3spS8ogxyD6Z2/DqJpDiFcaLJuBGplKmtttpK0sh9XKcm5R1bUU6Iu+s0pF5RHj3cK1P9wZb8P336dKn7hJ1UNtPJVL/yKTdhkso5lKY8ZFMPwkTZaV3Up3Ti0l2xYkUpA+QJdsvGjuw799xz5bjP+1zaa47z0BL2IUxs48PmPq7TlqUjlL1DDz3UdO/eXY5BNmU3nXyugag2FaLqYly9SyepLBBX1gQ6MSVhYTOm7Znu8/nGX/IVci2j6STVgbh8yxSfuPMzkXT/fPOxNBRUiDHfSsWiQXWjkmBvMlR+KmimBXMYl7naGjVqBHvWhsLJ0y5upCBz425EIfucyCxZlxAunBi2XLlywVYK9gGVnUrgt4HKQSGLKmjhsEgD0ImHqVSpkqybo/KQwTQkbgQaHP0zhEnh9pQmjRzDhlQcD/HBnm4UKtvp94uDvPL2oRBTGeg4EXxUzHA+0ZACIoeGhG3sCdwzbGfKzuLFi02/fv2kQR4yZMhaacrFJlH4CobwOOuss6Sycj5xZi2iG/HIGkcWdxNXxAqdEeWSwQXx4nfnnXdKOGG8vSk//IgLJKU7Kk4e7ItdS4uPHxBeeJv4su0HG0lxCkPnz49ONx3ylHLn0w5sh8t+OB7h+tO8eXNzxRVXmBtuuEEazUmTJq21diVf8ik3YZLKucenK9fykFQP0omy07qoT5mISnc62dgRG/nONoy3V1J7jSDr0qWLCAwWeM+ePbukDHEPrkVwerzYg2zKbjr5XANRbSpE1cW4epdONmUqbEPiwMAsKu9zLaPpJNWBuHzLRK7nZ1MH88nH0rDm7qUEkYHXBfX+f//3f5KZ2YKHCC8ECp/CFYZ9EFasYZ555hkzYcIEM23aNCkco0aNErUMGJLKFhZ4ZFCujUshaNKkiSjxe++9Vx75psHMltKkkcaOX/g44oxCVbt27WBP9oRtRziI5Jo1a4q4o/Kyz8OIl0JOY1ulShWJg+/sCSdcWWhQGNWQ3wsXLpQfD3xEEWeTTBAXOhpGwHizZs2aZRo2bCjHsAULdqnI5A+NCouQKZeIAxrGwYMHl8SLH2IsG+LSHRenXKAMhDu80pTxXOOEfbA73oV0yHfCCw9iVq5cKXZNgoaxV69e8vR037595Wm7JUuWSKdFeFHlKIlcy006SeU8iULXgyg7lXV9Ki2ltWM23HjjjRI+9sD7j8fI48VG+P7hfMin7OZb3sN1lfj4NpWwoupiXL1LJ9eykERpw0uqA3H5lolcz0+6f2narXwpiBBDvffv318SNmLECNlH5+Y7Bx5x5lUUUdCRHH/88WbBggXyJI43EBnM+8Q6d+4snWQmKIg0zihcDEcYXsxRYPB00LkSR4zJSI+Cvi5h9EXjBq1atTJ169YVTxbQIDE69GnORGnSSIVmmmDixIkililwU6dOlXD23HNPOScXEJPkJ+EgKAmHERujceI4efJk2Uf+8x41RuyI87322ktswNQ1DeAtt9xili1bFoRqzL777itubiq3h5FLFHE2yQTHsAkjGzovOq5Vq1bJMfb7iocLmsf2fdnFa0Aa7r77bqm8QF5h52yIS3dcnHKBQQxhMu3NjzqYbxnPNU7Yh7xHmFLOuZ53GPG0Udu2baVhfOqpp+RcnuSaM2eOTAMlwdQIaaHDYQrBi02mHag7vBYGe/KUdbgcpZNev5LKzZgxY2If/U8q50kUuh5E2ams61NpKa0ds4H6SvmkDND2YQ8PU5rcf8aMGbKNF4U21JNP2c23vEe1qXF1Ma7epZNrWQhDecJTiP08SeEl1aGkOhCXb5niE3d+JpLuX5p2K18KIsR4bwkR5Ve/fn1RjvyY9wYSQkGLo1u3buaSSy4xV199tVREpoUOOugg065dO9lHpckERkXYsL6BDtSPBim4XMOrL1jzQLwQHswn05gDoy8yNhw23iU8SB6O8+Pc9PP5P3wu+72rPHwujQwuU+6NKGLqhfTCIYccIq/9YEqAl+FmilNp0shxRskUuAYNGohtR44cKe9XojHKdL84WAeCK5r1f4hr3OXcj/xiimTs2LFyDukh3cOGDRMb4Tpu3bq1rFXiXCoCotRDIccmnNe4cWMJE9tArjbJBPYgfNbPYaPhw4eLLQgTsYqYZd0KjSINCeFjJ46TXuyHV7ZFixYifPzAgkaBTtDf18eVcgBx6Y6LExBOuHxF4de2YDdGqjTiYW9nejiEzz4/FcNf4svfpDilQzh4C5kyoXxtt9120qHRKDLFdeSRR4oNCIO1MOxjzZu/Nqr+8Ih6s2bNpL4cccQRks/kEb+OHTvKujLsSQNKPD0+Pzzp9Suu3NABstYqbnSfVM5LUx4grh5kIspOZV2fIJx/Selmf3g7VztCpngTXrgMcZwf5+JJQlBib9JOZ80x4H6sDbryyitF6LBcBJv5sJPKbibyuQai2tS4ukg6oupdeh3ItSyw7W1K20gfTB+D8IO48LKpQ1wXVwfi8i1TfOLOz0TS/fPNx9JQzob9ousBuBhpXBErLC7HqEnQSXINizoplOngKeI4DQ2FvhgwYkGwUkAQQOGCwpw0HhY6UNKQidKmkdEWYo2FnngXM629SIIHMBh9MNohLZnuRTpZ0E5jwH3468ErwaiOfdggfMyDZ4o3euM+9g8XRJFkk0xgAxp8KrHPg0ceeUQWBTMa9eHQIM6bN888+uijso39WIvAiJRGj8Y7W5LSnSlOueLtzrRqPlPO6eQaJ7wwb7zxRsY04pFipI7Nsn2ABxjd4vGhjCF+PeQFU8nkP/eKEwuQXr+iyg32O/roo2U9J57ROOLKeRKFrgdRdoKyrk+lpTR2zAa8RaSf9GSa8qRO482JanvzKbu5XJNNmxpXF+PqXTq5lIUwiCvKBWAnT6bwsq1DSXUgLt8yxScpn9PJpg7m227lw3onxJT1F99oTJkyJdjz9wAXNKMqniLjCRleCogXllFQ3JS68vcCzzGNPF6ZJHGnKIXg79amah3KDxViStYwyuEJTBaQ/p3Aw8LUOY0h3gWm1XG/s24x7OJX/t5QtlnEHedVUJRC8ndrU7UO5YcKMUVRFEVRlCKhvkNFURRFUZQioUJMURRFURSlSKgQUxRFURRFKRIqxBRFURRFUYqECjHlLwPv8PLfx/wr8t5778n7gBQlDt4NRVkpJn/1ura+QF7yjjfeW6UoUfythBhv8+XN4sq6hbfR81HasoQXePKpK96SHkU4/3kxMJ9M4SWJZcXDDz8sL4HNBuJG/Hnp4PqO1qN4yrq88zkyPqhcLHKta5BLXfirk21aeS0O79PiDf60R+s763u95+WqfMapLCh22v9WQoy3NPO23/UNPid0zTXXBFt/P/j2H2/sLyt4QSDfz+STV127dg32/plw/uN5uv322+WbhGUBjSzfqUv6dBfwbh2+/3jOOefI52NKS1mXp/W1Hq0vpJf3QubH999/L9815RMrxSCfupZLXfirk0ta+V4h37Dk01pVq1YN9q6/5FLved8in+179tlngz1lD4PquG9YloZit3kFFWJ0frhhM31wGNcs7nYamkzwmYm4D5HyuQF+6dBw8JkKPnGQibg4ASMV3qROOMBnPtjO5EpOSgNh8DmV9HvxCQq+np+Oj3s+BYA4EJdcXd7+nrzNOVdohPjAcNhe+ZKL3TmHbwuef/75f3pRoE9Pev7zWQoaCd6YH4YyxH1ISxjyjBEXFTIbeGs0H6i/4447gj1roJEKT+sQJt+LO+aYY4I92RFVdqPKU77lE6Ls6EkKmzA57vMzDqZrsHU+5T4q/3z848KMakPIH7xAmeySDVH5kdT2ZIJvPNIO8u3HMISRS/kM420TjgdTjwwQ0uHcXOtaVF3gftg1Pc7Z5FUcUWUA4uwUlc/Eg/gQrySi0urT5D1fxI1P/3Au32LMhVzi48m3TkXlqSeq3mNLvnOaaQCe1Delt4+QTX/Al074bnU6XBPVrsXVwaS051N/84YXupYW16nb7t2725o1a9q6devaGjVq2DFjxgRHrZ0zZ47deeed7Y477ijHXAG1BxxwgBxzGWJdxbfbbrutrVevnm3durV1yleOPf744/bAAw+0p59+uoS9ySab2JNOOsm6jJbjLrNt+/btbcWKFW2tWrWs6+jsDjvsIMfi4uQKgu3YsaO99NJLbf369eV67kM8W7VqZStVqmQbNGhg3YhGzgfXqdumTZvK/tq1a9v+/ftb15DJMdfJ2n79+lk3irTVqlWT3/jx462rHNaNKm2FChXk50ZFduTIkXLN/PnzbZMmTeymm24q6dpnn31K0h3Hr7/+akeNGiX2wp6kbcKECcHReML2wi6nnXaabdu2rRxzDbPde++97cyZM2UbsE+vXr3kf+K7++6726233tpuueWWdrfddrMvvfSSHHvwwQeta2zk/zgKbfe4/HcNhG3Xrp11I1fZdhXOdu7c2W622Wa2cuXKcmzlypViz9GjR9sttthC9nOc8vbtt9/KdXFceOGFku/g0+Y6MIlnixYtrOugY+tFFFFlN6485VM+PXF2hKSw+/bta1u2bCnXhstPJkaMGCFhbLfddhJ/6r5r8IKj0UTlH8TVpaQ2ZNy4cVKXKM+UYde5JNYFX96j8iOpPYzDddzSBhIGlKZ8+nwn/bS5bnBip0+fbk8++WRbvXp1CY+2xJNvXYNwXXCdtL3sssvEHpQ12oxHH31UjuXb7pGP1C/ihC022mgjsT31HJLslCmfSVufPn1snTp1pC11Hb3se+ihhyRelANw4kbS7gmn1Zevnj17SlrPPPPM2LYyjnzjk2+dyrfeu8GCnOeEuuQj94W4vilT+0g4ufQHs2fPlnrpiWvXkupgXNpLU3/zpSBCjEyn0fKNGwWjcePGIrKc0hXjXn755dYpUGnEOPb666/LuRiTBtapUqnANBLdunWTY5xLpRowYIBUqFmzZklj8thjj0lYAwcOtG3atLEfffSRXb58uYgKCj/ExcmNOKVy0HkQDwrE9ttvL4WBsInL/vvvL3EBKjv3IQzuy70Ii8oNp556qt18883t5MmTpXE+77zzbLNmzaTwrV692h577LHSiBMnCivhURARQsSPOB188MG2S5cucn4cFMZddtnFLliwQLanTp1qd911V/k/jiR7rVixQhqoe++9V7aBRuWwww6T/7HTvHnzJBzygsJPQwfZCrFC2j0pPdyrUaNGdsqUKdaNqqTz3W+//aQxo0yyn3NoSGk42CbMuXPnSsNCo54E+U4FBsKi8SVvli1bJveMK4NxxF0XVZ7yLZ9JdswmbDp5GkDSzDlxYG9EFbjRreR/WPBkIi7/kupSXBvCtTT4EydOlPvQABNGUl0Il/dM+ZFvvgNlH4Hh7Vja8okw4VriQrtKR01bTLyHDRsm9RFBW5q6BuG6MG3aNIkzcedaOtaFCxcm5lUc2JxOv3fv3pJPlB0G7l5IxtkpKp9pS0n/O++8I/spW5Q14k89phwA8UQ8esJpJV6IPuJFmFwf11bGkW988qlTSXkaVx6ANOJcufvuu0vEblzflKl9ZF8u/UF6PxPXrsXVwaS0l6b+5ktBpiZd5TadOnWSr6+7RMm2S4S4G/nh+nMZIG5dV3mMa6zkOG5UV4iMU7niInSZIV9TD7v5nXGMM7Bxjalx6ty4hsW4AinXOsUubnTOIVwn6uQ7VxAXJyAuZ599triN+fEFdtfQyhfjnbIuiZMrMOaVV14Rd6orVObVV18133zzjXHq2biRj4QFHTp0kLjwdXxXeMTtz3lu1Cdx4Ecc+OtGRxJ/V5Dki/9u1GROOeUUCZu0xcFCUabdNt54Y4mXK4hZubCT7JUENnIFV9JFHLfaaqvEuGaiUHbPJT2EwTUnnniixJtzXENq3EjIuNGmlDnX+Unc+Og3cXENQXB1brgKXvI1/6QyGEXcdZnKU2nKZ5IdswnbjdaNEyOSZmwYB/FwHaZMv7nGU8qxa/SDo5mJy79s6lJUG8K9uYYy4Bpk+cYo27mQKT/i8i8Jpt3cCLzEjqUtn27UL7YiXW5ALHmHrYg3+cYUkBMmBatr8Oijj4qd27VrJ3HmrxNCpWr3gHJzySWXSD41b95cpm/5YD/E2SkqnykP1IPp06fLVBtlK306NhtIx7nnnithcn2+bWW+8cmnTpW23lesWFHszF/iDdn0TeH2EQgj2/4gE1HtWlwdTEp7aepvvhREiJH5fLTUqVmZx2WxJ/uc0JNGpVGjRsaNTMw999wji1opuGQqiaMRcKNpqZD87rzzTqlQYcqVKyd/K1SoID/CdiMoMQyNsYdM9efGxcnD+UChIFy/DWQshYgfjSOFnC/L+3i6UaTZcccdg7PXxBFo5ADBmQnCo7BiGw82AURrHMyFL168WJ6qIh5DhgxZywZRJNkrCSqDG7lKxWSRphv9ZFyjkQ2FsHsu6aFR40cHnA72pPHgvh623ago2Moe7k3j48mmDGYi1+tKUz6T7JhN2DTElOds8B0mIuCss86SDirJHnH5l21d8ukJtyGVKlWSjy7T4RAnOoR88j2dfPOdMk+ehDvf0pbPcL5jp/A2dmCbTq5QdQ0IizxIFxHZ5lUU3C/cgRMf+hCIs1NUPiPmrrjiCnPDDTeY3XbbzUyaNCmvNo17ejEC+baV+cYnnzpViHqfTlLfRNjh9tHDfSGpP8hEuAyG27W4OpiU9nzrb2lYk+JS8Mwzz5gJEyaYadOmSUaMGjVKlDJQ4FkgSaG89957JfEsdGRUguEowIMHDzYLFy4s+SHGkiCDyDSEnIdC640VF6dcYdElo5OpU6eWxHHBggUyys4HGgZGohQGDyqdghBupDJBZ8Roi5GJjwuP3iaRZC8KIhUhLB7Dhf/GG2+U+C5ZskSeBmKUXdbE2T0pPWEoZ+T9t99+G+xZA/bG9uG00uBQPktLvmUw1+tKUz6T7FjIso+daeB4gAKv96xZs0zDhg2Do9HE5V9p6hI0adJEXkdB28QrCej8kupCEvnmO/ckPeF0lmX5DFOougY1a9YUYcU5YUqbV2EI+5NPPikR50l2isrnXr16maVLl5q+ffuK6KB9wxNCON4LQzrT0xJHvm1lPvHJt06VRb3Pt28qC+LqYFLaC6kdsqUgQoyGg8LC6IYCQ4YxggWeOPAVBHcjj++jLgF1zCiAx7W9UShsVKAkyHQ8bVQsXJFcg3L1TzjExSlXEJFkHvciLOCe2YzigAaIEYavSIx2iNvkyZMlPMTquHHjxBa4mOPYd999xe3rXcTAyCWJJHshiMkPCiHxxKXPuR7yh+OkhZElcShr4uyelJ4wxBubI/C5lnLA+2h4yqht27bSWPopDp7KmTNnjjn00ENluzTkWwaTrksvT6Upn0l2LG3ZD0MaCBdPBZ0OHc6qVauCo9HE5V9p6hJh0dACU2d169aV0XJSXUgnPT9K0/bQiWIT7+kpy/IZplB1DeiMiTMdMTzyyCPitSlNXgHTisysYEumOefNmyfTnhBnp6h85ok4wkToM8VF+umbECAc59U3CMebb77ZLFu2TK7Phnzbynzik2+dKm295xgDB9LnybdvKgvi6mBS2gupHbKlIEKMuXoKN/OqCC1UPImlYDA6ItFUHEYkY8aMkfNHjhwpicV9SeFiDVmLFi1kvvayyy6TcMloCiXhACMnCgBqlmsHDRokc7j169c3e+65p8wxU2ghLk4+HMLwEGZ4eoXj/Dh3u+22M1deeWXJo8isf2Au+8knnyw5N3wt4RKej/chhxwiL0fE1ck7ZZiWxQU9duxYmaNmP40SL/8Lh5MJGpZu3bqJ67tx48YSH8JPIt1eNEg0FF7p83///v2lkSS9PL7OXD3pAEZcFMjWrVvL/WhoSDf4fEqikHZPyv/wvfiL1xWXfYMGDSRcKiFpxvXMO5uwJ50B62jYx5qnJAjXxz1T2uLKYBxJ16WXp9KUzyQ75hp2HIRJ2WU9BvcZPny42Dxss0zE5V9SXYprQziPqSOfLjxgxC+pLqSX9/T8yDffgXjQkSLsoFDlE3xdIP7AX9LE37h8TiojEL4X67QQRsSVODNVxfqb0rR7wJohBBbhED5t0VFHHSXH4uwUlc+8fqFZs2ay74gjjpD8oq/i17FjR8MaIu6F6CHNnnBa08sXxLWVceQTn3zrVGnrPf06IpgwENgQ1zdlah8z7YvrD9LrHfvTy7dv1+LqYFLaS1N/86Wc9f64UoKYooCwYJHG0sNoiIWMuIP9foQWoxkWdQJuQebVaYAoAKj7bEHRcl8MR+UOExWnfEEV884gRikIx/C6gCSYP0d5M5dPfIDweECBAsYIhL/ZgpeRt7TjQmbePlyY48BejJqwFy/IO/3009d6OIIRDu9vIX0+nh5GQ9wTW+Y6lVAa4uwel//pcD3hYGcalbC96fjwsFD26tSpE+wtPfmWwaTrospTvuUzyY6lCTsdGkA6RxpwGtNsicu/fOsS11EPiAdhhuMTVxfSSc+PfPOd+/FWewQLgsZTVuUznULVNdp00oINyQ/ErSefvMKjRj/C1BveQjrF9DIAUXaKymfihyeK9OAE8BB/ltSQj5yfayecb1uZb3zyrVOlqfd4i7gWKPeefPumQpNUB+PSnm/9zZeCCbEocBUzQuBpCZ5koXJeffXVMlrxni+lOCCS04WYoijFhcXkTG+xTkVJ4YUYbRaDdUX5O1F2vrYAnuRgsdsLL7wg0wtTpkyRzv/CCy8MzlCKBS5z1mcoirL+cNppp8kUlbIG2iqWrpT1omlFKQZl7hFTFEVRFEVRMlPmHjFFURRFURQlMyrEFEVRFEVRioQKMUVRFEVRlCKhQkxRFEVRFKVIqBBTFEVRFEUpEirE1iN4CWA2n6dQFEVRFOXvwd9OiPFWZb5DlwRv/91///3N9OnTZTvpOj6s2rt372Are3gxI98Nywa+accHYv33vBRFURRF+XvztxNifMbitttuC7ai4QO9iDE+pgpJ1/E5hHwEEvdBjGUDXx7gkxL+e16KoiiKovy9KagQQ3S899578i2wdBAYfCsr0xf7/bcmEUbpxIUJfFuMzyYRBvDpJD4MG4ZvcPH9rkz39mS6jvOJM9/ZSof78aV87u2/Th+Gb4bx/bmo9+XyVfr0L9Pz0VE+lsrnPBRFURRF+ftTMCHGR7xbtWolX73nQ5+nnnpqiXi6/fbbTcOGDc1hhx0mn+546aWXZD+fOeK8Aw44QAQIHzm97rrrSoRNXJgIIL72zhf8+eAo03+sr3riiSfks0qAB+voo4+WaznOR2BvueUWOZZO+Dp48MEH5bomTZpIHPCYefiyPvFlP19n5/+XX35ZjiHaLrroIvlK/h577GFOOukk8aZ5EGh8e5Pr2rRpIz++7u5h29sHiO/FF18sQlZRFEVRlL8XBRFieLIGDRpkevToIV9qR0DNnz/f3HPPPXJs7NixZvjw4SJm2I/AgW+//dbcddddch0C5corr5TvUiJM4sJEqF1xxRXmu+++E08XnqX+/fvLF+mZavz8888lfLb79OkjX6bH4zZkyBARNtwrnfB1n3zyiYgfBBP7hg0btpYQq169uqwnw+PF/fnSP2ITHn/8cTNx4kTz//7f/xOPGWJsxYoVcgwQmnjoXn31VfP666+bRo0arfXxcz5oGxZuhM+98QwqiqIoivL3oiBC7JVXXhFxs+uuu4rAQEjgEUI4bbzxxmazzTaT6TaECSKGbQ/eLsTSRhttZLp27WoqVKggYcSFyX7+nnjiiTKdt+mmm8oi91q1agWhpqhatarp1KmT2XDDDUWMsY1H7YcffgjOyAz3QyQixIgXnrfu3bsHR43ZaaedxHOFEERkEQcvtvCs7bbbbuKBI15nnnmm2WWXXeQY4hKhtvfee4swRIjhzXvzzTflOFSuXLlkmhVGjBhh7r//flOpUqVgj6IoiqIofxcKIsRYp4VXCi/SKaecIr+VK1eK5wsBgRcI8YToOPvss8Uj5EEk4bkChAtCBNEVFybTdPy22GILuS4Kpgl52pHpS9aAXX/99bIv6TvnTGkiCBFunvLlywf/GRFRXbp0EZHYs2dPM3v27BLxRJy33HJLEXBQrly5kvQhAlm4P378+JI03XnnnWIXT/g+iqIoiqL8vSmIEKtSpYp4haZOnWoWLlwoP9ZRnXfeeXKcdVZ4iu69917x7kyaNEn2Q1gU4aligXzNmjVjw9xkk01MxYoVxWsVxzPPPGMmTJhgpk2bZhYvXizTnlyXBILwl19+WctzFvZS3XjjjXKMKdRFixaJN85DvBFbfiqR9PlriTdCc/DgwSVp4ocY85B+xJuiKIqiKH9/CiLE8AzhAUJo+YX2eLXwLPFDBAGL2+vWrVvyyghAoD3wwAMiVhBpXI+HKC7MzTffXKb/EDBs4x1jzRbvAguDUMPjhoeKMBBy2Sx633nnneW6GTNmyDYeL+LhQWgRB7x9ePqYRvXstddekt4XXnhBxBxr0pYtWybHuKZ58+bm7rvvLnmlBYINT5+HBw7wxnmY0mV9nS7WVxRFUZS/HwURYiwwZ6H9TTfdJOunmjZtKmKG92ExDcn0nd//66+/mm7dugVXGrP11lvLInqeaGTR+llnnSXnxoWJQMOrxLqsBg0ayLkIJYQRU3t4ngBRhPBjnRhPKeLBYjqTqUK8ToSD4ILwdUxlsraL+7MQn+lU1on5c1k7hqhr3bq1OeSQQ0Rg+alIpizZ3759e1nThihDgALXk1YEGuvGWrRoIU+Khhfrcz77PE8//bQ8wZnpFRqKoiiKovy1KWeTFkzlAF4bnnBENCA0mIbz+3nyD7GCmPKiZcCAAeIZ4kWqHEc0IczCRIUJ7OMYIopwM62vQvTgkeIBAURbLrAWjDVfeOjCDxgAnri33npLwqxRo0awNwVerqVLl0bGC+8fYeP9QkQi9oDpToQcou+cc84RD+ARRxxhjjrqKDNw4EA5R1EURVGUvw8FFWK54oXYlClTgj3/bHhFB+9Kwx6ITtbH4em74447/iQEFUVRFEX561OQqcl8wZvkX+2gpDxpeMKYigW8Y5MnT1YRpiiKoih/U4rqEVMURVEURfknU1SPmKIoiqIoyj8ZFWKKoiiKoihFQoWYoiiKoihKkVAhpiiKoiiKUiRUiCmKoiiKohQJFWKKoiiKoihFQoWYoiiKoihKkVAhpiiKoiiKUiRUiCmKoiiKohQJFWKKoiiKoihFQoWYoiiKoihKkVAhpiiKoiiKUiRUiCmKoiiKohQJFWKKoiiKoihFQoWYoiiKoihKkVAhpvyl+Pnnn83bb79tfvvtt2CPoiiKovx1KZgQ++abb8w999xjrr32WnPfffeZH3/8MTiSHV988YW5++67zb///W9zyy23mNdffz04Ujq+/PJL06FDh2Ardx5++GFz//33B1vx5HJuISltGsuaoUOHmt69ewdb+fPHH3+YYcOGmTPPPNP88MMPwd71E8rz/vvvb6ZPnx7s+WdRqDxXFEX5u1MQIfbJJ5+Ygw46yIwaNco8//zz5pRTTjHHH3+8+f7774Mz4pk5c6Zp1qyZGTFihHnjjTfMlClTTJs2bUSU/f7778FZ+YHnBKGSD3T8M2bMMA888ECwJ5psz507d67p1atX3nHKRGnSuC5ApH/11VfBVv4sWrTIzJ49W8R+1apVg73rJ+QJYmz16tXBnn8WhcrzQvLpp5+anj17mmeffTbYoyiKUnwKIsQ222wz89///tc8/fTT4hVDkC1YsCArr9by5cvNOeecYw455BC5/o477pDO9pJLLjHXX3+9eeqpp4Iz1wbh89FHH5kPPvggo1ij0f3www+NtTbYszZc8/7776/luVu1apX57rvvgi1nnA02MDfddJPEKZ3PPvtMfp5M5xJH4hc+j3i99NJL5qeffgr2rIG4vPfeeyXpYRrunXfekQ49E0lpJDyuz3QvSL9fJog7aSAt6cQdI+x3331X0pAJhAr3jhLrPn+854t7VKlSRWy80047yb4oOJdr08Vpkj25J/YMlwlPVJhAGkhL0nRp0v2T8iMpPz3ENa5u+PhmOpZNvkTZKC7Pk+IEDOgo0x7E3McffxxsrU2SzYkL8eS+Huz24osvms8//zzYs4ZsbasoilJwXCdecP73v//ZbbbZxr788svBnmhuvfVWu91229lly5YFe1K4Btk2a9bMOpEW7FnD/Pnz7e6772633npru+WWW9rddtvNOnEjx1xDaocMGWKdOLTVqlWznTt3tttvv70cgwsuuMD269fPHnjggdZ17BLP6dOn25NPPtlWr17dVq5c2TohGZxt7YUXXijnw+OPPy7XnX766bZmzZp2k002sSeddJJ1nYIcD5/76quv2ubNm9sdd9zR1q1b1zpRaceOHSvxKl++vNynU6dOci5x6tu3r23ZsqWtVauWnTlzph0xYoStXbu22KZq1aq2R48e9uuvv5bzk9L466+/2tGjR9sttthC7sN5xPnbb7+V45nuF4Z0duzY0fbv31/C2GijjWzXrl2t68DkuOsw7YknnmgrVqxoK1WqJDacPHmydR2sHJ8xY4bs49577LGH7dChgz3ssMPkGDz77LO2adOmtkGDBpJG7uMEsBzzNu7Zs6ek7cwzz4zN73RmzZpl69evLzbj/oMHD5Z4xdnTl4mDDjpI7slv/PjxcgyiwsTOlJVtt922JJ8nTJgg1zgBYRs1amSnTJki20n3j8uPpPwME2crJ1rssGHDJG8aNmwo5Z+4sA/i8iXJRnF5Hhcnn98DBw6U9G266aZ26NCh9rbbbhO7brzxxrZbt272q6++kvPjbE6bQbnletJAWMRl6dKldsmSJXaHHXaQusd+8gGSbPv888/bPn362Lfeeku2FUVRCk3BhBhihMbuvvvuEwFy6qmnWjcyDo5Gc9ppp9l99923pMEPc9RRR9kuXboEW2t4/fXX7bx586QzpMGkc6DxhAcffFAaaTqzH374QTrNChUqyDEgXjS6dJDEmUaezujyyy+3q1evlk6JjmLlypUl5x9zzDHyP2HTWA8YMEDuSwdN5/PYY4/J8fC5gwYNskcffbR0foRLJ8H/kyZNkvBJA/EDrqNTpGPjHNJFB/X+++/L8eeee06Elu+gk9LItRwnjYQ1d+5c6XjocCDT/cIQPp1V79697Zdffin3r1evXolAPf/880Ukv/HGG9KRDR8+XOK3ePFiESCNGzeWjpv8p4NGXPhOGTHXpk0bESbcd/ny5XL+uHHj5Dj3pjPk3uQP8YvL7zAffPCB3WWXXeyll14q8XrvvffsPffck2hP7LH55puLmCTO5513nqSPPIsLc/bs2XJswYIFEs7UqVPtrrvuKv+nC7Gk+8flR1J+homzFeIH8fLMM8/IfRC5xx13nAj7pHyJs1FSnifVV+oU27QBDMzI/0MOOcR+9NFHIg5J+wMPPCDnJ9mcutWiRQtpi1atWiX/+8Ec8dh5553t3XffLfGAJNtSxxFzixYtkm1FUZRCU7DF+kwrdu3a1Zx00kkyfeMaQJmuS4IphooVK5qNNtoo2LMG10Ab1/kFW2tgaoo1ZEwjrlixwmy11VbyF5544gnjGmNZvO7EhCzsdg23HPO0b9/eOMEkU6puNG7cSNm4jsZssskmZp999jG//PJL5JorN6o3rhOSuDVt2tQ4UVdy7zDsf+WVV2Q9CuHWrFnTuNG4cSN8sQvXEz8P9z322GPlHI4Tf9dByNSM69zkOj+lkpTGhx56yOy+++6SH4S13377mQMOOMA4wRic8ef7pcO9mR6uXr26ccLa7LXXXjJNzHQk4ZDPrlM3G264oTnxxBMl/1jD9eqrrxrXyZkTTjhB9h166KGme/fuQahGbOI6b+M6TzmX6SfsP3/+/OAMY7bccktz7rnnSv4Qv7j8DvPyyy/LmizWJxIv16HKvZPsCRzv0aOHxJlF9tyLuMWFycMZTohLWKTLCZXIabek+8flRzb56YmzFfcjfXXr1pX7kH/Ehzhnky9RNkrK86T8o06xPKFSpUpiB46fddZZsp9yjY39+Uk2xz6ERToIh/vylC1TlLQzHOcv9Q+SbHvwwQfLfagDiqIoZUHBhBgNFgvtacwvvvhic/755xs3Wg2ORkODyDogOqcwNK50+giBdFir06VLF2lsWXzLmjK/FoSOhY6cDgHKlSv3p46NfR4a9PB2hQoVZPu3mPU+/nzO5Zced+CBhY4dO5rDDz9cOrDFixcHRzKDHYiLx3cQdEx0SnRETjjLsaQ0sjaGzsofB7a//vrrYOvP90uHMOmsgbBr1aolopm8okMlPA8daI0aNWSNDwu0sUnV0GJ6Hw6Qp8SfMoKN+K1cuVJEgYd4+44S4vI7DGKANFWpUiXYs4Y4e0K4DCCcgUFAXJjYmXzt16+fpGPIkCFip0wk3T8uP7LJT0+crbAx9+RhB55Qvu2220R4IOazyZcoGyXleTb558MmjVzrtxG/hO0HZNnYPFwXSBsDq7Ctw+RiW0VRlLKgYELMQ8PJ6LJevXpm4cKFwd5oGjVqJItuWbQfhlHskiVLZESbzo033iiCgON4YfBueegw8WZ5IUUDnKnTLmsQkDy0QKdBZ3DBBRcER5JhMTeP/+NhePPNN82sWbNMw4YNg6PJaUQUEUbYU0CnmknUZgNhI7Lw8iEW+IU9huQFHVft2rVLOj72ecJxI+54KhDplA9+PNiBlzGKuPwOQ9ikOf1JxSR7xhEVJmAPyideI58WnopNpzT3h1zyM85W1CkEFPnBa1b69u0rAybIJ188SXmebf5lQ7Y2z5ZC1xVFUZRcKYgQo4G99957SzxDNLaMNBFZwCsdLrvsMvk/HaYG8ahwHG8a0DAyLcb+ww47TPaFQQQwJcFxrmHqwMMUGuLnhRdekM6Bd5ItW7YsOLpuoBPCBjyBVadOHek4/NNYTIvQqeNpiYJzeYqLkTmj+6VLl8oTnZ6kNLZt21bu7584fe6558ycOXNkyihbeMJt9OjREpeXXnrJzJs3z7Rr106mWJmSnThxotietNJ505HtueeeZueddxYxPmPGDAkH7wdlw4NXBO8D+3znx/RW3KsO4vI7DFNgMG3aNIkXnhjSgK3j7BlHVJjYfd9995W4hKfv8Cqlk5SfSeSSn3G2wsbULQQXHmymWb3AzCdfPEl5nm3+ZUO2Ns+E97YRB0+SbRkgMojiiUpFUZSyoCBCDM8MUxp4RLbffntz1FFHmSOPPFLWvACNW9T7tTifV1/Q0DVo0ECmQviLkBs/frx0FungWWC03rp1a3ntBY28n1pgCoT9rANjjQuCpVWrVnIMOC88BUQH4hto4C9TIX47fD778Cj4qQ+mTzjO+eDPpcNGHJGOxo0bm5tvvtkMHDhQzkHEMIWDqCGukB4nOspu3bpJB4C4GT58uKwvIq6QlEamQ7E/53EdYpd9Pj/S75eJatWqSb4RPp0V9yNfiQN5jRAhfYQ/cuRIc9VVV0mHTH6yZu3KK68U4XH22WdLp+bjTn5yzL+GAntw3ZNPPinH020McfkdhrIzaNAgc/XVV8s6KNb1sC6KOMbZM90e7CdPiUNUmJxDuggXO5PPpIf4gS8bnJeUn0n5kZSfYeJsxbpCvFd4kWbOnGkuuugiSQ9CJClf4myUlOdxcUrPb/4Srr8WO7Lt61i2NveE480ggnpHfmILSLIt3vq77rora7GnKIqSK+Vs1OKJHEGMMe2C94GGOWqtTBSMwt966y3p5LygC3fG6TBS53zEANMLYYgLXgcaeToTL6rWJYgxpoLwBtBZhKc6WGNF/Gj46biiYDTOlB+dhu+4PNmkkXU/CFzugWcuW1jPxGJ5ptBYF0Y+pN+D9BE/8gtvSnhNF+A5ovNiXRSL7tPBS8SaQryoLMhOvz6duPxOh3Mpi6SZBd+eOHsmERUm4GUibkzvIdzCQiBMae4P2eZnlK0QSHg6ERbEEY9Xp06dRHScccYZck6u+RImLs9zyb9syNbm6dDOeO8x8fRE2RZPPR64yZMnZyzHiqIopaVgQkz5++CF2COPPJLRI6n8NWG6/3//+5+54oorZLDD2iq80Uwz77333sFZigdvGE8HX3fddeJ9UxRFKQtUiCl/gmkk1kHRAfF0pvL3AG/c2LFjZT0Ua8PwOvfp00ee5FT+DF5nPIPqCVMUpSxRIaYoiqIoilIkCrJYX1EURVEURckdFWKKoiiKoihFQoWYoiiKoihKkVAhpiiKoiiKUiRUiCmKoiiKohQJFWKKoiiKoihFQoWYoiiKoihKkVAhpiiKoiiKUiRUiCmKoiiKohQJFWKKoiiKoihFQoWYoiiKoihKkVAhpiiKoiiKUiRUiCmKoiiKohQJFWKKoiiKoihFQoWYoiiKoihKkVAhpvyj+Pnnn83bb79tfvvtt2BP2fHFF1+Yd999N9hSlMJCGaYsr298+eWX5uOPPw62FCWaddker88UXIhh2Hnz5plly5YFe0oHndndd99t/v3vf5tbbrnFvP7668GRsoFGpEOHDsFW7jz88MPm/vvvD7biyeXcQlLaNObL3LlzTZs2bYKtdc8ff/xhhg0bZs4880zzww8/BHuT4dxx48aZ1157LdiTzOjRo82OO+5YFDv/VRk6dKjp3bt3sJUbpbm2NKzLMj148GDTv3//YMuYG264wfTt2zfYiuadd94xt956a7BVtvzyyy/m5JNPNhMnTgz2/DMpdltXKOh/27VrZ6ZPnx7sKRzZtsfrovwWq/3wFFyI/d///Z9k3Omnny6irDTMnDnTNGvWzIwYMcK88cYbZsqUKVK4EWW///57cFZhQZkjVPKBgjVjxgzzwAMPBHuiyfZcKnSvXr3yjlMmSpPG0vDTTz9JxS4WixYtMrNnzzbXXnutqVq1arA3ma+//trcfvvt5uWXXw72xMP5d911l7n44ovN8uXLg71KEt9884356quvgq3cKM21pWFdlmnSSNmCpUuXmnvvvVfKchIMIG677bZgq2yhjrz55pvm0EMPDfb8Myl2W1cofF+xevXqYE/hyLY9Xhflt1jth6egQgyDIZYOOeSQYE/+0IGdc845EtbTTz9t7rjjDsm0Sy65xFx//fXmqaeeCs7MDoTPRx99ZD744IOMIu7TTz81H374obHWBnvWhmvef/998+OPPwZ7jFm1apX57rvvgi1nzA02MDfddJPENZ3PPvtMfp5M5xJH4hc+j3i99NJLUrHTIS7vvfdeSXoQvoweohqApDRyX+5PPDLB9Z988kmwlR3ebnGFnGmMfKYy4q7z9/UjLdJUpUoVsflOO+0k+7Jlm222Mc8++6w54YQTgj1rSM9XoNHivttuu22wJ4WPU1T+pMfZg82xvYdGI1O6k/I/KvxsiCsb3I9wCT9XKMNM32YatCXV2bhrgePYI1PdYR/Xhutztng7RpVpxBLTLfmE7SHt3CNqwLTddtuZ++67z7Rs2TLYk4J7UsfD+XT44Yeb5557LthKERV+UhlK4vHHH5dyX79+/WBPiqjyE5dH4G0dtmV6u+vx5+Ybd09Se5SpzkNSuUDU0F5///33wZ61IY3h9hw4l32Zpu6wJTb14jxMXH3NF+IXFWaS7f3xbNvj8PmZym/S/bKB9MS1H0n5VVBcp1wQXGLsiSeeaAcNGmQvvfRS26FDB+sqV3A0d2699VbrGhu7bNmyYE8K1yHZZs2aWSfSgj3JzJ8/3+6+++526623tltuuaXdbbfdrBM3cow4DhkyxG622Wa2WrVqtnPnznb77beXY3DBBRfYfv362QMPPNC6gmNdp2ynT59uTz75ZFu9enVbuXJlO2rUqOBsay+88EI5H1yjJNedfvrptmbNmnaTTTaxJ510knUZK8fD57766qu2efPmdscdd7R169a1TmzasWPHSrzKly8v9+nUqZOcS5z69u1rXSNsa9WqZWfOnGlHjBhha9euLTZzowvbo0cP6yqonJ+URtfRS95VrFjRVqpUSdI4efJk6wq72Ltjx472/PPPl/BbtGgh52eDK8S2ffv2Ei7xPOaYY+wOO+wQHE3dl3i6htvWq1fPtm7d2joxb13DLLZ48MEHgzOtffLJJyW9EHUdeJv37NlT0nrmmWfG5n82fP7557Zdu3b2gQcekO24fH3jjTdsw4YNJc823XRTSQcQhyZNmsg+zt9nn31i4+z3DRw40G6xxRZy3dChQ60bGUq6N954Y9utWzfrGn0JIy7/M4WfLXFlw3WGtk+fPrZOnTpSbl2DKfuyZcaMGRIeZXuPPfaQNuOwww6TY0l5Fnftr7/+akePHi124zjlnrz69ttv5fi4cePEhoTpOgH74osvyv5siCvTTtTY7t27S5mgDteoUcOOGTNGjuXCrFmzrBMyko/Ef/DgwWLvU089Ve4HblBq9957b+uEakkdpXw0aNBAygo2Wbp06VrneqLCjytD2UAfcPDBB9uLL7442GOt6yylvSEPuBf1aOXKlYl5lGu7G1e/siWbdiWqLU9q69xAzjZt2lTyBxv379+/pK5kas+xD+kjLr5PmDBhgpwPPg+xDXl11VVXSR7G1dd8cILUNmrUSNoO+oz0sgW5tm1xdTvT+enltxB5Hdd+QFx+lQUFE2J0UhQkp5gLIsROO+00u++++2ZM/FFHHWW7dOkSbCXz+uuv23nz5klhpKIfdNBBUqGAzp7CTuF36lsapQoVKsgxoPGjsZgyZYpUOjo/Cv7ll19uV69ebYcNGyYFicbFn+8bS8ImowcMGCD3pfKQ+Y899pgcD5+LgD366KOtU+ESLo0r/0+aNEnCJw3ED7iOCjh+/Hg5h3RRgGn0wI0epNKQJkhKIyILcYuIoAEYPny4XL948WKpiFSaXXbZRUQx98sG4oSIaNOmjXQWy5cvt23btpXK56EBopFGTFBWaGSxL/9TKejkfQNy9tln20MOOUT+j7oOSCuNeu/evSW/iG9c/meDb4woA5CUr2+//bbk2cSJEyUOCDkELGWabRpLOizKMHmdKc7+HsSTOsDAhHOwAfakoSBPw+IwLv/Tw8+WuLJBA0k6Ec6watWqrMPGpo0bN5a8pAOnYaQT8o1hXJ4lXYstsA35xfVz584VcUHHT160atVK8gYQT9gkG5LKNKIFm/vwEDbEk/zOFtpP6hptKPamg7/nnnvk3ultCyKS49iDfKCMLVmyRPKB//1g1Z8LceHHlaFsoA0kbC8YKAuIlf3220/iRNtDnhDfuDyCXNrdpPqVLUntSlSdTyoXxI9jlAfO5TjlggEBZGrPqVvYcsGCBXLO1KlT7a677ir/p+chdeWWW26Ra+Pqaz6QV9yXAWWmspVP25bUH2dqC335LUReJ7UfSflVFhRkahL3oIu0ccYxbnQc7C0dzsjGqXqz0UYbBXvW4CqEcYUs2ErGZaKsLXMdmlmxYoXZaqut5C888cQTxlVoWVTtFLYsHHSFXI553EjHuAbQuAJinFo3bqRjXOUxTo0bp8ZlgWrUFIKrjOa8886TODuFbVzjUnLvMOx/5ZVXZAqMcN2oy5QvX95svPHGMo3J9cTPw32PPfZYOYfjxN81bOJSd4VLrnMFSs6NSyMubNeYGNdgyuLyDTfc0LgRldidOXyPa2jMzjvvLPfLBsoEaXEjTLGBG2EaV/BL0sBx1xgbN9IRF7OrnMYJPllfQtyPOOII40Y+Ms3CtBxT0eyLu87jRlnm3HPPlfwivnH5ny9x+Uq5JU/IR+LA1DLxpsywTfxOOeUU8+qrr5Zckx5n4B5Mz7uRreQ38T7rrLNkP/nnOoKS6+PyHzKFn0RS2SDt2JSFvK7jkvhlGzZpd42wTPcSHmuKunfvHhyNr7NJ1z700ENSJrp27Sr54ISAOeCAAyQt2AUbcI7rNE316tVlOxuSyrQTCqZTp05iJ9d4yzbtGNMr2cIaK9ehmOOPP17CceJE0kY64uA4ZcV1mmIrbMf0aPo0Ulz4SWUoCcLlR7qBeksdpswQJ+xEO+o6vdg88mTb7mZTv5LIpl2JqvNJ5YJ2HVuQN8SJpQWkBdt40ttzHuSifpMHXL/55puXTFmm5yF1pV+/fmKLbNryXCFOtB2ZylY+bVtSexzXVhUir5Paj2zyq9AURIixkLlcuXKmSZMmsqieiNMw04n6wpMrFHYaMBqEMIRHB0EDmi1ULKeYxbA9e/aUtWa+gaLRITPJECAd6Y0e+zxUjPB2hQoVZNsp92DPn/Hncy6/9DQBhaljx44yH06D6EYwwZHMYB/i4vENGxWazppC6YS2HItLIzamQlDpPXT8NWrUKFkPxvk0BLlAQ0HYNLoe7ultQQdFw+FGgZJ2fnfeeaekAdyIUvKIwk/lYz5///33T7wOSCf28cTlf2nIJl+B8kpeYVMP+QF+PUl6nD3+HhynUfLbNLLc0w9I4vIfosKPI6lsuFGyueKKK+TpPYT+pEmTsrYr6Sb+vtOGcKMbl2dJ19LuEGdf3oFt1tIQ/+uuu04aWux19tlnZ1xjk4mkMk3+8/TV9ttvL/WYtazsC+dDEnQQlJUqVaoEe7In3G4hAhAq6feOCz+pDCVBWeR8Hw/6AH4IlnTi8sjj7Qpx7W429SuJbNoV8HHg/vzI36RyQfxog3l4x4e9cuVKEUue9PYc+9AHILA4f8iQISXhR+VhNm15vkSVrXzatqT2OK6tKkReJ7Uf2eRXoVlbceQJowaUIx0lSve///2vLK6jMWJxXz40atRIFsoxsgyDEl+yZIncJ1tuvPFGKaRcx8iAUZaHwkwF9EKKwlWITjpXEJajRo2SykdBZ0SVLYwQ6ABQ+OTFrFmzTMOGDYOj8WmkUPPjuAdb0SDWrl072JM7VCYKezhc7ukbdka1VDYeyV+4cGHJj8YPGFW2bt1avC0zZsyQESgdXNJ1mYjL/3UBjSENF3HwkGc01OEGJV+S8j9fksoGjTNP9PIEH69RoOHCxtngG/OwTcL1Li7Pkq7FptgkPAikIfWDNwaMeIl56pDXxyAgsyGpTD/zzDNmwoQJZtq0aVKPqc94R3OBukq86dzLgqjwC1GGqJuUCb+wnm3Sj3BIJymPcqEQ9SufdsWTVC6wOV6fqVOnloS7YMEC8a5FgXilj2Mg6q/hCXqoVq1axjwsq7Y8jnxsX5r2uBB5ndR+5JNfpaUgQgzhReb736BBg8TV/OKLL0rnySsaLrvssuDs7MAVjdG5jtErYHCemmT/YYcdJvuygTjh0eE6wsL16Nlrr72k0XzhhRckc3hXWaHegZYtFAIKJKNHpnapgPwPNGRUuEyNmYdzafwYCdEQ0jHyZJEnLo1MgSJyJk6cKLYhLhRAKvqee+4p5+QDDQlims4ODymNLB4C30iTH3hUeEecbzgQipwHpINpCxofxBj/M2pJui4Tcfm/LsBbhAdr8uTJYlcaRt5LRjqYCiotSfmfL0llg0ER03t0Ynhx6ZCivILpMM2NTRDZwKiYsuKJy7Oka/GmUp/8k9UMCufMmSNTEIyGqQvQqlUrU7du3axFT1KZpo4SL0bo2IjG29fjbGHaBhBz2BvvAe+ko94WgqjwiXtpyxAeBsqMHzyTf5R9xAx2xxa8D4qnJOPyKFcKUb/yaVc8SeUCzw91g+PEDzgvzoOz7777SpkPT4fhpQH6VOqZz0PyibQjYpPa8jFjxhT0VRD52L407XEh8jqp/cgnv0pLQYRYOowO+HnXLJUs6X1Z6VDYEHhU2gYNGohbkL+4bHEfs7YhWxjl0SjiYeF1GBQCDA24SNnPegTmgWmkaaA9nMcow0MGss+7MvlLWv12+Hz2+VEiYA+Ocz74c6kwiCPS17hxY3PzzTfLmiygYtHA8W424grpcUK9d+vWTbxoVLjhw4dLoSSuEJdGzsGTQUPP/blu5MiR5qqrrpIC6+Psw8oWzkeQ0yjzKDvxohMgrv447nbuy3qnFi1aiBcsLNgRpIzkGAGydgOSrku3OcTlfzak2yApX9kf3sbmTOGNHTtW1pBQtmlAhg0bJvmYKc7p+/hLeD4O3JNtfkn5nyn8bOD6uLLBQIv3/FFGWb/H+ig6pGzABqxVvPLKK6XzZ4qQTtjHOS7Pkq7FE3/kkUdKuSfODOrYxxoc7M50CGWReDOdhu2ygfDjyjQDHoQdduC1Eoz46aRzsTvtHPe4+uqrJSw6GNZpcW/Sn6ltyVRHM50LUeFjp7gylA3UU6byWMNEm0Yc8DAxxUn5oc2mc6MDjssjCMcffPpJC/CXss/fpPqVDYSfS7sSrvNcG1cuSDdl1b+qgXJH/XnyySfleHpagfJMfmAf+gSuox4A1zJ1TD0kDxEniBniEldfERUMar1nLRuSylY+bVtc3c50vt8HhcjrpPYjKb/KgnLW+0/XUyg8b731ljQWdMoYMZeGzYOaJRwKaLoLk5EPI0AyHIPzd11Dw4WHgdECmR920TPvT/yoWBScKGgIKJRUTF+wPUlp5P5cj50ZEUTN0ecKIwm8bzQYVJx0uC+jckZ1VIC49IXJ9bq4/F9X4BFgETC2x8aFLmdx+V8a4soGI1rKLXlLx5Ur5CEjfTpwFt+GScqzuGuBtR4M5Cgb4YeIyIfXXntNbERdyNVWcWWaTpBjxId45wtpZ4qQeGeqN6UlKvzSliG8NJdffrl55JFHSsLFe8Pa4UxtT1Qe5UMh6le+7REktXXEDztgD8ReNm0ss0DUAabLENFhQYTgZVDBmkeErCeqvmKbo48+Ws7nwYhCkqvtS9seFyKvk9qPfPIrX9Z7IaYoiqL8NUCY413gqbd1vRbznwTrmxAyvKmApyT/9a9/BUeiwVuGYwPvUT7ODKXsUCGmKIqiFAzW3jDly9SjUjYwFclUKl4aph6z8b4ys8JC9Xy8R0rZokJMURRFURSlSKh/UlEURVEUpUioEFMURVEURSkSKsQURVEURVGKhAoxRVEURVGUIqFCTFEURVEUpUgUVIjxAjReEhj+hpOirO/w0sR333032FL+qfBdXD7+rCiKsi4pmBDjvSZ77LGHfEaHzy+UFQ8//LB8qFeJhzfp8w2ta6+9Vr4vFhYavP2ZT0xwjocX/fEtSkQJ8Pfxxx8Xe/M9OL8/DJ9Kyvej7usLfGePN1bzrcT1Ad4yzvf4/grMmzdP6jyf36Ks9evXT96oXmyytSFlev/995fPvlD+L730Uvn0j6IoyrqkYELsvvvuk0878LkTvhFZFvDpBl4WmOt3K9d3eCHfNddcE2yVHj46y9ute/XqZV566SXpaPbZZx/5zhteS97GzEfZEWgeOiXe0Iz4Ar7nyfcD+eI84fDCQESdF2+Eg+Dmu5h/VfiUy1133SVvnOaTIKWlEPnIp3cK+VHesgSBfsopp5iTTz7ZnHPOOfIBcD4XUmyytSFlmXLPR795ySWff0FIkg5FUZR1RcGEGN/m4iOn/uOc2cJIlA95+y/Vh/Hf/fJfw+ezDHyI84477pBtD9cyCkYcZCLuHnTGiMdMx4BpVrw+hAF8S47tsDfJw7733nsvcnojKh58z4op3XQ4n/Rn8kZFwTV8qJb7PPHEEyI0Zs2aZebMmSNiiuPYlW9nIaKiBAhpoVOls8W2eAuuv/56+dBzaSDtxI04pJNNPmKPsP0od7wxOp2kvAA6YPKXb3iGSSoTueZjXHjkLWkiTODDx3wkP0xSfMLw7TR+2eDt6ZcSkCeIkHB5j+PCCy8UEcbHeylrDz744J++zce3BAkvU36H4TjncX46pDuuXKTfI18bNmnSRMpN+rWKoihlCm/WLw2u4bLdu3e3FSpUkN8WW2xhXYNsTz/9dHvGGWcEZ1n75JNPWtdgB1vWXnDBBbZfv372oIMOstWqVZPf+PHjg6PWOvFg69evb6tWrWorV65sBw8ebF3nYF3jL9fBr7/+akePHi335JzNNttM7vvtt9/K8bh7OHEn8a5Zs6atW7eurVGjhh0zZowc+/TTT23Hjh2tEx8Sh4oVK9oDDzzQOjFjW7VqZStVqmSdqLGLFi2S8+HZZ5+1TZs2lf21a9e2/fv3t04gyLGoePz888+2a9euJbYjrSNHjpRr5s+fb13HYDfddFPrxK3dZ599rBvpy7E4nBiQ9GCXTDhhYtu2bWsvuugiie/5558vdv3kk09s48aN7ZQpU+S8f//733bPPfcUO8Grr75qXSdrp02bJttOxNj9999f0paEt+fQoUPFPqRpjz32sEuXLpXj2eYjeVClShWJx/Tp060TAbZ69epyzahRo+RciMsLD3Zq2LChLV++vMSnefPmsWUCcs3HuPCIT58+fWydOnXsjjvuaJ14kH2zZ8+2e++9t5yTFJ8w5F+PHj2sE5W2Xr16Uteiysvjjz8utuzZs6ek4cwzz5Ty5oS33Xrrre2WW25pd9ttN/vSSy/J+eecc47Y3f+OPfZY2T9ixAix73bbbSdp5v5O8Mgx4nPiiSdK3aG+kGeTJ0+WspYOZQv7YwfS6QS/7E8qF05E2s6dO8t+jrdr186uXLkyaxs6wWobNWpUUuZpyw477DBJL3DtwIEDS8q8oihKWVBqIQZ0yr169ZIGmoaYBo1GmH2ehx9+WDo+z6mnnmo333xzaZzpyM477zzbrFkz6bTd6NbusssuIoRojN977z17zz33SCPOdcccc4yEQYdCx0NDyrG5c+dKp+BFSNw9iOfMmTNFmACdCkKEDoQGmo6oZcuW9vXXX7dLliyx22+/vYiyxx57zH711VciQhAC8Pnnn9s2bdpIGMRj+fLlEta4cePkeFw8sB12w1bEifQSXosWLexpp50m8SNOBx98sO3SpYucH8dDDz0kHSm2yIQXYtdee62ICITAiy++mCjE6IzoTOmwIRch5u1JmrDlqlWr5H/f4WWTj3TGHCf+3bp1k47/8ssvl3gMGzZMwqcTTsqLMG+//bZcN3HiRAk3rkxArvkYFx5igXu/8847cgybUG8YxOy0006yLyk+YcgHRAll86effpKyiZ0ywT0QL71795awuS/lfN68eWIzhA5iE9EDxIN4Pv/88zI4uOKKK2Q/+YYYgueee07qCPEFBD62QfBii+HDh8vxxYsXy/EwgwYNskcffbTEAztiT4grF5x70kkn2f32209s98MPP8h5lLVsbZguxIC4UNeAcPfdd98SYagoilIWFGRqkunIDTfcUH6ug8z6o6IskHajaLPRRhvJolmmmL755hvz8ssvy7TR8ccfL2G6xte4Ue2fvhjvRIdMn3Xt2lWOse7pgAMOME4sBWdE34N4durUScJneo5t11iXTNMQ3tlnn21cgy6/nXfe2bjRsoRfrVo140bcMq3jOgR5UMF1HmbXXXc1bnQv4e+www7GiRYJC6LikW47/rKuiykr1/Eb12EaJ6xkLQ5hr1ixIggxM8S/XLlyElYcLu/NUUcdJWm77rrrJB3pcC/X6Ronqs2AAQPMcccdZ5yACo7mBvZkHRE2YgrbiSWZKmI6KZt85CEQJ8DFHgceeKDYF/tgP9a/MWXsRGNWeeGpWLGi3I8wCDepTEAu+RgXXuXKleVa1u8x5YZN0utNNvEByooTLSVl0okqsWemaVIPZercc8+VdHNfygF5QpzId+Ljyxr3xYZMPVaqVMn0799f9mMLpnWdoDFOmJqNN97YOCEsU4XkHWsOeRCC+FOGsNmiRYvk2jBOZEu+Pfvss2LHmjVryv64ckEek6eES1z5mDHlo1atWnKtJ1sbemrUqCH5CYTL1HxZPnykKIpSsDVi+YBg8NAAgxs9Gzcil0a9SpUqsi8K1umwJoUG3sO2GwUHW9H3oOMYOnSocaN0WVPC+if2IVA8NP5AR1WhQoWSbeCebpQuPzoeOiMWfSOY+LFgnk7IExWPTBAe6adT8NBxwldffSV/o6BDIk5J5wGd6qBBg2T9GJ1gOtiCOLKejIX+//nPf6RDy5ew/Ygn4ol75JqP2Ca8Td6wjZjMJi+iyKZM5JKPceE1b95cRO4NN9xgdtttNzNp0qQ/raPKJj6AsECEjh8/viTNd955p4iYKLA1YtCDgOvSpYsI2J49e8pTkOH4IHr8gw3pQgkhjFhBuBE3RA6Cjjz0UNYoz5988kmwZw3Et2PHjpJGxB1P40JcuUC88kPExZGtDT2UJeqPoijKuqLMhBiNJw2eh0Y9qvFLBwFGY4hXLA4adrwB4YaTTrd69erBVjTPPPOMmTBhgpk2bZo0/KNGjRIPST4QX0bPU6dONQsXLpQfr4fgicN8oNNCpIRH7aQTERAWZ5moX7++CJVMHqBM4NXhR/rD+QV16tQxV155pRk8eLB0tmEh5TvpsDDJl9LkYzqlyYtClgmICw9b8jTq0qVLTd++fUXgLFmyRI55so0PghBRRT75NPNDjGXLjTfeKOWNOOC1wrvkQVRdfvnlpnPnzuKRAvILgXPCCSeI540HQho2bCjHKH/8EIcewkZA1a5dO9izBvKZtJFGBPoFF1wg++PKBWnGFgza4sg1TwkPL6GiKMq6osyEWL169eR9VTyFxW/EiBFZPfUFTJMAjScdPqP10aNHizgJ07ZtW+k0mD4AnnbCu8OrG5KgwcW7g6eJhp7OOuqprCTwIiA88Rr5ToPpjWy8UoDwwpPjpwfxkBC3yZMnS3h0YOPGjRMvClNBMGbMmIyP6NMZ0mHydKmf2iNcbEn80iHeTBkybcOTaUmQBzypSMdKR+u9I3SYPEWXD6XJx3RKkxelLRPp+RgXHtOy1AsEBV6g9IELZBufzTffXMrG3XffXSJ+iAOiJVu4jnBIA9N+TBV6eEqZPOcJSUQZ9Zh48BcPFaISQck5QJlo2rSpmThxooRFHUYYk4Y999xTzvFwjLwnPIQ/06M+jXHlgrhSTxCb5C3X8O6w9DKca55yva9j5AdeYKaPFUVRyoqCCTE6EkbBHtZ0QePGjaVxZQojPBpOP5/G0k//MY3ElBkvV6xbt650Mqw94ZzwdUw1HHnkkTKlQuPJ2iH2HXvssXI87h577bWXhM36kZYtW4ongGkOjuHl4VrO93BdOCyO8+Nc1rDhOUL8ICLphFhT9uSTT5acGxUPOOSQQ8zTTz8t0ye8q4v1OExbjR071my99dayHzE2bNgwCYcOhc5h7ty5cn0YplF5nxVrquiwuJ4fHg06Iz/NSpw8xJd1P4gCPBIQTl8YRA15y6P+eCyZUgI6XIRjJjLZM2yTfPKRfX5NlU8Tf5PyIgz2JxyuhbgyAZniEZePceHxGpBmzZpJ/HhfG+c0atRI0uCnPJPi4yEeQ4YMEZHMNDLr+BgI8RqTTPh7hMPBs4VI4VUUpAOhQ3oRSgghvEkIH7xRxAuvY7du3cR7hbgaPny45B1x4YeHj/jwyhT2jxw5UsoleRGG8G+55RY5j7aCV6oMHDhQjsWVC+KGB5DpUK4l3xHfCMlsbZheLhF0CDHOAwYbDGBK+8oWRVGUOMrZbOcL84CRJwuHWUCbaUoiCRpGpj0YKSMmosALQQPK6Jxzs4WOAq8dUxE05qWF9PIuKUbSdIjhNThJsB4GDwaC1U+NePvRseDp4S+wj5dPssjeTxVlgvB4oz4dD54yf31pIV/w6CCYWfwMeOeYAkKI5Eu++ZiJfPOitGUiPR/jwkO8YkfKNsIpE7nEx3uP8UwhTLBjLpCvb731ltwnaQrcgyeVQQIiDVEThvhwnEEU5TcqDzgPO+CVQzynT0nHlQvyl3ymbCPyMpXxbG34/PPPy+J/1sIhkFk3yUMqePYQiYqiKGVBmQoxpWzA24BXDA9ZunekGNCB8oQrXsw4Yago6zN4jfH8IcQQdDyViwDzHjpFUZSyQIXYXxDW6TCFWCgPV2lBFLJeKBcPoKKsT1CG8eqyDMK/ooV6hhdtfRjsKIry90WFmKIoiqIoSpHQoZ6iKIqiKEqRUCGmKIqiKIpSJFSIKYqiKIqiFAkVYoqiKIqiKEVChZiiKIqiKEqRUCGmKIqiKIpSJFSIKYqiKIqiFAkVYoqiKIqiKEVChZiiKIqiKEqRUCGmKIqiKIpSJFSIKYqiKIqiFAkVYoqiKIqiKEVChZiiKIqiKEqRUCGmKIqiKIpSJFSIKYqiKIqiFIl/nBD7/vvvzbvvvmv++OOPYI8S5r333jNff/11sKUoyXzwwQfBf39/fvnlF7N8+XLz+++/B3sURVFKR8GE2KuvvmpmzZpV8nvqqafMzz//HBxN5osvvjB33323+fe//21uueUW8/rrrwdHCgeN6MCBA80111xjfvvtt2Dv2nz55ZemQ4cOwZYx77zzjrn11luDrfWP9PiWhrlz55rOnTubt956K9ij5Ao2bNOmTbD192fZsmWma9euwdb6xeDBg03//v2DrcKwatUq0717d/PMM88Ee9Y/Hn74YXP//fcHW7kxdOhQ07t372Br/YC+Yf/99zfTp08P9ijK34uCCLHvvvvOnHrqqea0006Txo/fsGHDzOeffx6cEc/MmTNNs2bNzIgRI8wbb7xhpkyZIp0ZoqyQI08E4ooVK8xll11mNtpoo2Dv2iDQEDee1157zdx2223B1vpHenzzhTzE/uecc45p2bJlsFfJlZ9++kk6jvWNq666SgYgheZ///ufqVOnTrC1fvHNN9+UeHc//fRT07NnT/Pss8/Kdr5st9120jZNmjRpvfSqE6cZM2aYBx54INiTG9jsq6++CrbWD2jjqFOrV68O9ijK34uCecQ22GAD85///Me8/PLL8nvkkUfMNttsExyNBjc/nf8hhxxinn76aXPHHXeY2bNnm0suucRcf/314lmL45NPPpFG1kND8vHHHwdba7Pjjjuam266yWy11VbBnjUQxocffmistcGeFIcffrh57rnngq0UNHbvv/9+RgH02WefyVRNNo20DydTx40AjToGUfH1MAXLNGOU54/rsZ0HAXHBBReYY445JtiTO9yLe3LvTPz4449yPEpcJ6WZ/RyPE+d0vG+//bbcKx1vk0zXJ8Wda7B3pnB9vKM6sLg4wQ8//CBlxscLzy3bmfIuKV+5B/FML38McN58881gaw0+7plsThjEgzKdCcT7o48+ag444IBgT4rS1I84O2eT/1FQvl988cU/DQ6Jx0cffbSW/cNkuifppU3AO5aJuDCjbEr8WDKRKd1xNmNf2Na0w7RxtKNh4sog+7h31AwGx5kZII7pxMXbQ7hcH1WvwySV7zC5nKso6zWuIy813377rd13333tPffcE+zJnltvvdW6UaZdtmxZsCeFEwq2WbNm1om0YM8aHn/8cXvggQfagQMH2i222MJuuummdujQofa2226z2267rd14441tt27drOsY5XwnOGyPHj3kWL169Wzr1q3ta6+9JsdcQ2KHDBliN9tsM1utWjXbuXNnu/3228sxcKLQ7r333sGWtbNmzbL169e3VatWtZUrV7aDBw+2rrGVe5x44om2YsWKtlKlStaJUDt58mQ5lo4TPLZ///52//33l3A4f+TIkdY1KHJ8/vz5tkmTJpKuTTbZxO6zzz5Zx/fXX3+1o0aNkrQ64Wnr1q1rJ0yYIMewaceOHe35559va9eubVu0aGFdB227d+9ua9asKefWqFHDjhkzRs4Pc+edd9q99trLug4m2GOtE8tiV3j22Wdt06ZNbYMGDSRs0uc6ajlGevv27Wtbtmxpa9WqZWfOnCn7w8SlmXD69Olj69SpI2ly4rgkbI/riCLTgV2HDRsmedKwYUNbpUoVsTv7ICnu/fr1swcddJDYm9/48ePlGLiOwLZv317ynbQ5IWt32GEHORYXJ58Xl156qZQnrqdMz5kzx7Zq1UrKBPFZtGiRnJ9NvlIHuAYb7rHHHnbp0qXWdYK2a9eutkKFCvIj3ZQ1iLP5q6++aps3b15yLzcokv1hOJfjc+fODfbkXz/i7ByV/w899JDE2QkiOc919JIXnlNPPVXyY8mSJZIn5cuXl7TS3gDp33333e3WW29tt9xyS7vbbrvZl156SY7FlTnqDOXosccek+0wcWFG2XTcuHGSr5y70047WScYZX+SzaJsfeGFF4otIa4MwowZMyRcrqfMdOjQwR522GFyjDI3evRoaWM5Tptz+umnS3sPUfEOM2LECKlT2Jx40l44URgcXUNc+XYDa9uoUSM7ZcoU2Y47F0jfRRddZFevXh3sUZT1m4IJMcQKHQkd7n/+8x/poLLhtNNOExHnG7kwRx11lO3SpUuwtYYHH3xQGgYaBa5DzNFIHHLIISIU6FippA888ICcTyOPYEGYIWROPvlkEWpAWJyLOPjhhx+kMaPD8nCcRgbcqNTusssu0nnSGJBGxCeNH+IG4UgjzbHhw4eLQFq8eLFcG4YOAjGAcKSjpEGmMXnllVesG7GLQMIubsQnjfHBBx8sdqBhSYovwpE4LliwQLanTp1qd911V/mfBo1OguMIXwQKjSJhcS+g4WzcuLHcN4zvzKZNmybbdP50Km70LXFu06aNXIstli9fLmHQUINPLx0r9/QdiScpzaSJxt6NquV8Ol4vWj1x6aAjpMF+5pln5LozzzzTHnfccVIWson75ptvLh0geXXeeedJPpN+zmcwwPWUO65t27atdMIQFyfygjQhTl9//XWxL+WFjpUOnrKKUKesQlK+EhY2JBzsw/9+EIMNjz32WNurVy+JE+UzyeaDBg2yRx99tNiLbdKbDvWL+L799tuyXZr6EWfnqPynLHK/FStWyH7SgLD0eCEG2HjnnXe2d999d4mQYN+8efMkfuxDBNKmQFyZw3bEjbKfTlyYmWxKWAjviRMnyjkIJ19e4mwWZ+twupPKIP/TPmJzRBmDCS/EGPDS1iCACBfBjaBCnMXFOwxhvP/++/L/c889J/EnPukkle+wEIs7F84999yMgzVFWV8pyNSkG2XK+rBOnTrJGgrWKLiRqnGj+eCMaFzlNW7El3HNlhNbxjUywdbauM5OpjTdSFHuxXTjWWedJftdJZVpUdaD4Q53jYFxQlFc+DwE4MRIyTTNE088YVyDKwveSYfrpOX6TDDl6hpQc/zxx5sNN9xQ0srCXe7hOk9z0kknyfQnx9xIVtIUZQMnWo0bccs5LHZ2YkoeeHCiQcJzjalx4tK4UbU55ZRT5BjpSYovC3VJ+8Ybb2ycsDOuc/vT9AgPLLhOyZQvX964UarkG3Fmmpht8oTpsjCkq2nTppK3TIcwzcN5LKLlPq5TMa4xlHgyPexEm5k/f35wtZE8cmJA7sn0SZikNFMOXKMqi3WZCiGvCSdMXDpcpyF2dmJXriMtrnEXu2QTd2ztRvISBuklLpxHnFlzxDHKXb169WR6l3yBJNtih7PPPts4oS8/8sR1gjL1Va1atZIy6zruxHwlLOoD6cA+rGNiKoq82mSTTSQO/IgDf5NsvsUWW8h9SB/X16xZM7jTGpiKJSzqL5S2fkTZOZv8T4I4YiP+Eh5gc+xE2KSZcPkLcffEHtjMiRnZDhMXZiabkp+E9dBDD8l0ZvXq1WWb6cg4m0XZOr1uxZVB8tqJRXPCCSdIuIceeqiE4SFOtJW0T4S73377SdkkXlHxToc8dWJO6psTe3Id9TGdbNotT9K5TmzKwwr0DYryV6AgQowG6rjjjpNO5eKLLzb33nuvNDJupBKcEQ0NHo0ClTQMFYvGiAoeRbly5eQvjQhx8Ns0OggbRByNjhutmfHjx0tHw+/OO++UBgZoIOiECAMII70x89BoUfmrVKkS7ElB/Gl4aRw8NAI1atTI2FgDcfT3oePGDnQ6pJl7cK2H+AEdX1J8WV/jRsymX79+ktYhQ4YYN8oNjqbOp+HyYHeelHIjVVkPx7o89jmRHpyRgvgeccQRZuHChbJehQcf9thjD9OwYUOJM/Ei772NV65cKR2Ih/SRrkwkpbl58+bmiiuuMDfccIOI0EwLpePSQTz4e+2118qTuTx8QaeC3bOJuy9XQAcKlC06QvI+bF/ywp+fjW193lF+KbPhvCSPqQf8kvIVwteSNtaapeejJ8nm3KNjx44SbzpT7p0ONgint7T1I8rO2eR/PiByu3TpIuKVhfyzZ88uCTfunsST+oBATicuzEw2xQ7XXXedDAZok2hDv/7660SbRdk6nbgySD5T5hBnnrDApcxxf9/WANvELyre6Xgxx0CMgTKiNFOZzKZ8e3I5V1H+CqxpuQsIlZQRPSPJJBo1aiQLLhmthWE0v2TJEhldlgYadETA4MGDRUT4H2IMaMgQar5RpZGIauQ5l06RDjgMDSI/wvHQkNIw1a5dO9izNuHGiHNZ7Ip4xXZ0oOzz4FGg8acRToovo25shkfHp5VXKkTBY/gTJkww06ZNk8Zt1KhRJR6OdPbdd1+Jx4MPPijXIczokIgTI3+Et7/nggULzHnnnRdcGU9Smunse/XqZZYuXWr69u0roomyESYuHZQlygF2YqRMGOeff74cK03c6aDoyML5zj183uZi2yRyzdckkmzOAIj4Em9EHZ6+dHwY/KCQ9SNMVP5T9rhfNnU3EzfeeKPEg7DwMoUfVIkrc6SX+kobl05cmFE2bdKkiXi6GcBSPhF9STaLsnU6cWXQi/VwGQjbj3JAmeA+HgYpfnCcKd5huBYRiMeNGQgGbwzcMpFL+S50XVCUYlMQIYZrmgbLg+uaKUBGQcCj1LwyIhNM0dGgc5zRFVCBeWqS/UzVlAa8P4xu8YT4Ro2GmwYF9tprL2mgXnjhBWmUeIcZ70bKBNMOQKNGg8Xod/To0TKiZNpu4sSJkgaO0bHTgO25555yTTo0YNiFc2nEOJeRI6NvOpjJkyfLPhrecePGSRpw8SfFF7GEuz48tYbHJwpG1twPbwj3Q4RECWheU8B0Ga5/zvX5y+gfUUKDzH7Au8eIOxuS0oyQoowhpvAkcC9G9WHi0kE8KFMIroMPPlimcXwHVpq40yEwkOBarqFM4XHwT5DlYtskcs3XdKhLeMG8aImzOdOsiAjiSp7T6WWKN+dRfr1Xq5D1I0xU/pOf5CPTdNSFm2++ObLucg3eHt/GAO0B7QO2YT/29cSVOfKV8oGXKZ2oMElzJpsSDvUZWrVqJdPnpIlBWZzNomyNHcLElUGmwjnGcgPAe0dZ9rRt21bi7J9c50nROXPmyBRmVLzDcB/qAl40hC19xKqIJ01zKd9J5+KFGz58eMYyqyjrIwURYjy+TGNFp0mF7NOnj7iN/YseqcBR77WhMfvvf/8rjzc3aNBApoT4i/uZ6UQ6zXRoUGkgqdzAXzwTNCrAqJ5tvw/XNQ0Ua6latGgha3m8MGQaoXXr1qZ9+/ayNojGhYbF4+8FxG3QoEHm6quvlnTSabHegeOMmLkHcccOI0eOlHc30dhlgk6MeNEoExfc9jSuxIEpkbFjx8o52IdOkveyMUJOii+NZLdu3eS8xo0bS5i8GgSwCx2KtxMg7EgL60h4fxgjeQSGt20Y9h111FHSCPvrgDy68sorDY/Ncz86ENL95JNPynHuSdyjSEoz69GaNWsm4eKFI64IoDBx6UB0MPpn5Dxz5kxz0UUXSd7RyeQad2xHuSJc/qc84M2tX79+SQeJQIC4OGXKC8IN34vj/Dg313xNj7d/PQy2ZYo2zubEA4FPWeZeCBzWFaZDmvGu+BcAl6Z+pMc3bOeo/OfHVB/rykgPIiws7MJhImzatWsn8aM8AJ4ahAn1CfsgoLgG4socHnzED3mQTlSYnJ/JpticKUxf9piKJZ9Jf5zNomzNdeF0x5VB8pw1ppR/xBLTi5QzX46YyjzyyCOlzHF/Bs3sY61nVLzDUA/Yh+ePfEEcEU64nHpyKd9x5wLlHK99+mBNUdZXytnwHFkpYOTjvWK4n8PrDrKB0RoNOo0JrncaCRqLQuFHjYzI6HzDay/wEhB3RBeNXHidRCYQIrjaEVF0Yh7uQadMGvC0MCWaiQEDBsjImbVKr732mjSU4XCA0RxeReJCWOE4ZRNfPEDYkykMGu1MjZ+Hxp5OjMW2NPr5QpzfeOMNaQARvVHpjyIuzXgF8FJgJ4R0JqLSQQeDd+Ouu+4SO+C9omOiQznjjDPknNLEnfC4b6Z8LJRtPbnkazoMbvDa4Xn1C6ujbE5Zxt6UUzq6TGs1Oedf//qXxCH80uPS1o9MROU/YTIQxM7Uhbg2gzaGvABsAMQVe5I3TMWFibonL8bF68/gEoGfTlSYUTYlD2gHEBukwYtBSLJZlK3DJJVB2kU8SuFyEQZPKgNl2kzu44mLdxjij3BDAEed48mlfGc6l7qIcGbAmGnwoCjrIwUTYkr2eCHGFwSUsodpbt4AjwcIkc96ErywTPsw1arkD0+wsf6SpzD/CbCAHk8Mni/WjinrF0zfMr3KC20ziUpFWR8pf1nU4i2lzMDzwiiOqRKl7GGKiakT1uLxxQe8DJdffnnJGjclf7wXJpu1Xn8HGEDhYeK1Efk+eKGUHUxRM22peaP8lVCPmKIoiqIoSpEo3CIsRVEURVEUJSdUiCmKoiiKohQJFWKKoiiKoihFQoWYoiiKoihKkVAhpiiKoiiKUiRUiCmKoiiKohQJFWKKoiiKoihFQoWYoiiKoihKkVAhpiiKoiiKUiRUiCmKoiiKohQJFWKKoiiKoihFQoWYoiiKoihKkVAhpiiKoiiKUiRUiCmKoiiK8v/bOxO4nao8jh+iFEWiSFpJCyWlFBUpLSopM/mUJZOSNpI2aaVmpshom/aRpWQ0gwoJLUpaaJG0IC1I+6J9OXO+f/e8rttzl+d9nnfe6P/9fJ7P+97t3HP+53/O+Z3l3quUEyrEFEVRFEVRygkVYgmsWLHCrFy5MthSsrB06VLzxRdfBFuKoij/Hz777DPz3nvvBVuKsu5QVCH27bffmkceecQMGTLE3HnnnebDDz8MjpSOH3/80cycOVPCGzp0qHniiSfMzz//HBwtW5YsWWLat29vZs2aFez5LU8++aTZf//9gy1jpk6daiZMmBBsrTtcccUV5pRTTgm2Sg/2wGZvv/12sCedxYsXmzvuuCPYKj2XXHKJOeOMM4KtZH6P+RT1pbImq91nz55t9thjD9O6dWszY8YM06tXL/Poo48GR4sLDWnbtm2DrfUL6rFWrVoFW0qx+fTTT80JJ5xgHnjggWBPYXzzzTfm7rvvNq+99lqwp2zIp94Ksz6XlSwUq934vVA0Ifbuu++aww8/3Fx55ZUyKjJt2jT5lRZ6NkcddZTp1q2bmTdvnjQInTp1Mscff7z56KOPgrPKhl9++cUMGzbMtGvXznTs2DHY+1u+//57qQDg119/NQ899JCZOHGibK9LfPnll+bzzz8PtkrH119/LYK5X79+pnnz5sHedKjo7rrrrmCr9JCGLCNxv9d8CvvS/4Osdn/qqafM6aefbk477TTJ22XLlpnGjRsHR4sLnSwamPWR7777znzyySfBljGDBw821113XbD1x4TOR/fu3YuS54imbbbZxpx11lnBnsKgLrnnnnvMyy+/HOwpG7LWW1HW57KShWK1G1BMPyw1tgg44WJPPfVUe8wxx1jnVMHe0vPTTz9ZZxi755572kWLFgV7rX322Wfttttua10vItiTHee41glE63o6wR5rly9fbr/66qtgaw0//PCD3Ms1jMGeNfhwXKbZqVOn2oYNGwZHcsP9nHq3riIO9qzGh+Mq52BP/mD3pDCcYLVOIMt5UXy8nACwffr0sccee2xwZDVOWNl33nlH8iIXK1eutB9++GGwtfpes2bNkuuKAfZxYnyt/PL4dIfzp3fv3vbEE08MtvLH58eqVauCPelgO/yztHmY5kvYnjzIZVP8ifyL2ieXbTycS3jcNxdci784UR7sWU1aOpP8LAv4EnmNPzVt2jTYuxrC/OCDDyT8uHinERc/7EG6omXTk+SD2AI7Z43Tww8/bBs1ahRsWdulSxepM6Ng+7fffjvnPbPgbVmavEjyt6ysWLFCflG8b5EXnnHjxtkmTZpYJ+6DPatJ87eoH3M+9TXpLmuSfII0xpW9OKL1Vlrak8pKofVRku+RbtJW2rA9cWWxGHVMmv/G5V2cH0KcPxeboggxMmiXXXaxkyZNCvYUxsKFC239+vWtU7zBnjWcf/754oBZHeKiiy6yvXr1socddpjdbLPNbL169SSerodvN998c7vpppva4cOHB2db+8wzz9i99trLNmjQwNatW9eeccYZJRlLOg855BC78cYb26222koK0I477ijH4OKLL5Z7AY515ZVX2urVq9saNWrYrbfe2k6bNk2OUWmQhk022cRWqVLFtmrVyjqFL8eyQJqIV5s2bST8atWq2aFDh5ZUTBTWbt26STw5RppHjx5d4sQPPfSQ7CPte+yxh23btm2JEMOZsYfrXdqdd95ZhO+9994rxygMhx9+uL3wwgvFNvvss49988037Z/+9Cdbu3ZtObdmzZr2n//8p5yfhRkzZtiWLVsGW2vyq127dmI3fiNGjAiOWjtlyhS70047SbqJP6KcdIUrtEceeURs6gsQFSP55gnn0/Tp08U3unbtKvdClGZhyJAhYoPttttO4nLyySfn1QlJ86UkP3S9f8mf3XffXRr3efPmyf4422DTnj172ubNm8u9Jk+e/Bu7+2spI1w/ePBguTYpnWl+lgZlZMCAAbZq1api+/bt29sddtghOLq6nDRu3FjKzpZbbinpfemll4Kj6VBxEybhY4/WrVtL5wsfv/nmm22tWrVkP8fPOeeckk5Zkg+SBz169JD6ifLRoUMH2Zfmc16I0cnr2LGjrVy5svywKWUXMV5IOQrbkjC5B37tIX3nnntusGXtE088YVu0aBFsJftbFvAFfAO/3H777SVsX6fNnz/f7r333iX1ybBhw+ztt98ucd1ggw0kD4488kg5N8nfcvlxIeVwzJgx9oADDlirAb7sssskDNoX/GXixImyv7T1Uprdw/VWUlrSykohdkjzvULbK+pY2g18ijK34YYbin/6Njwp7nFlOFp/JflvUt7F+WGSP5cFRRFiTz75pFRM5513nj3qqKOkYUeEkMGlgQJG5fvcc88Fe9ZARc8xlHsWcHQyf+zYsTLa0alTJ8nsq666SnrC11xzjVTwZC6Osf/++4tjUIhQ14zK0fCxffbZZ8txCi7HDj74YImLJ1yoxo8fL5mIE3Lt448/LunhHgiYs846S+JDhh9xxBEymhjXM4/CfWgwEapU7FRsFKBXXnlFjiOUmjVrJiKJRufaa6+VQvvqq69KT4o04ZxciyijUvNCDAffdddd7Zw5c2T7gQcesLvttpv8z7U0jBxHLCP8KDDklx9JwnaET7qyEB0pIG1bbLGF5DPxu+CCCyQtiEB6M9z78ssvl3QhZujNYN+o7TmPkRQgLuHeY/hc7k9BPOWUUyQNXsymQb5SScDzzz8v9sUOWUjzpSQ/5Ni+++5rR44cKedSxoh3mm3wFyof0se+sN2j177xxhv2tttuk3OT0pnkZ1kgDpQRwqOXSuOFOPEQj9mzZ0t8EUlUpDRsWSDujDgddNBBIo4InzoAHyZN3Jdtwqb+ohFAnEGSD1I+qC8YjQTC5l5pPhe2N+W8c+fOMupP+cF2xShHSbZEMHM/T3gENsnfskJ9QoPJqAqigY4udS3079/f/vnPfxY7kXbsyP+jRo0SW5LPfpQiyd9y+XEh5XDBggXS+SHvgHghGG+55RbxE0ZJ8BFI8omkspdkdwjXRUlpScvfQuyQ5HvFaK+IOyKOOpb6ivghbvwASFzck8pwuDyl+W9S3sX5YZI/lwVFWSPmMsi4ilLmWFlPwroul2jjeheyJidfXAabChUqGNdABnvW4DJUjrGQPyuuZ2qcs0t4rpdoXOEzLnOMU/eygJawiLsTMrL+zAkP43pxMn/Pua5HYFwP1zjVbZxKNq7BNM6RjMssiU8uWB/nFLoscq5YsaL8dQ2ocT16CYv7Ex/X0xebcT9XiQdXp0M6XM/cuN6FrGNzhVLC+Pjjj81jjz1mnAMb1wM1lSpVkvzgvBdffFHOIa+6dOki+44++mjjekNBqKsXsterV89stNFGYg/nwLJmLowTEWaXXXYxrhdhnKg1rhch93EFQLbxB+fQwdn5wyJU7Ez82rRpI+vPyAvWa+AbJ510ktzPNZ4Sd+xbCOTB+eefL/lBmrJAHF3FKA+kuMIt9nIVQnA0mTRfSvJD7kM8eSjGiTiz+eaby3aabfBz1/hL+qL2il7rKjhZlM+5celM87MssIDdVYByD9Lep08f4xq04KiReLgKVvKfslGnTp3MZQT7YS/ixHWETx3gOh1iO9a5UW6whavozaGHHirp8cT5oOs1y/+TJk2SdX2EndVnPNQ72Isf5cX/LaQcpdkyiSR/ywL+7BpT07JlS1kr7Bo0se9bb70lx11HWO6Bz5P22rVri83wJeyPTb3vp5WrqB+nnZ8EfksdzZpR2inWImNz8jsXcT5RrHopKS1p+VuIHZJ8r1jtFXFDD1BfObFrDjjgAFl/CnFxTyrDYbL4b1ze5fLDNH8uC4oixEhMjRo1jFOapkOHDmK4nj17mjlz5pRqIeLGG28sBQNjRSGDEB3VqlUL9qSDcPNg9PA2YbHtlLE0LjjDwIEDxdn4LV++XAosBQ3HDDsBmRcOKwxh4bTRSpr9xKFmzZrBntVCAJz6lr9ZoND4go7z4EQ4FnHEbogpD7bifq43I/cgzRQ2TziO77//vnn11VelISb9AwYMWCvNpBdx5qHg8NSl68VI3vOQA/ucyA/OyJ+wTam4wfU0RUBiO9crln3FgsKJ/fLBN+Y0DH379pVKKWua03wpyQ/JyxtuuEEqHu5/3nnnSRlLsw3p43gukq6NS2ean2WBNOL72B9If7jxohJ0PW+pYLt27SpPbWbt2CGS+CECouDjxNvfF9gO11VxPkgjcvXVV5sbb7xRGkbXmy5VZzNKoeUozZZJJPlbFmi06ciOGDGi5PoxY8aI3wDbPMhFumgQqV/iSCtXUT8upBxShx533HHmueeek4fDpkyZIk8IN2zYMDhjbcq6XkpKS1r+FmKHJN8rVntFfH07Q7yp+/AbiIt7UhkOk8V/4/IuF2n+XBYURYiRMRguXAHjMOHGJR8YIeDaF154IdizGsQSj87TU/bOUEwoSChvHoGmcPJDTCIwSQ8ChgzyUAHHOTu9Phw1WknTWDECR0PmQYFjp7CzpxG+L2Hx6hDuSaHhF44nx2lk6tatK6Itev9wHHF6RiHoTXgb8FRJHE8//bS59957zfjx46WCHT58uAjpsoD8YXQOIZMEFSzn4S+ArYrRWHrILyouRhXpJVGBx1XeuUjzpSQ/hKZNm0oP+cEHH5TXcCAGstomF3Sicl2blM40P8sCceb6uHy66aabJMwFCxbIKBu94axQ2eKHNJJRKGekLTzSS8VNbz0N6iWesHr99dels0nlT/wK9blCy1GaLfE5GldPPv6WBrZGIF1yySUl1/Oj8QLsSnpIF/UPo7+5yLdcFVoO4cADD5S69+GHH5Y8QJiRl/mQVPaS7B4mLS1J+VuoHZJ8r1jtVRjijVagrUmKe1IZDlOo/0ZJ8+eyoChCDOGEMMIQOB3q9N///rfZb7/9ZOSFVwXwWouskBHt2rUz//jHP2Q4G3D0W2+9VUQBj9J7VVtM6HlTcGjgfCXNKBOCCqdp0qSJHGMfFTc9BwRQLhAzNB5kICAgUf70oinoTN1yDxquu+++W3raDM9mhYYYu+LUNMaEhWJHjDHcPnLkSBk14Tj5wnHygylF7s9wPDDKQJo8VEwM9YaHdcnPOCgkhEf+cw8KAL2YsgABDlQYpIsRk5tvvvk309QUSipFpgw4ht8sXLgwOFo4pI98ZxSFhplGecWKFcHRdNJ8KckP+fkRBaa6t912W0lrVtvkgp4w5dZfS1rwT3qGcelM87MsMD1BWubOnSvxvO2229bKJxoeRl9pDLgHfpkVrqOsUXliM/KM9w7x/qGDDz5YyqafGnn++efN448/LtP0aSxatEimhKl/GN3xDW2+Pkea6Mn7hrXQcpRmS+potok7vyFDhmTytyxga+qv+++/v0SYky78Gr/A1qSlfv36Ui/6dNHIYjPf0OZbrvI9PxfEiSko7EHaGZXJl6Syl2T3MGlpScrfQu2Q5HvFaq9IOzYhXKY7eR0Vy3WS4p5UhsMU6r9RP0zy57KiKEKMHs/ll18ujTuOx9w1+y688EIxLhVdPu9tIuP/+te/SoXOWigaCgoM791hP2s7skIG0XP3EDb7/DApfxmd4C9z+4MGDTK33HKLFC4aGoQLL5Lluv79+8sc+k477SRx4xwqYE/4XsSRCp/447BM9dEbZO6aqY3bb79d1geRNpz7mmuuWSueaXAt04bYBZHLkC7xIZ700imsDRo0kHvzMlzeW0RauB/rC0gnzs/UFg0Q1wH/8742poT23HNPCZP3uQG9INLozwUqCMQAawx4fxijAwgN8j0L2D0sqnPlF/lDeAw1kwf4APeksDBVzTnh6xA5TIWwJgB7U2GFxUH4XH//rPEF8hwb0bMn3GuvvVbsHLZLEpyX5EtJfoivME3n9zO8Tlyy2sYTtjth4z/4CNdS+SF6GNmKSye/JD/LAj7WokULWcNJPtHQIC499JJpFDgHH6SCJC1Z4Dx6tExzED9sSkWNAGL6hfcRcn/iTRllH2uP/LVxPsg6ombNmontGT3B7/G3NJ+L+jnp4WXRlMfrr7++4HIUtSWjHKTN49eBUqYRQ3Ta/Mhlkr9lAftQF+EL1P377LOPtAPUSwgTRAN5wL0RqKwxBe5DR50GmfinlatovhRaDgH78iJYGm2fBxCt65J8IqnsJdkdfLhpaUkqK4XaIcn3uFcx2itG3dEBhEe7SFqwe1LcsU1cGQ6XpzT/Tco7iPohx+P8uayoYHONk5YSVCgL2xgqxCBZK5EkGI1BAbNQEKPkk/mlBeX95ptvSk+Xe4bXD5FGKlkcF8dMgkqItQd+ISEO5OEe2AqH4hh/s3LmmWeKUueFdrzYLldcuDcNPRUC4YfTAPTasC0VA7aNwpAxb8gnL6lokgo1DotNCIcCU9ZQaTKMjQiNywPSz9cRiBuFshi+GAX7UikhXCjs+ZLmS3F+yH7ynXuStvC9s9gmDkZzEHmsQUOceJLSmeZnadDTpBeM/5OWaDkgPfghflWaqRBshw1zhc+IFHULHRLslRXKMyNj2JcK2pOvz7FWjV62L4OFliNvS0QEI5Y0rIw+eHydw/qcXNPHSfVeFkg/9QojGjSO2NXvx17UWbQL4Slg1hkSZxpff36+5arQclgs4spemt3DJKUlrawUYoc03/Np4J75tlfMBPEwFNOOjLJTLqLxT4p7UhkOU4j/5vLDOH8uC4oqxJT/D16IjR07NtijKIXBGhAED28m50nIv/zlL8ERZV0EscgIXViIKUp54IUYy3MQNMpvKf4wgVLm0GNB8StKsWDE4tJLL5XePK9zUNZtmDlgykVRyhuWFDC9l8/DJ380dERMURRFURSlnNARMUVRFEVRlHJChZiiKIqiKEo5oUJMURRFURSlnFAhpiiKoiiKUk6oEFMURVEURSkniirEeLdV0udwfs8Qd16+Wix4QR4vqfOfXFAURVEURYlSNCGG8OAbkHx7bl2Dt8jzuQW+lZcEb+HmW1dZ4G28fN6CT40oiqIoiqLkomhCjM+j8HmHLB/OLQt4kzSfZ/EfCc8HPmLKpw14q3gSfFaGzwplgTcI822xUaNGyacSFEVRFEVRohRNiE2fPl3EDB8xDuO/18SoUy748vrSpUvXmsLjG3BME8YJGK7hO23h43xnig/y8s27fOC7VLxJnI+N8lHuKMSL+PMJGD4MzIdLo8TF99BDD5Xz8/kSvqIoiqIofxyKIsSYlpw1a5Z8xsB/lPviiy82vXv3FjHCl+f5OC4fE/aCi+NMZfLFc77EPm3aNBnV6t69u4wm8fFPPoY8ZswYETiInSOOOEK+gE54fPyTT3jwoVI+1tmmTRv54OdJJ51U8iHeyZMnmwMPPLBk3RrrwNq2bSv/w9ChQ+Vr8p07dzZNmjQxXbp0kQ8xw4wZM0y7du1Mjx49TNOmTeXzLzNnzjStWrWS45AUX+AzRAhE4ggvvviifMOPz8koiqIoiqIURYgx2sWoUcOGDYM9xnz11VfmvvvuMyeffLIIlkGDBpnhw4ebBQsWlBwfN26cTAcuW7ZMPlCLMGL6j2lOvmTPscsuu0yuQdx88MEH8gHRiRMnynotvtLOVCFfg0d0cX+mGefPny/3+O677yRuXvzx9XrEmAeBNWfOHBmRe+yxx8zs2bPlBwgo/udL79yXuBFeeMQtKb7AN7b4AjxTtsC1c+fOLRF7iqIoiqL8sSmKEEOg8KtevXqwZzWHHXaYjCghmDp27GgqV65cIpKA0SVGoxA7CCbE0Kmnnmp23nlnU6lSJdOtWze5lpEkqFixounXr58Irzp16sgaLEaXEGl8UJTj/EX8ZIHRMaZTGTFjipLRvLDQ2nLLLeWr8VWrVpU4hmGELi2+VapUkWtXrlwp24zovfLKK2bvvfeWbUVRFEVR/tgURYj99NNPhm+HI4TCIE78PtZfIZDCo0Fs+6lM1mB9/fXXpl69erIN1apVMzVr1iwRMhC+B2EyLVra75Yzuta4cWMRhH379pWRr3BYiKo4UZclvhUqVBAbMBKnKIqiKIoSpShCjJEfBBKL6MOERQ3CheO1a9cO9qwNgoxfeOqQa7744gtTt27dYE9+IIKYlvRCiPj49VuMwF1xxRWyLoypwylTpqw1tZpGlvgiEklzjRo1ZFtRFEVRFCVMUYQYU5IILF5gGobF7aznQvxMmDBBRBEjULngehbf8x4y1pRxDe/14pr99tsvOCseRq+YPuRaD9OXTJmyhgtRdOutt5YsnGcNGCKJES1EJAv+83m6MUt8WQfH2jEeCADsc9FFF8n6NkVRFEVRlKIIMUZ8EFgIHj/iBFtvvbUZMGCAqV+/vjztyPRfo0aN5BjCyU9LAqNXAwcOFMHUoEEDWbvFYvjBgwfLE5JM83EN53nCYSCMeAKzf//+8gQj8CQkDwHwwMCOO+4oIsyLJERap06dRBixj9dXcE8fPqLOj/R5/D5Iiy/wEAD28GlmmwcY1tWvDyiKoiiKUlwq2NIusIowfvx4c9VVV5lHH31UBNiZZ54p03Y81ciThbzagf1pIFwYOWLRPIvysy68B0aj/IiXH3kjvCVLlohgQiCFhRVwL6YTEW8Iu3xJiu91110nC/oZFWQ9G2KUxfqjR4+WRfyKoiiKovyxKZoQY3qOt+rzlOGJJ55YIsTGjh0bnPHHgoX8xxxzjKxB69mzp4yG8YQl71LjPWiKoiiKoihFmZoEXvXAO7R4RQUwXccLTf+orFq1SoTY8ccfL9tMXU6aNElFmKIoiqIoJRRtRExRFEVRFEXJj6KNiCmKoiiKoij5oUJMURRFURSlnFAhpiiKoiiKUk6oEFMURVEURSknVIgpiqIoiqKUEyrEFEVRFEVRygkVYoqiKIqiKOWECjFFURRFUZRyQoWYoiiKoihKOaFCTFEURVEUpZxQIaYoiqIoilJOqBBTFEVRFEUpJ1SIKYqiKIqilBMqxBRFURRFUcoJFWKKoiiKoijlhAoxJTM//PCDWbRokfn555+DPcq6xnvvvWc+//zzYEtRFEUpb4oixD777DMzffp0M2XKlLV+c+fODc5I59NPPzX333+/+dvf/mZuu+0288YbbwRH/j8sXrzY3HHHHcHW+sOTTz5p9t9//2Cr9Pz666/mmmuuMX369DHffPNNsDcbZW3bmTNnmlatWsn/xO3uu+82r732mmwra3j++efNUUcdZV599dVgT+mYOnWqmTBhQrC1fnHJJZeYM844I9hSFEUpe4oixBYsWGAGDBgglZj/de3a1fTr1y9Toz158mTTrFkzM2TIEPPmm2+asWPHinhAlP3yyy/BWWULDfddd90VbBUG4qd79+4iUMub77//XkRuobz44otmxowZ5vrrrzfVq1cP9majmLbNxXfffWc++eQT+f+LL74w99xzj3n55ZdlW1nNt99+K+XrtNNOMwcffHCwN38Q5A899JCZOHFisGf94ssvvxQfgo8++kjqsWeeeUa2FUVRygRbBrhG0e6999520KBBwZ54lixZYhs1amRdL9Q60Sb7fv75Zzt06FC75ZZb2pkzZ8q+OFxlad99913rBFuwZzVOgNhFixZJXHIRd12UFStWyC8OwuEXZty4cbZJkyZ22bJlwZ41pIUXxgkMSQN/o2CruGPYb+nSpdYJQTt16lTbsGHD4MgakuLhr1+1apVsY6OFCxfal156SY4VA/KFe+QTHvH44IMPJN/C1z388MPiQ/mS5iPY+J133skZR+JCPKJ5n0bSPfMJM8l/c8X7q6++sk8//bT9+uuvgz1rQzjkR2ltkStfIGuaCH/x4sU5/TkprcA933vvPQkjSr5+1rt3b3viiSfK/9xzt912sxMmTJBtTzHSqyiK4ikTITZ69Gi74447SuOdxh133GG3226735xLRdasWTPbr1+/YM8apk+fbg8//HARb7Vq1bIbbrih7dixY0kj4nr+tm7duhJu9erV7cknn2xdL1eOUUm2b9/eVq1a1W666aa2devWdvny5XbGjBm2ZcuWcg6sXLlSrttmm23s9ttvb1u0aGFfe+01Ocb9DzvsMHvOOefY2rVr2ypVqthTTz1VhMvtt98uYW+wwQYS/pFHHinXJIUXhnRzzcCBA8WGm2yyid1pp53s7Nmz5fhPP/1kb775Zkk34XMv4kFDCzQ6hxxyiN14443tVlttJY0K4XiypKtr1662Ro0atk+fPvbZZ5+1jRs3tltvvbUI4913310EWRgaI64599xzgz3Wfvrpp7ZNmzZ21KhRa9kWIdCjRw9bv359u/POO9sOHTrIPkQh50yePFnOg8svv9x2795d/k+KR1iI4QPk6cSJE2Ub/9lss81Kfp07d5b9ST5y0UUX2Z49e9rmzZuLDcNxgvnz50tHg/hvu+22dtiwYbL/kUcesa1atSoRuNiAvPAk3TMuzDBpfp8r3mn+wjWER14Rp2rVqkknyAuMXGFefPHFtlevXnI8KV+ypAlheuWVV8q98TnCmTZtmhzDV7t16ya+TLzq1asndYsXZMSNeLRr106u5TdixAg5FudnaXnkhdiCBQuk3FCOKYPkGZQmvS+88ILE5e2335ZtRVGUMEVfrO96pTI15Bp04yqkYG88r7zyinGVlnHCINizGidwzA477GBc5RXsWQPTbbNmzZK/b731lnE9feMqQzNmzBg53rRpUzNnzhzjRIl57LHHjBMx8nMVuLn66quNq5Bl0fmHH34o60EqVqy41vQW3HDDDTJF4SpXWa/WpEkT4xoMOcZ9CZ/wWP/03//+V9bNuEraOEEma9x22WUX4ypgM378eLkmKbwwTP04sShrcP7zn/+YZcuWGVfZS7y5L9OeTNm6xlXCY1p30qRJZuTIkXIt00+khfQRR9LIdZ60dGEn1/gY1+M3rkE2m2++uazvev/99yVM1xhK/obhfNZouQZUzoN58+bJwnDyImxb1inxe+KJJ2QaGlu5hlZsyTmc62GayC8szxIPcAJCpmJ9OE7MiW8wreoaVrPbbrvJ/jgfASdSzLhx48xZZ50l9nfiR/Z77r33XuPEsXn99dclDU5QyX7uyb1JCxCX8PR00j3jwgxD/iT5fa54J/mLv+a+++6T+7lOgBk0aJAZPny4LDfwx6NhhqfvkvIlS5qciJZp6wcffFBsR1qcKJNj+B/T2kwz4wfE4bLLLlsrbpQvJ9aME20y7XrjjTeajz/+ONbP0vLIg59gq4YNG8qaQ8oLlCa9+DXrZbGboihKlKILMRoHKiHWViBw0li1apVUkK53H+xZg+vBG9ejD7bWBuFGpUzF6Hqh5oADDjBPPfWUHGvbtq0cR4TwpN9GG20klSENDWKJirtOnTrG9XSN6/0a19OX6zxU1Dx80LJlSxFFCBbXC5bGz+N6xOaCCy6QOO61116mVq1aIl4QJdyPtHOMe2QJLwzXut6+2XPPPY3r5ZuTTjpJriE9rkcv13bs2FHOO+igg8yhhx4qDTv3YT0LDQDx23777SUc4gBZ4uF6+eb88883VatWlbQ0atRI1ushXkkfduNvlNatW0teITSARgyRFxXj2ISwEAMICsLjPmlkjUcUGnUEGA1+tWrVShZix/mIB2HZuXNniVvUj8lrOhDYukqVKtJpyELSPbOGmeT3EI13kr946DT16NFDyiDnVa5cuUR4QJItkvIlS5oQ75Qf/Iew+bvvvvuKmCKOdGzwoUqVKkm5JY6sV/RgU/yd/W3atJF4IHhK62dhqJeIE38JD0qT3iOOOEL2k1+KoihRiirE6F3SO6TC2WeffYK9yVDBMYpGwxSGHiuVMQ1OLipUqFBSsVJZIqYQdeAbHxqQvn37SkVprZUKmR8VZhKEQy95xIgR5vTTT5cfPXXCDEMcgIaLXzQNnqzheQiX8DxbbLGF/MVO9MTphYeFK9uMUNDb55ywsMQ2Pp5Z4kG4vtEBBNsxxxwjIwSIa0aWGHmLwkhA8+bNpeFjdAJxcNxxx60VT8A3GN1j5IKRvlGjRuUML0rWeOQC8c2oz8CBA0saxzgf8WADhFIusBsjQx06dBAhkPUpxKR7Zg0zye8hGu8kf/EgcggLEO2EER69SbJFUr5kSRNlHPEfFUn4MWKHuHoQ0jVr1hT/8njfBsQP0CEorZ+lUWh6FUVRohRViDEdRW+QJwbjKu4ojJowVfPOO+8Ee1bDsD9TEPQ+06AipHJGYDHqc8UVV5guXbrISA+v0WB6Aaio6d0ypZEE59H48PTnc889V/LzU0D5UprwwqKAURMa0s0220waItLop1Zg+fLlIlg5BwEXnmrBNj6s0sTjpptukkaRvGAkghHEXNCQMprCdBCjTwheRl+i0ODjH0zf9OzZU8QRYbOfMMIjoOE0Zo1HFBrzq666yrRv315GgiDJR7KArZm+o6FFuDDqCAga4kyHBLC7b6TT7hkXZhJhv48jyV88YV/DxjxhmXWULylfsqSJ+zDt6O3kof7gF/Zl7oOArFu3brAnnjg/S8qjLBSaXkVRlChFE2JUZvQ6mTo55JBDgr2r4VH3XOuhgGkRerocZ+oQaDiYfmH/scceK/uisF6FdS80+KyTYa0N0xps05DQk6YypiJesWKFXMPIEr1jhAeVP+ey3oN1XmE4jx417zXzDQEVNw1YFvxaFC/48g2PhoIKH4GKkCC+xJvRD149QAPgp6MQPo8//rg5+uijpUFG2LLehhENwh82bJjYA0qTLs7jOvKC/GGKJQ5GehCDf//732V6abvttguOrAGBTd4hChk14HxGEhGI3IepbeLEtBTp8OQTjzD/+te/JP9ZP4QtsUWSj6SBn2N/wqhfv750FPgfmKYi31nT9OOPP5pbb73VLFy4UI4l3TMpzChxfh9Hkr94eA8bZZR4sDYR/4sbrY0Sly9Z08R+zqNDAI8++qiMHCLQmLIcOXKkhEt4DzzwgMRtv/32k3OTiPOzpDyKwjV0Dny9BKVJL51MRFm0nlEURYGiCTGG7Fnvccopp8i6pjBU/nHvHWJB/p133imVVIMGDWQ9CH+ZUmEKLVdjDtyDcFn/Q2PTokULc8IJJ0hF26lTJ6n4qLCvvfZaEYf0hKlYGQ1iSoh7EDaNPZUqFS6VNnAu70Wjot51111lmpX1Vl5M+nNpUIHpEcL204k0IKxNooFkGiMtvCiES5xY/4N9GEHheu7BtMfxxx8v4ZIuhCz7WMPDffr37y8VP1OFpJ81LdgE8k0XMILDui/sy8tAaYSIRy5Yl0Z8EHbkhQ8nbFtGTXlnHDZi6vLII48U8Uh6Wb81evRoyZcLL7xQRLi3aVI8wuH7vCCtNI4IEEYoELKMWGDTJB8Bro8b0SVMFn7jP6zhoyE/++yz5RjpYGqKNUv4JQ28Fw1J90wKM0qc30OueCf5i4d8wy8QEPgC06b4DeQKM7wvLl+ypolRVNJBvIhfr169ZDQJuzCKha8SBsdYvD948GB5EAaiceMa/AW/i/OzpDyCcJiIQcowZQr/gdKklw4VU+OsDVQURYlSwYbnJcoRero8Ick0HFMPCJCwIAhDj5kF5UzvsD6G86icaZA9iBGmMahAqSjD0DPmgQLOj14XhsoVgcnIBeIgvF4lDUZfGPWgAfHXZQmPqSYapUsvvVREA6KG0QkWz4dhbQ3ilTBoQMMwGkYDw9OoNLJR8k0Xo4fkDY0MU12FwkgCIxb+gYIwHONpS4RiNM3FjkeSjySB/Yg/oyMIlvA0H8eWLFkiAgLfivpw3D2TwvRk8fs44vzlzDPPlHvy5CJPKMb5TBJx+ZIlTcB55Dl5z9orRLmHY9iMeoFjjJxmJc7P0vIoDPWSHzHzo4T5phdxy8gZnYyoTyuKovxuhFg++AaJaQyExPpEWIhlXQel/DEoC7/3QoyvWSjFh9EwnvzktTGMlCmKokSJ7wr+jmE6gGk11mKtbzBKwpRK9JUailIWfs+oDqOPStnAiDhPEqsIUxQljnVyRExRFEVRFGV9YJ0cEVMURVEURVkfUCGmKIqiKIpSTqgQUxRFURRFKReM+R93qamiL1zOuQAAAABJRU5ErkJggg==;fillColor=#5D7F99;strokeColor=#D0CEE2;fontColor=#1A1A1A;" parent="1" vertex="1">
          <mxGeometry x="40" y="40" width="314.4" height="234" as="geometry" />
        </mxCell>
        <mxCell id="h1DUvr0slZgetlB9KQDq-7" value="" style="edgeStyle=none;curved=1;rounded=0;orthogonalLoop=1;jettySize=auto;html=1;fontSize=12;startSize=8;endSize=8;endArrow=none;endFill=0;labelBackgroundColor=none;strokeColor=#736CA8;fontColor=default;" edge="1" parent="1" source="POtu942e6d3Yeao2YYhx-2" target="POtu942e6d3Yeao2YYhx-11">
          <mxGeometry relative="1" as="geometry" />
        </mxCell>
        <mxCell id="POtu942e6d3Yeao2YYhx-2" value="&lt;font style=&quot;vertical-align: inherit;&quot;&gt;&lt;font style=&quot;vertical-align: inherit;&quot;&gt;TiposDeUsuario&lt;/font&gt;&lt;/font&gt;" style="rounded=0;whiteSpace=wrap;html=1;strokeColor=#D0CEE2;fontColor=#1A1A1A;fillColor=#5D7F99;labelBackgroundColor=none;" parent="1" vertex="1">
          <mxGeometry x="40" y="320" width="120" height="60" as="geometry" />
        </mxCell>
        <mxCell id="h1DUvr0slZgetlB9KQDq-9" value="" style="edgeStyle=none;curved=1;rounded=0;orthogonalLoop=1;jettySize=auto;html=1;fontSize=12;startSize=8;endSize=8;endArrow=none;endFill=0;labelBackgroundColor=none;strokeColor=#736CA8;fontColor=default;" edge="1" parent="1" source="POtu942e6d3Yeao2YYhx-3" target="POtu942e6d3Yeao2YYhx-18">
          <mxGeometry relative="1" as="geometry" />
        </mxCell>
        <mxCell id="h1DUvr0slZgetlB9KQDq-16" value="" style="edgeStyle=none;curved=1;rounded=0;orthogonalLoop=1;jettySize=auto;html=1;fontSize=12;startSize=8;endSize=8;endArrow=none;endFill=0;labelBackgroundColor=none;strokeColor=#736CA8;fontColor=default;" edge="1" parent="1" source="POtu942e6d3Yeao2YYhx-3" target="h1DUvr0slZgetlB9KQDq-5">
          <mxGeometry relative="1" as="geometry" />
        </mxCell>
        <mxCell id="POtu942e6d3Yeao2YYhx-3" value="&lt;font style=&quot;vertical-align: inherit;&quot;&gt;&lt;font style=&quot;vertical-align: inherit;&quot;&gt;&lt;font style=&quot;vertical-align: inherit;&quot;&gt;&lt;font style=&quot;vertical-align: inherit;&quot;&gt;Usuarios&lt;/font&gt;&lt;/font&gt;&lt;/font&gt;&lt;/font&gt;" style="rounded=0;whiteSpace=wrap;html=1;strokeColor=#D0CEE2;fontColor=#1A1A1A;fillColor=#5D7F99;labelBackgroundColor=none;" parent="1" vertex="1">
          <mxGeometry x="320" y="320" width="120" height="60" as="geometry" />
        </mxCell>
        <mxCell id="h1DUvr0slZgetlB9KQDq-12" value="" style="edgeStyle=none;curved=1;rounded=0;orthogonalLoop=1;jettySize=auto;html=1;fontSize=12;startSize=8;endSize=8;endArrow=none;endFill=0;labelBackgroundColor=none;strokeColor=#736CA8;fontColor=default;" edge="1" parent="1" source="POtu942e6d3Yeao2YYhx-4" target="POtu942e6d3Yeao2YYhx-31">
          <mxGeometry relative="1" as="geometry" />
        </mxCell>
        <mxCell id="h1DUvr0slZgetlB9KQDq-14" value="" style="edgeStyle=none;curved=1;rounded=0;orthogonalLoop=1;jettySize=auto;html=1;fontSize=12;startSize=8;endSize=8;endArrow=none;endFill=0;labelBackgroundColor=none;strokeColor=#736CA8;fontColor=default;" edge="1" parent="1" source="POtu942e6d3Yeao2YYhx-4" target="POtu942e6d3Yeao2YYhx-49">
          <mxGeometry relative="1" as="geometry" />
        </mxCell>
        <mxCell id="POtu942e6d3Yeao2YYhx-4" value="&lt;font style=&quot;vertical-align: inherit;&quot;&gt;&lt;font style=&quot;vertical-align: inherit;&quot;&gt;&lt;font style=&quot;vertical-align: inherit;&quot;&gt;&lt;font style=&quot;vertical-align: inherit;&quot;&gt;&lt;font style=&quot;vertical-align: inherit;&quot;&gt;&lt;font style=&quot;vertical-align: inherit;&quot;&gt;Medicos&lt;/font&gt;&lt;/font&gt;&lt;/font&gt;&lt;/font&gt;&lt;/font&gt;&lt;/font&gt;" style="rounded=0;whiteSpace=wrap;html=1;strokeColor=#D0CEE2;fontColor=#1A1A1A;fillColor=#5D7F99;labelBackgroundColor=none;" parent="1" vertex="1">
          <mxGeometry x="620" y="942" width="120" height="60" as="geometry" />
        </mxCell>
        <mxCell id="h1DUvr0slZgetlB9KQDq-26" value="" style="edgeStyle=none;curved=1;rounded=0;orthogonalLoop=1;jettySize=auto;html=1;fontSize=12;startSize=8;endSize=8;endArrow=none;endFill=0;labelBackgroundColor=none;strokeColor=#736CA8;fontColor=default;" edge="1" parent="1" source="POtu942e6d3Yeao2YYhx-5" target="h1DUvr0slZgetlB9KQDq-6">
          <mxGeometry relative="1" as="geometry" />
        </mxCell>
        <mxCell id="5OpKkz8g2T8nN7vosSrc-2" value="" style="edgeStyle=none;curved=1;rounded=0;orthogonalLoop=1;jettySize=auto;html=1;fontSize=12;startSize=8;endSize=8;endArrow=none;endFill=0;labelBackgroundColor=none;strokeColor=#736CA8;fontColor=default;" edge="1" parent="1" source="POtu942e6d3Yeao2YYhx-5" target="h1DUvr0slZgetlB9KQDq-51">
          <mxGeometry relative="1" as="geometry" />
        </mxCell>
        <mxCell id="POtu942e6d3Yeao2YYhx-5" value="&lt;font style=&quot;vertical-align: inherit;&quot;&gt;&lt;font style=&quot;vertical-align: inherit;&quot;&gt;&lt;font style=&quot;vertical-align: inherit;&quot;&gt;&lt;font style=&quot;vertical-align: inherit;&quot;&gt;&lt;font style=&quot;vertical-align: inherit;&quot;&gt;&lt;font style=&quot;vertical-align: inherit;&quot;&gt;Consultas&lt;/font&gt;&lt;/font&gt;&lt;/font&gt;&lt;/font&gt;&lt;/font&gt;&lt;/font&gt;" style="rounded=0;whiteSpace=wrap;html=1;strokeColor=#D0CEE2;fontColor=#1A1A1A;fillColor=#5D7F99;labelBackgroundColor=none;" parent="1" vertex="1">
          <mxGeometry x="320" y="942" width="120" height="60" as="geometry" />
        </mxCell>
        <mxCell id="POtu942e6d3Yeao2YYhx-6" value="&lt;font style=&quot;vertical-align: inherit;&quot;&gt;&lt;font style=&quot;vertical-align: inherit;&quot;&gt;&lt;font style=&quot;vertical-align: inherit;&quot;&gt;&lt;font style=&quot;vertical-align: inherit;&quot;&gt;Prontuario&lt;/font&gt;&lt;/font&gt;&lt;/font&gt;&lt;/font&gt;" style="rounded=0;whiteSpace=wrap;html=1;strokeColor=#D0CEE2;fontColor=#1A1A1A;fillColor=#5D7F99;labelBackgroundColor=none;" parent="1" vertex="1">
          <mxGeometry x="320" y="1169" width="120" height="60" as="geometry" />
        </mxCell>
        <mxCell id="POtu942e6d3Yeao2YYhx-7" value="&lt;font style=&quot;vertical-align: inherit;&quot;&gt;&lt;font style=&quot;vertical-align: inherit;&quot;&gt;&lt;font style=&quot;vertical-align: inherit;&quot;&gt;&lt;font style=&quot;vertical-align: inherit;&quot;&gt;Clinica&lt;/font&gt;&lt;/font&gt;&lt;/font&gt;&lt;/font&gt;" style="rounded=0;whiteSpace=wrap;html=1;strokeColor=#D0CEE2;fontColor=#1A1A1A;fillColor=#5D7F99;labelBackgroundColor=none;" parent="1" vertex="1">
          <mxGeometry x="780" y="780" width="120" height="60" as="geometry" />
        </mxCell>
        <mxCell id="POtu942e6d3Yeao2YYhx-8" value="&lt;font style=&quot;vertical-align: inherit;&quot;&gt;&lt;font style=&quot;vertical-align: inherit;&quot;&gt;&lt;font style=&quot;vertical-align: inherit;&quot;&gt;&lt;font style=&quot;vertical-align: inherit;&quot;&gt;&lt;font style=&quot;vertical-align: inherit;&quot;&gt;&lt;font style=&quot;vertical-align: inherit;&quot;&gt;Especialidade&lt;/font&gt;&lt;/font&gt;&lt;/font&gt;&lt;/font&gt;&lt;/font&gt;&lt;/font&gt;" style="rounded=0;whiteSpace=wrap;html=1;strokeColor=#D0CEE2;fontColor=#1A1A1A;fillColor=#5D7F99;labelBackgroundColor=none;" parent="1" vertex="1">
          <mxGeometry x="620" y="1180" width="120" height="60" as="geometry" />
        </mxCell>
        <mxCell id="POtu942e6d3Yeao2YYhx-9" value="&lt;font style=&quot;vertical-align: inherit;&quot;&gt;&lt;font style=&quot;vertical-align: inherit;&quot;&gt;&lt;font style=&quot;vertical-align: inherit;&quot;&gt;&lt;font style=&quot;vertical-align: inherit;&quot;&gt;&lt;font style=&quot;vertical-align: inherit;&quot;&gt;&lt;font style=&quot;vertical-align: inherit;&quot;&gt;&lt;font style=&quot;vertical-align: inherit;&quot;&gt;&lt;font style=&quot;vertical-align: inherit;&quot;&gt;PresenÃ§aConsulta&lt;/font&gt;&lt;/font&gt;&lt;/font&gt;&lt;/font&gt;&lt;/font&gt;&lt;/font&gt;&lt;/font&gt;&lt;/font&gt;" style="rounded=0;whiteSpace=wrap;html=1;strokeColor=#D0CEE2;fontColor=#1A1A1A;fillColor=#5D7F99;labelBackgroundColor=none;" parent="1" vertex="1">
          <mxGeometry x="60" y="942" width="120" height="60" as="geometry" />
        </mxCell>
        <mxCell id="h1DUvr0slZgetlB9KQDq-21" style="edgeStyle=none;curved=1;rounded=0;orthogonalLoop=1;jettySize=auto;html=1;entryX=0.5;entryY=1;entryDx=0;entryDy=0;fontSize=12;startSize=8;endSize=8;endArrow=none;endFill=0;labelBackgroundColor=none;strokeColor=#736CA8;fontColor=default;" edge="1" parent="1" source="POtu942e6d3Yeao2YYhx-10" target="POtu942e6d3Yeao2YYhx-26">
          <mxGeometry relative="1" as="geometry" />
        </mxCell>
        <mxCell id="h1DUvr0slZgetlB9KQDq-22" value="" style="edgeStyle=none;curved=1;rounded=0;orthogonalLoop=1;jettySize=auto;html=1;fontSize=12;startSize=8;endSize=8;endArrow=none;endFill=0;labelBackgroundColor=none;strokeColor=#736CA8;fontColor=default;" edge="1" parent="1" source="POtu942e6d3Yeao2YYhx-10" target="OGR-90mgDnZzyUiVdJVN-1">
          <mxGeometry relative="1" as="geometry" />
        </mxCell>
        <mxCell id="POtu942e6d3Yeao2YYhx-10" value="&lt;font style=&quot;vertical-align: inherit;&quot;&gt;&lt;font style=&quot;vertical-align: inherit;&quot;&gt;&lt;font style=&quot;vertical-align: inherit;&quot;&gt;&lt;font style=&quot;vertical-align: inherit;&quot;&gt;&lt;font style=&quot;vertical-align: inherit;&quot;&gt;&lt;font style=&quot;vertical-align: inherit;&quot;&gt;&lt;font style=&quot;vertical-align: inherit;&quot;&gt;&lt;font style=&quot;vertical-align: inherit;&quot;&gt;&lt;font style=&quot;vertical-align: inherit;&quot;&gt;&lt;font style=&quot;vertical-align: inherit;&quot;&gt;Comentarios&lt;/font&gt;&lt;/font&gt;&lt;/font&gt;&lt;/font&gt;&lt;/font&gt;&lt;/font&gt;&lt;/font&gt;&lt;/font&gt;&lt;/font&gt;&lt;/font&gt;" style="rounded=0;whiteSpace=wrap;html=1;strokeColor=#D0CEE2;fontColor=#1A1A1A;fillColor=#5D7F99;labelBackgroundColor=none;" parent="1" vertex="1">
          <mxGeometry x="320" y="740" width="120" height="60" as="geometry" />
        </mxCell>
        <mxCell id="h1DUvr0slZgetlB9KQDq-8" value="" style="edgeStyle=none;curved=1;rounded=0;orthogonalLoop=1;jettySize=auto;html=1;fontSize=12;startSize=8;endSize=8;endArrow=none;endFill=0;labelBackgroundColor=none;strokeColor=#736CA8;fontColor=default;" edge="1" parent="1" source="POtu942e6d3Yeao2YYhx-11" target="POtu942e6d3Yeao2YYhx-3">
          <mxGeometry relative="1" as="geometry" />
        </mxCell>
        <mxCell id="POtu942e6d3Yeao2YYhx-11" value="&lt;font style=&quot;vertical-align: inherit;&quot;&gt;&lt;font style=&quot;vertical-align: inherit;&quot;&gt;possui&lt;/font&gt;&lt;/font&gt;" style="rhombus;whiteSpace=wrap;html=1;strokeColor=#D0CEE2;fontColor=#1A1A1A;fillColor=#5D7F99;labelBackgroundColor=none;" parent="1" vertex="1">
          <mxGeometry x="200" y="310" width="80" height="80" as="geometry" />
        </mxCell>
        <mxCell id="h1DUvr0slZgetlB9KQDq-29" style="edgeStyle=none;curved=1;rounded=0;orthogonalLoop=1;jettySize=auto;html=1;entryX=0.5;entryY=0;entryDx=0;entryDy=0;fontSize=12;startSize=8;endSize=8;endArrow=none;endFill=0;labelBackgroundColor=none;strokeColor=#736CA8;fontColor=default;" edge="1" parent="1" source="POtu942e6d3Yeao2YYhx-14" target="POtu942e6d3Yeao2YYhx-9">
          <mxGeometry relative="1" as="geometry" />
        </mxCell>
        <mxCell id="POtu942e6d3Yeao2YYhx-14" value="&lt;font style=&quot;vertical-align: inherit;&quot;&gt;&lt;font style=&quot;vertical-align: inherit;&quot;&gt;possui&lt;/font&gt;&lt;/font&gt;" style="rhombus;whiteSpace=wrap;html=1;strokeColor=#D0CEE2;fontColor=#1A1A1A;fillColor=#5D7F99;labelBackgroundColor=none;" parent="1" vertex="1">
          <mxGeometry x="80" y="530" width="80" height="80" as="geometry" />
        </mxCell>
        <mxCell id="h1DUvr0slZgetlB9KQDq-10" value="" style="edgeStyle=none;curved=1;rounded=0;orthogonalLoop=1;jettySize=auto;html=1;fontSize=12;startSize=8;endSize=8;endArrow=none;endFill=0;labelBackgroundColor=none;strokeColor=#736CA8;fontColor=default;" edge="1" parent="1" source="POtu942e6d3Yeao2YYhx-18" target="POtu942e6d3Yeao2YYhx-4">
          <mxGeometry relative="1" as="geometry" />
        </mxCell>
        <mxCell id="POtu942e6d3Yeao2YYhx-18" value="&lt;font style=&quot;vertical-align: inherit;&quot;&gt;&lt;font style=&quot;vertical-align: inherit;&quot;&gt;possui&lt;/font&gt;&lt;/font&gt;" style="rhombus;whiteSpace=wrap;html=1;strokeColor=#D0CEE2;fontColor=#1A1A1A;fillColor=#5D7F99;labelBackgroundColor=none;" parent="1" vertex="1">
          <mxGeometry x="640" y="310" width="80" height="80" as="geometry" />
        </mxCell>
        <mxCell id="h1DUvr0slZgetlB9KQDq-24" value="" style="edgeStyle=none;curved=1;rounded=0;orthogonalLoop=1;jettySize=auto;html=1;fontSize=12;startSize=8;endSize=8;endArrow=none;endFill=0;labelBackgroundColor=none;strokeColor=#736CA8;fontColor=default;" edge="1" parent="1" source="POtu942e6d3Yeao2YYhx-23" target="POtu942e6d3Yeao2YYhx-5">
          <mxGeometry relative="1" as="geometry" />
        </mxCell>
        <mxCell id="h1DUvr0slZgetlB9KQDq-25" value="" style="edgeStyle=none;curved=1;rounded=0;orthogonalLoop=1;jettySize=auto;html=1;fontSize=12;startSize=8;endSize=8;endArrow=none;endFill=0;labelBackgroundColor=none;strokeColor=#736CA8;fontColor=default;" edge="1" parent="1" source="POtu942e6d3Yeao2YYhx-23" target="POtu942e6d3Yeao2YYhx-9">
          <mxGeometry relative="1" as="geometry" />
        </mxCell>
        <mxCell id="POtu942e6d3Yeao2YYhx-23" value="&lt;font style=&quot;vertical-align: inherit;&quot;&gt;&lt;font style=&quot;vertical-align: inherit;&quot;&gt;possui&lt;/font&gt;&lt;/font&gt;" style="rhombus;whiteSpace=wrap;html=1;strokeColor=#D0CEE2;fontColor=#1A1A1A;fillColor=#5D7F99;labelBackgroundColor=none;" parent="1" vertex="1">
          <mxGeometry x="210" y="932" width="80" height="80" as="geometry" />
        </mxCell>
        <mxCell id="POtu942e6d3Yeao2YYhx-26" value="&lt;font style=&quot;vertical-align: inherit;&quot;&gt;&lt;font style=&quot;vertical-align: inherit;&quot;&gt;possui&lt;/font&gt;&lt;/font&gt;" style="rhombus;whiteSpace=wrap;html=1;strokeColor=#D0CEE2;fontColor=#1A1A1A;fillColor=#5D7F99;labelBackgroundColor=none;" parent="1" vertex="1">
          <mxGeometry x="340" y="630" width="80" height="80" as="geometry" />
        </mxCell>
        <mxCell id="h1DUvr0slZgetlB9KQDq-13" value="" style="edgeStyle=none;curved=1;rounded=0;orthogonalLoop=1;jettySize=auto;html=1;fontSize=12;startSize=8;endSize=8;endArrow=none;endFill=0;labelBackgroundColor=none;strokeColor=#736CA8;fontColor=default;" edge="1" parent="1" source="POtu942e6d3Yeao2YYhx-31" target="POtu942e6d3Yeao2YYhx-7">
          <mxGeometry relative="1" as="geometry" />
        </mxCell>
        <mxCell id="POtu942e6d3Yeao2YYhx-31" value="&lt;font style=&quot;vertical-align: inherit;&quot;&gt;&lt;font style=&quot;vertical-align: inherit;&quot;&gt;possui&lt;/font&gt;&lt;/font&gt;" style="rhombus;whiteSpace=wrap;html=1;strokeColor=#D0CEE2;fontColor=#1A1A1A;fillColor=#5D7F99;labelBackgroundColor=none;" parent="1" vertex="1">
          <mxGeometry x="800" y="932" width="80" height="80" as="geometry" />
        </mxCell>
        <mxCell id="h1DUvr0slZgetlB9KQDq-15" value="" style="edgeStyle=none;curved=1;rounded=0;orthogonalLoop=1;jettySize=auto;html=1;fontSize=12;startSize=8;endSize=8;endArrow=none;endFill=0;labelBackgroundColor=none;strokeColor=#736CA8;fontColor=default;" edge="1" parent="1" source="POtu942e6d3Yeao2YYhx-49" target="POtu942e6d3Yeao2YYhx-8">
          <mxGeometry relative="1" as="geometry" />
        </mxCell>
        <mxCell id="POtu942e6d3Yeao2YYhx-49" value="possui" style="rhombus;whiteSpace=wrap;html=1;strokeColor=#D0CEE2;fontColor=#1A1A1A;fillColor=#5D7F99;labelBackgroundColor=none;" parent="1" vertex="1">
          <mxGeometry x="640" y="1050" width="80" height="80" as="geometry" />
        </mxCell>
        <mxCell id="h1DUvr0slZgetlB9KQDq-23" value="" style="edgeStyle=none;curved=1;rounded=0;orthogonalLoop=1;jettySize=auto;html=1;fontSize=12;startSize=8;endSize=8;endArrow=none;endFill=0;labelBackgroundColor=none;strokeColor=#736CA8;fontColor=default;" edge="1" parent="1" source="OGR-90mgDnZzyUiVdJVN-1" target="POtu942e6d3Yeao2YYhx-5">
          <mxGeometry relative="1" as="geometry" />
        </mxCell>
        <mxCell id="OGR-90mgDnZzyUiVdJVN-1" value="&lt;font style=&quot;vertical-align: inherit;&quot;&gt;&lt;font style=&quot;vertical-align: inherit;&quot;&gt;possui&lt;/font&gt;&lt;/font&gt;" style="rhombus;whiteSpace=wrap;html=1;strokeColor=#D0CEE2;fontColor=#1A1A1A;fillColor=#5D7F99;labelBackgroundColor=none;" vertex="1" parent="1">
          <mxGeometry x="340" y="822" width="80" height="80" as="geometry" />
        </mxCell>
        <mxCell id="h1DUvr0slZgetlB9KQDq-18" value="" style="edgeStyle=none;curved=1;rounded=0;orthogonalLoop=1;jettySize=auto;html=1;fontSize=12;startSize=8;endSize=8;endArrow=none;endFill=0;labelBackgroundColor=none;strokeColor=#736CA8;fontColor=default;" edge="1" parent="1" source="h1DUvr0slZgetlB9KQDq-3" target="POtu942e6d3Yeao2YYhx-26">
          <mxGeometry relative="1" as="geometry" />
        </mxCell>
        <mxCell id="h1DUvr0slZgetlB9KQDq-28" style="edgeStyle=none;curved=1;rounded=0;orthogonalLoop=1;jettySize=auto;html=1;entryX=1;entryY=0.5;entryDx=0;entryDy=0;fontSize=12;startSize=8;endSize=8;endArrow=none;endFill=0;labelBackgroundColor=none;strokeColor=#736CA8;fontColor=default;" edge="1" parent="1" source="h1DUvr0slZgetlB9KQDq-3" target="POtu942e6d3Yeao2YYhx-14">
          <mxGeometry relative="1" as="geometry" />
        </mxCell>
        <mxCell id="h1DUvr0slZgetlB9KQDq-3" value="&lt;font style=&quot;vertical-align: inherit;&quot;&gt;&lt;font style=&quot;vertical-align: inherit;&quot;&gt;&lt;font style=&quot;vertical-align: inherit;&quot;&gt;&lt;font style=&quot;vertical-align: inherit;&quot;&gt;Paciente&lt;/font&gt;&lt;/font&gt;&lt;/font&gt;&lt;/font&gt;" style="rounded=0;whiteSpace=wrap;html=1;strokeColor=#D0CEE2;fontColor=#1A1A1A;fillColor=#5D7F99;labelBackgroundColor=none;" vertex="1" parent="1">
          <mxGeometry x="320" y="540" width="120" height="60" as="geometry" />
        </mxCell>
        <mxCell id="h1DUvr0slZgetlB9KQDq-17" value="" style="edgeStyle=none;curved=1;rounded=0;orthogonalLoop=1;jettySize=auto;html=1;fontSize=12;startSize=8;endSize=8;endArrow=none;endFill=0;labelBackgroundColor=none;strokeColor=#736CA8;fontColor=default;" edge="1" parent="1" source="h1DUvr0slZgetlB9KQDq-5" target="h1DUvr0slZgetlB9KQDq-3">
          <mxGeometry relative="1" as="geometry" />
        </mxCell>
        <mxCell id="h1DUvr0slZgetlB9KQDq-5" value="&lt;font style=&quot;vertical-align: inherit;&quot;&gt;&lt;font style=&quot;vertical-align: inherit;&quot;&gt;possui&lt;/font&gt;&lt;/font&gt;" style="rhombus;whiteSpace=wrap;html=1;strokeColor=#D0CEE2;fontColor=#1A1A1A;fillColor=#5D7F99;labelBackgroundColor=none;" vertex="1" parent="1">
          <mxGeometry x="340" y="420" width="80" height="80" as="geometry" />
        </mxCell>
        <mxCell id="h1DUvr0slZgetlB9KQDq-27" value="" style="edgeStyle=none;curved=1;rounded=0;orthogonalLoop=1;jettySize=auto;html=1;fontSize=12;startSize=8;endSize=8;endArrow=none;endFill=0;labelBackgroundColor=none;strokeColor=#736CA8;fontColor=default;" edge="1" parent="1" source="h1DUvr0slZgetlB9KQDq-6" target="POtu942e6d3Yeao2YYhx-6">
          <mxGeometry relative="1" as="geometry" />
        </mxCell>
        <mxCell id="h1DUvr0slZgetlB9KQDq-6" value="possui" style="rhombus;whiteSpace=wrap;html=1;strokeColor=#D0CEE2;fontColor=#1A1A1A;fillColor=#5D7F99;labelBackgroundColor=none;" vertex="1" parent="1">
          <mxGeometry x="340" y="1040" width="80" height="80" as="geometry" />
        </mxCell>
        <mxCell id="h1DUvr0slZgetlB9KQDq-30" value="1" style="text;html=1;align=center;verticalAlign=middle;resizable=0;points=[];autosize=1;strokeColor=none;fillColor=none;fontSize=16;labelBackgroundColor=none;fontColor=#1A1A1A;" vertex="1" parent="1">
          <mxGeometry x="160" y="320" width="30" height="30" as="geometry" />
        </mxCell>
        <mxCell id="h1DUvr0slZgetlB9KQDq-31" value="N" style="text;html=1;align=center;verticalAlign=middle;resizable=0;points=[];autosize=1;strokeColor=none;fillColor=none;fontSize=16;labelBackgroundColor=none;fontColor=#1A1A1A;" vertex="1" parent="1">
          <mxGeometry x="280" y="320" width="40" height="30" as="geometry" />
        </mxCell>
        <mxCell id="h1DUvr0slZgetlB9KQDq-32" value="1" style="text;html=1;align=center;verticalAlign=middle;resizable=0;points=[];autosize=1;strokeColor=none;fillColor=none;fontSize=16;labelBackgroundColor=none;fontColor=#1A1A1A;" vertex="1" parent="1">
          <mxGeometry x="379" y="380" width="30" height="30" as="geometry" />
        </mxCell>
        <mxCell id="h1DUvr0slZgetlB9KQDq-33" value="N" style="text;html=1;align=center;verticalAlign=middle;resizable=0;points=[];autosize=1;strokeColor=none;fillColor=none;fontSize=16;labelBackgroundColor=none;fontColor=#1A1A1A;" vertex="1" parent="1">
          <mxGeometry x="374" y="510" width="40" height="30" as="geometry" />
        </mxCell>
        <mxCell id="h1DUvr0slZgetlB9KQDq-34" value="1" style="text;html=1;align=center;verticalAlign=middle;resizable=0;points=[];autosize=1;strokeColor=none;fillColor=none;fontSize=16;labelBackgroundColor=none;fontColor=#1A1A1A;" vertex="1" parent="1">
          <mxGeometry x="685" y="1150" width="30" height="30" as="geometry" />
        </mxCell>
        <mxCell id="h1DUvr0slZgetlB9KQDq-35" value="N" style="text;html=1;align=center;verticalAlign=middle;resizable=0;points=[];autosize=1;strokeColor=none;fillColor=none;fontSize=16;labelBackgroundColor=none;fontColor=#1A1A1A;" vertex="1" parent="1">
          <mxGeometry x="645" y="912" width="40" height="30" as="geometry" />
        </mxCell>
        <mxCell id="h1DUvr0slZgetlB9KQDq-36" value="1" style="text;html=1;align=center;verticalAlign=middle;resizable=0;points=[];autosize=1;strokeColor=none;fillColor=none;fontSize=16;labelBackgroundColor=none;fontColor=#1A1A1A;" vertex="1" parent="1">
          <mxGeometry x="440" y="320" width="30" height="30" as="geometry" />
        </mxCell>
        <mxCell id="h1DUvr0slZgetlB9KQDq-37" value="N" style="text;html=1;align=center;verticalAlign=middle;resizable=0;points=[];autosize=1;strokeColor=none;fillColor=none;fontSize=16;labelBackgroundColor=none;fontColor=#1A1A1A;" vertex="1" parent="1">
          <mxGeometry x="680" y="1000" width="40" height="30" as="geometry" />
        </mxCell>
        <mxCell id="h1DUvr0slZgetlB9KQDq-38" value="1" style="text;html=1;align=center;verticalAlign=middle;resizable=0;points=[];autosize=1;strokeColor=none;fillColor=none;fontSize=16;labelBackgroundColor=none;fontColor=#1A1A1A;" vertex="1" parent="1">
          <mxGeometry x="840" y="840" width="30" height="30" as="geometry" />
        </mxCell>
        <mxCell id="h1DUvr0slZgetlB9KQDq-39" value="N" style="text;html=1;align=center;verticalAlign=middle;resizable=0;points=[];autosize=1;strokeColor=none;fillColor=none;fontSize=16;labelBackgroundColor=none;fontColor=#1A1A1A;" vertex="1" parent="1">
          <mxGeometry x="740" y="942" width="40" height="30" as="geometry" />
        </mxCell>
        <mxCell id="h1DUvr0slZgetlB9KQDq-40" value="1" style="text;html=1;align=center;verticalAlign=middle;resizable=0;points=[];autosize=1;strokeColor=none;fillColor=none;fontSize=16;labelBackgroundColor=none;fontColor=#1A1A1A;" vertex="1" parent="1">
          <mxGeometry x="290" y="540" width="30" height="30" as="geometry" />
        </mxCell>
        <mxCell id="h1DUvr0slZgetlB9KQDq-41" value="N" style="text;html=1;align=center;verticalAlign=middle;resizable=0;points=[];autosize=1;strokeColor=none;fillColor=none;fontSize=16;labelBackgroundColor=none;fontColor=#1A1A1A;" vertex="1" parent="1">
          <mxGeometry x="120" y="912" width="40" height="30" as="geometry" />
        </mxCell>
        <mxCell id="h1DUvr0slZgetlB9KQDq-42" value="N" style="text;html=1;align=center;verticalAlign=middle;resizable=0;points=[];autosize=1;strokeColor=none;fillColor=none;fontSize=16;labelBackgroundColor=none;fontColor=#1A1A1A;" vertex="1" parent="1">
          <mxGeometry x="170" y="942" width="40" height="30" as="geometry" />
        </mxCell>
        <mxCell id="h1DUvr0slZgetlB9KQDq-43" value="1" style="text;html=1;align=center;verticalAlign=middle;resizable=0;points=[];autosize=1;strokeColor=none;fillColor=none;fontSize=16;labelBackgroundColor=none;fontColor=#1A1A1A;" vertex="1" parent="1">
          <mxGeometry x="290" y="942" width="30" height="30" as="geometry" />
        </mxCell>
        <mxCell id="h1DUvr0slZgetlB9KQDq-44" value="1" style="text;html=1;align=center;verticalAlign=middle;resizable=0;points=[];autosize=1;strokeColor=none;fillColor=none;fontSize=16;labelBackgroundColor=none;fontColor=#1A1A1A;" vertex="1" parent="1">
          <mxGeometry x="379" y="600" width="30" height="30" as="geometry" />
        </mxCell>
        <mxCell id="h1DUvr0slZgetlB9KQDq-45" value="N" style="text;html=1;align=center;verticalAlign=middle;resizable=0;points=[];autosize=1;strokeColor=none;fillColor=none;fontSize=16;labelBackgroundColor=none;fontColor=#1A1A1A;" vertex="1" parent="1">
          <mxGeometry x="379" y="710" width="40" height="30" as="geometry" />
        </mxCell>
        <mxCell id="h1DUvr0slZgetlB9KQDq-46" value="1" style="text;html=1;align=center;verticalAlign=middle;resizable=0;points=[];autosize=1;strokeColor=none;fillColor=none;fontSize=16;labelBackgroundColor=none;fontColor=#1A1A1A;" vertex="1" parent="1">
          <mxGeometry x="379" y="918" width="30" height="30" as="geometry" />
        </mxCell>
        <mxCell id="h1DUvr0slZgetlB9KQDq-47" value="N" style="text;html=1;align=center;verticalAlign=middle;resizable=0;points=[];autosize=1;strokeColor=none;fillColor=none;fontSize=16;labelBackgroundColor=none;fontColor=#1A1A1A;" vertex="1" parent="1">
          <mxGeometry x="379" y="800" width="40" height="30" as="geometry" />
        </mxCell>
        <mxCell id="h1DUvr0slZgetlB9KQDq-48" value="1" style="text;html=1;align=center;verticalAlign=middle;resizable=0;points=[];autosize=1;strokeColor=none;fillColor=none;fontSize=16;labelBackgroundColor=none;fontColor=#1A1A1A;" vertex="1" parent="1">
          <mxGeometry x="380" y="1000" width="30" height="30" as="geometry" />
        </mxCell>
        <mxCell id="h1DUvr0slZgetlB9KQDq-49" value="N" style="text;html=1;align=center;verticalAlign=middle;resizable=0;points=[];autosize=1;strokeColor=none;fillColor=none;fontSize=16;labelBackgroundColor=none;fontColor=#1A1A1A;" vertex="1" parent="1">
          <mxGeometry x="380" y="1139" width="40" height="30" as="geometry" />
        </mxCell>
        <mxCell id="5OpKkz8g2T8nN7vosSrc-3" value="" style="edgeStyle=none;curved=1;rounded=0;orthogonalLoop=1;jettySize=auto;html=1;fontSize=12;startSize=8;endSize=8;endArrow=none;endFill=0;labelBackgroundColor=none;strokeColor=#736CA8;fontColor=default;" edge="1" parent="1" source="h1DUvr0slZgetlB9KQDq-51" target="POtu942e6d3Yeao2YYhx-4">
          <mxGeometry relative="1" as="geometry" />
        </mxCell>
        <mxCell id="h1DUvr0slZgetlB9KQDq-51" value="possui" style="rhombus;whiteSpace=wrap;html=1;strokeColor=#D0CEE2;fontColor=#1A1A1A;fillColor=#5D7F99;labelBackgroundColor=none;" vertex="1" parent="1">
          <mxGeometry x="490" y="932" width="80" height="80" as="geometry" />
        </mxCell>
        <mxCell id="5OpKkz8g2T8nN7vosSrc-4" value="1" style="text;html=1;align=center;verticalAlign=middle;resizable=0;points=[];autosize=1;strokeColor=none;fillColor=none;fontSize=16;labelBackgroundColor=none;fontColor=#1A1A1A;" vertex="1" parent="1">
          <mxGeometry x="590" y="942" width="30" height="30" as="geometry" />
        </mxCell>
        <mxCell id="5OpKkz8g2T8nN7vosSrc-5" value="N" style="text;html=1;align=center;verticalAlign=middle;resizable=0;points=[];autosize=1;strokeColor=none;fillColor=none;fontSize=16;labelBackgroundColor=none;fontColor=#1A1A1A;" vertex="1" parent="1">
          <mxGeometry x="440" y="942" width="40" height="30" as="geometry" />
        </mxCell>
      </root>
    </mxGraphModel>
  </diagram>
  <diagram id="l_BEFwDr-KEg4OuB25TK" name="PÃ¡gina-2">
    <mxGraphModel dx="2443" dy="927" grid="1" gridSize="10" guides="1" tooltips="1" connect="1" arrows="1" fold="1" page="1" pageScale="1" pageWidth="827" pageHeight="1169" math="0" shadow="0">
      <root>
        <mxCell id="0" />
        <mxCell id="1" parent="0" />
        <mxCell id="UGhV_TyL9upz_DpbScVM-2" value="TiposDeUsuario" style="shape=table;startSize=30;container=1;collapsible=1;childLayout=tableLayout;fixedRows=1;rowLines=0;fontStyle=1;align=center;resizeLast=1;html=1;strokeColor=#D0CEE2;fontColor=#1A1A1A;fillColor=#5D7F99;labelBackgroundColor=none;" parent="1" vertex="1">
          <mxGeometry x="40" y="50" width="180" height="90" as="geometry" />
        </mxCell>
        <mxCell id="UGhV_TyL9upz_DpbScVM-3" value="" style="shape=tableRow;horizontal=0;startSize=0;swimlaneHead=0;swimlaneBody=0;fillColor=none;collapsible=0;dropTarget=0;points=[[0,0.5],[1,0.5]];portConstraint=eastwest;top=0;left=0;right=0;bottom=1;strokeColor=#D0CEE2;fontColor=#1A1A1A;labelBackgroundColor=none;" parent="UGhV_TyL9upz_DpbScVM-2" vertex="1">
          <mxGeometry y="30" width="180" height="30" as="geometry" />
        </mxCell>
        <mxCell id="UGhV_TyL9upz_DpbScVM-4" value="PK" style="shape=partialRectangle;connectable=0;fillColor=none;top=0;left=0;bottom=0;right=0;fontStyle=1;overflow=hidden;whiteSpace=wrap;html=1;strokeColor=#D0CEE2;fontColor=#1A1A1A;labelBackgroundColor=none;" parent="UGhV_TyL9upz_DpbScVM-3" vertex="1">
          <mxGeometry width="30" height="30" as="geometry">
            <mxRectangle width="30" height="30" as="alternateBounds" />
          </mxGeometry>
        </mxCell>
        <mxCell id="UGhV_TyL9upz_DpbScVM-5" value="IdTipoDeUsuario" style="shape=partialRectangle;connectable=0;fillColor=none;top=0;left=0;bottom=0;right=0;align=left;spacingLeft=6;fontStyle=5;overflow=hidden;whiteSpace=wrap;html=1;strokeColor=#D0CEE2;fontColor=#1A1A1A;labelBackgroundColor=none;" parent="UGhV_TyL9upz_DpbScVM-3" vertex="1">
          <mxGeometry x="30" width="150" height="30" as="geometry">
            <mxRectangle width="150" height="30" as="alternateBounds" />
          </mxGeometry>
        </mxCell>
        <mxCell id="UGhV_TyL9upz_DpbScVM-6" value="" style="shape=tableRow;horizontal=0;startSize=0;swimlaneHead=0;swimlaneBody=0;fillColor=none;collapsible=0;dropTarget=0;points=[[0,0.5],[1,0.5]];portConstraint=eastwest;top=0;left=0;right=0;bottom=0;strokeColor=#D0CEE2;fontColor=#1A1A1A;labelBackgroundColor=none;" parent="UGhV_TyL9upz_DpbScVM-2" vertex="1">
          <mxGeometry y="60" width="180" height="30" as="geometry" />
        </mxCell>
        <mxCell id="UGhV_TyL9upz_DpbScVM-7" value="" style="shape=partialRectangle;connectable=0;fillColor=none;top=0;left=0;bottom=0;right=0;editable=1;overflow=hidden;whiteSpace=wrap;html=1;strokeColor=#D0CEE2;fontColor=#1A1A1A;labelBackgroundColor=none;" parent="UGhV_TyL9upz_DpbScVM-6" vertex="1">
          <mxGeometry width="30" height="30" as="geometry">
            <mxRectangle width="30" height="30" as="alternateBounds" />
          </mxGeometry>
        </mxCell>
        <mxCell id="UGhV_TyL9upz_DpbScVM-8" value="TituloTipoDeUsuario" style="shape=partialRectangle;connectable=0;fillColor=none;top=0;left=0;bottom=0;right=0;align=left;spacingLeft=6;overflow=hidden;whiteSpace=wrap;html=1;strokeColor=#D0CEE2;fontColor=#1A1A1A;labelBackgroundColor=none;" parent="UGhV_TyL9upz_DpbScVM-6" vertex="1">
          <mxGeometry x="30" width="150" height="30" as="geometry">
            <mxRectangle width="150" height="30" as="alternateBounds" />
          </mxGeometry>
        </mxCell>
        <mxCell id="j9YKCEQZaplh8smazgqn-1" value="Especialidades" style="shape=table;startSize=30;container=1;collapsible=1;childLayout=tableLayout;fixedRows=1;rowLines=0;fontStyle=1;align=center;resizeLast=1;html=1;strokeColor=#D0CEE2;fontColor=#1A1A1A;fillColor=#5D7F99;labelBackgroundColor=none;" parent="1" vertex="1">
          <mxGeometry x="670" y="760" width="180" height="90" as="geometry" />
        </mxCell>
        <mxCell id="j9YKCEQZaplh8smazgqn-2" value="" style="shape=tableRow;horizontal=0;startSize=0;swimlaneHead=0;swimlaneBody=0;fillColor=none;collapsible=0;dropTarget=0;points=[[0,0.5],[1,0.5]];portConstraint=eastwest;top=0;left=0;right=0;bottom=1;strokeColor=#D0CEE2;fontColor=#1A1A1A;labelBackgroundColor=none;" parent="j9YKCEQZaplh8smazgqn-1" vertex="1">
          <mxGeometry y="30" width="180" height="30" as="geometry" />
        </mxCell>
        <mxCell id="j9YKCEQZaplh8smazgqn-3" value="PK" style="shape=partialRectangle;connectable=0;fillColor=none;top=0;left=0;bottom=0;right=0;fontStyle=1;overflow=hidden;whiteSpace=wrap;html=1;strokeColor=#D0CEE2;fontColor=#1A1A1A;labelBackgroundColor=none;" parent="j9YKCEQZaplh8smazgqn-2" vertex="1">
          <mxGeometry width="30" height="30" as="geometry">
            <mxRectangle width="30" height="30" as="alternateBounds" />
          </mxGeometry>
        </mxCell>
        <mxCell id="j9YKCEQZaplh8smazgqn-4" value="IdEspecialidade" style="shape=partialRectangle;connectable=0;fillColor=none;top=0;left=0;bottom=0;right=0;align=left;spacingLeft=6;fontStyle=5;overflow=hidden;whiteSpace=wrap;html=1;strokeColor=#D0CEE2;fontColor=#1A1A1A;labelBackgroundColor=none;" parent="j9YKCEQZaplh8smazgqn-2" vertex="1">
          <mxGeometry x="30" width="150" height="30" as="geometry">
            <mxRectangle width="150" height="30" as="alternateBounds" />
          </mxGeometry>
        </mxCell>
        <mxCell id="j9YKCEQZaplh8smazgqn-5" value="" style="shape=tableRow;horizontal=0;startSize=0;swimlaneHead=0;swimlaneBody=0;fillColor=none;collapsible=0;dropTarget=0;points=[[0,0.5],[1,0.5]];portConstraint=eastwest;top=0;left=0;right=0;bottom=0;strokeColor=#D0CEE2;fontColor=#1A1A1A;labelBackgroundColor=none;" parent="j9YKCEQZaplh8smazgqn-1" vertex="1">
          <mxGeometry y="60" width="180" height="30" as="geometry" />
        </mxCell>
        <mxCell id="j9YKCEQZaplh8smazgqn-6" value="" style="shape=partialRectangle;connectable=0;fillColor=none;top=0;left=0;bottom=0;right=0;editable=1;overflow=hidden;whiteSpace=wrap;html=1;strokeColor=#D0CEE2;fontColor=#1A1A1A;labelBackgroundColor=none;" parent="j9YKCEQZaplh8smazgqn-5" vertex="1">
          <mxGeometry width="30" height="30" as="geometry">
            <mxRectangle width="30" height="30" as="alternateBounds" />
          </mxGeometry>
        </mxCell>
        <mxCell id="j9YKCEQZaplh8smazgqn-7" value="TituloEspecialidade" style="shape=partialRectangle;connectable=0;fillColor=none;top=0;left=0;bottom=0;right=0;align=left;spacingLeft=6;overflow=hidden;whiteSpace=wrap;html=1;strokeColor=#D0CEE2;fontColor=#1A1A1A;labelBackgroundColor=none;" parent="j9YKCEQZaplh8smazgqn-5" vertex="1">
          <mxGeometry x="30" width="150" height="30" as="geometry">
            <mxRectangle width="150" height="30" as="alternateBounds" />
          </mxGeometry>
        </mxCell>
        <mxCell id="j9YKCEQZaplh8smazgqn-8" value="Clinica" style="shape=table;startSize=30;container=1;collapsible=1;childLayout=tableLayout;fixedRows=1;rowLines=0;fontStyle=1;align=center;resizeLast=1;html=1;strokeColor=#D0CEE2;fontColor=#1A1A1A;fillColor=#5D7F99;labelBackgroundColor=none;" parent="1" vertex="1">
          <mxGeometry x="670" y="500" width="180" height="240" as="geometry" />
        </mxCell>
        <mxCell id="j9YKCEQZaplh8smazgqn-9" value="" style="shape=tableRow;horizontal=0;startSize=0;swimlaneHead=0;swimlaneBody=0;fillColor=none;collapsible=0;dropTarget=0;points=[[0,0.5],[1,0.5]];portConstraint=eastwest;top=0;left=0;right=0;bottom=1;strokeColor=#D0CEE2;fontColor=#1A1A1A;labelBackgroundColor=none;" parent="j9YKCEQZaplh8smazgqn-8" vertex="1">
          <mxGeometry y="30" width="180" height="30" as="geometry" />
        </mxCell>
        <mxCell id="j9YKCEQZaplh8smazgqn-10" value="PK" style="shape=partialRectangle;connectable=0;fillColor=none;top=0;left=0;bottom=0;right=0;fontStyle=1;overflow=hidden;whiteSpace=wrap;html=1;strokeColor=#D0CEE2;fontColor=#1A1A1A;labelBackgroundColor=none;" parent="j9YKCEQZaplh8smazgqn-9" vertex="1">
          <mxGeometry width="30" height="30" as="geometry">
            <mxRectangle width="30" height="30" as="alternateBounds" />
          </mxGeometry>
        </mxCell>
        <mxCell id="j9YKCEQZaplh8smazgqn-11" value="IdClinica" style="shape=partialRectangle;connectable=0;fillColor=none;top=0;left=0;bottom=0;right=0;align=left;spacingLeft=6;fontStyle=5;overflow=hidden;whiteSpace=wrap;html=1;strokeColor=#D0CEE2;fontColor=#1A1A1A;labelBackgroundColor=none;" parent="j9YKCEQZaplh8smazgqn-9" vertex="1">
          <mxGeometry x="30" width="150" height="30" as="geometry">
            <mxRectangle width="150" height="30" as="alternateBounds" />
          </mxGeometry>
        </mxCell>
        <mxCell id="j9YKCEQZaplh8smazgqn-12" value="" style="shape=tableRow;horizontal=0;startSize=0;swimlaneHead=0;swimlaneBody=0;fillColor=none;collapsible=0;dropTarget=0;points=[[0,0.5],[1,0.5]];portConstraint=eastwest;top=0;left=0;right=0;bottom=0;strokeColor=#D0CEE2;fontColor=#1A1A1A;labelBackgroundColor=none;" parent="j9YKCEQZaplh8smazgqn-8" vertex="1">
          <mxGeometry y="60" width="180" height="30" as="geometry" />
        </mxCell>
        <mxCell id="j9YKCEQZaplh8smazgqn-13" value="" style="shape=partialRectangle;connectable=0;fillColor=none;top=0;left=0;bottom=0;right=0;editable=1;overflow=hidden;whiteSpace=wrap;html=1;strokeColor=#D0CEE2;fontColor=#1A1A1A;labelBackgroundColor=none;" parent="j9YKCEQZaplh8smazgqn-12" vertex="1">
          <mxGeometry width="30" height="30" as="geometry">
            <mxRectangle width="30" height="30" as="alternateBounds" />
          </mxGeometry>
        </mxCell>
        <mxCell id="j9YKCEQZaplh8smazgqn-14" value="RazaoSocial" style="shape=partialRectangle;connectable=0;fillColor=none;top=0;left=0;bottom=0;right=0;align=left;spacingLeft=6;overflow=hidden;whiteSpace=wrap;html=1;strokeColor=#D0CEE2;fontColor=#1A1A1A;labelBackgroundColor=none;" parent="j9YKCEQZaplh8smazgqn-12" vertex="1">
          <mxGeometry x="30" width="150" height="30" as="geometry">
            <mxRectangle width="150" height="30" as="alternateBounds" />
          </mxGeometry>
        </mxCell>
        <mxCell id="m8hBr9GZl_cZNE7fIZ4l-1" style="shape=tableRow;horizontal=0;startSize=0;swimlaneHead=0;swimlaneBody=0;fillColor=none;collapsible=0;dropTarget=0;points=[[0,0.5],[1,0.5]];portConstraint=eastwest;top=0;left=0;right=0;bottom=0;strokeColor=#D0CEE2;fontColor=#1A1A1A;labelBackgroundColor=none;" parent="j9YKCEQZaplh8smazgqn-8" vertex="1">
          <mxGeometry y="90" width="180" height="30" as="geometry" />
        </mxCell>
        <mxCell id="m8hBr9GZl_cZNE7fIZ4l-2" style="shape=partialRectangle;connectable=0;fillColor=none;top=0;left=0;bottom=0;right=0;editable=1;overflow=hidden;whiteSpace=wrap;html=1;strokeColor=#D0CEE2;fontColor=#1A1A1A;labelBackgroundColor=none;" parent="m8hBr9GZl_cZNE7fIZ4l-1" vertex="1">
          <mxGeometry width="30" height="30" as="geometry">
            <mxRectangle width="30" height="30" as="alternateBounds" />
          </mxGeometry>
        </mxCell>
        <mxCell id="m8hBr9GZl_cZNE7fIZ4l-3" value="NomeFantasia" style="shape=partialRectangle;connectable=0;fillColor=none;top=0;left=0;bottom=0;right=0;align=left;spacingLeft=6;overflow=hidden;whiteSpace=wrap;html=1;strokeColor=#D0CEE2;fontColor=#1A1A1A;labelBackgroundColor=none;" parent="m8hBr9GZl_cZNE7fIZ4l-1" vertex="1">
          <mxGeometry x="30" width="150" height="30" as="geometry">
            <mxRectangle width="150" height="30" as="alternateBounds" />
          </mxGeometry>
        </mxCell>
        <mxCell id="m8hBr9GZl_cZNE7fIZ4l-4" style="shape=tableRow;horizontal=0;startSize=0;swimlaneHead=0;swimlaneBody=0;fillColor=none;collapsible=0;dropTarget=0;points=[[0,0.5],[1,0.5]];portConstraint=eastwest;top=0;left=0;right=0;bottom=0;strokeColor=#D0CEE2;fontColor=#1A1A1A;labelBackgroundColor=none;" parent="j9YKCEQZaplh8smazgqn-8" vertex="1">
          <mxGeometry y="120" width="180" height="30" as="geometry" />
        </mxCell>
        <mxCell id="m8hBr9GZl_cZNE7fIZ4l-5" style="shape=partialRectangle;connectable=0;fillColor=none;top=0;left=0;bottom=0;right=0;editable=1;overflow=hidden;whiteSpace=wrap;html=1;strokeColor=#D0CEE2;fontColor=#1A1A1A;labelBackgroundColor=none;" parent="m8hBr9GZl_cZNE7fIZ4l-4" vertex="1">
          <mxGeometry width="30" height="30" as="geometry">
            <mxRectangle width="30" height="30" as="alternateBounds" />
          </mxGeometry>
        </mxCell>
        <mxCell id="m8hBr9GZl_cZNE7fIZ4l-6" value="CNPJ" style="shape=partialRectangle;connectable=0;fillColor=none;top=0;left=0;bottom=0;right=0;align=left;spacingLeft=6;overflow=hidden;whiteSpace=wrap;html=1;strokeColor=#D0CEE2;fontColor=#1A1A1A;labelBackgroundColor=none;" parent="m8hBr9GZl_cZNE7fIZ4l-4" vertex="1">
          <mxGeometry x="30" width="150" height="30" as="geometry">
            <mxRectangle width="150" height="30" as="alternateBounds" />
          </mxGeometry>
        </mxCell>
        <mxCell id="m8hBr9GZl_cZNE7fIZ4l-7" style="shape=tableRow;horizontal=0;startSize=0;swimlaneHead=0;swimlaneBody=0;fillColor=none;collapsible=0;dropTarget=0;points=[[0,0.5],[1,0.5]];portConstraint=eastwest;top=0;left=0;right=0;bottom=0;strokeColor=#D0CEE2;fontColor=#1A1A1A;labelBackgroundColor=none;" parent="j9YKCEQZaplh8smazgqn-8" vertex="1">
          <mxGeometry y="150" width="180" height="30" as="geometry" />
        </mxCell>
        <mxCell id="m8hBr9GZl_cZNE7fIZ4l-8" style="shape=partialRectangle;connectable=0;fillColor=none;top=0;left=0;bottom=0;right=0;editable=1;overflow=hidden;whiteSpace=wrap;html=1;strokeColor=#D0CEE2;fontColor=#1A1A1A;labelBackgroundColor=none;" parent="m8hBr9GZl_cZNE7fIZ4l-7" vertex="1">
          <mxGeometry width="30" height="30" as="geometry">
            <mxRectangle width="30" height="30" as="alternateBounds" />
          </mxGeometry>
        </mxCell>
        <mxCell id="m8hBr9GZl_cZNE7fIZ4l-9" value="HorarioAbertura" style="shape=partialRectangle;connectable=0;fillColor=none;top=0;left=0;bottom=0;right=0;align=left;spacingLeft=6;overflow=hidden;whiteSpace=wrap;html=1;strokeColor=#D0CEE2;fontColor=#1A1A1A;labelBackgroundColor=none;" parent="m8hBr9GZl_cZNE7fIZ4l-7" vertex="1">
          <mxGeometry x="30" width="150" height="30" as="geometry">
            <mxRectangle width="150" height="30" as="alternateBounds" />
          </mxGeometry>
        </mxCell>
        <mxCell id="G7nqIMJA9oM_WIrjRasf-1" style="shape=tableRow;horizontal=0;startSize=0;swimlaneHead=0;swimlaneBody=0;fillColor=none;collapsible=0;dropTarget=0;points=[[0,0.5],[1,0.5]];portConstraint=eastwest;top=0;left=0;right=0;bottom=0;strokeColor=#D0CEE2;fontColor=#1A1A1A;labelBackgroundColor=none;" parent="j9YKCEQZaplh8smazgqn-8" vertex="1">
          <mxGeometry y="180" width="180" height="30" as="geometry" />
        </mxCell>
        <mxCell id="G7nqIMJA9oM_WIrjRasf-2" style="shape=partialRectangle;connectable=0;fillColor=none;top=0;left=0;bottom=0;right=0;editable=1;overflow=hidden;whiteSpace=wrap;html=1;strokeColor=#D0CEE2;fontColor=#1A1A1A;labelBackgroundColor=none;" parent="G7nqIMJA9oM_WIrjRasf-1" vertex="1">
          <mxGeometry width="30" height="30" as="geometry">
            <mxRectangle width="30" height="30" as="alternateBounds" />
          </mxGeometry>
        </mxCell>
        <mxCell id="G7nqIMJA9oM_WIrjRasf-3" value="HorarioFechamento" style="shape=partialRectangle;connectable=0;fillColor=none;top=0;left=0;bottom=0;right=0;align=left;spacingLeft=6;overflow=hidden;whiteSpace=wrap;html=1;strokeColor=#D0CEE2;fontColor=#1A1A1A;labelBackgroundColor=none;" parent="G7nqIMJA9oM_WIrjRasf-1" vertex="1">
          <mxGeometry x="30" width="150" height="30" as="geometry">
            <mxRectangle width="150" height="30" as="alternateBounds" />
          </mxGeometry>
        </mxCell>
        <mxCell id="ZpZrkJBr7_BX35aEObXL-1" style="shape=tableRow;horizontal=0;startSize=0;swimlaneHead=0;swimlaneBody=0;fillColor=none;collapsible=0;dropTarget=0;points=[[0,0.5],[1,0.5]];portConstraint=eastwest;top=0;left=0;right=0;bottom=0;strokeColor=#D0CEE2;fontColor=#1A1A1A;labelBackgroundColor=none;" vertex="1" parent="j9YKCEQZaplh8smazgqn-8">
          <mxGeometry y="210" width="180" height="30" as="geometry" />
        </mxCell>
        <mxCell id="ZpZrkJBr7_BX35aEObXL-2" style="shape=partialRectangle;connectable=0;fillColor=none;top=0;left=0;bottom=0;right=0;editable=1;overflow=hidden;whiteSpace=wrap;html=1;strokeColor=#D0CEE2;fontColor=#1A1A1A;labelBackgroundColor=none;" vertex="1" parent="ZpZrkJBr7_BX35aEObXL-1">
          <mxGeometry width="30" height="30" as="geometry">
            <mxRectangle width="30" height="30" as="alternateBounds" />
          </mxGeometry>
        </mxCell>
        <mxCell id="ZpZrkJBr7_BX35aEObXL-3" value="Endereco" style="shape=partialRectangle;connectable=0;fillColor=none;top=0;left=0;bottom=0;right=0;align=left;spacingLeft=6;overflow=hidden;whiteSpace=wrap;html=1;strokeColor=#D0CEE2;fontColor=#1A1A1A;labelBackgroundColor=none;" vertex="1" parent="ZpZrkJBr7_BX35aEObXL-1">
          <mxGeometry x="30" width="150" height="30" as="geometry">
            <mxRectangle width="150" height="30" as="alternateBounds" />
          </mxGeometry>
        </mxCell>
        <mxCell id="rOpsKsPKH9mTHyneZ53s-8" value="Medicos" style="shape=table;startSize=30;container=1;collapsible=1;childLayout=tableLayout;fixedRows=1;rowLines=0;fontStyle=1;align=center;resizeLast=1;html=1;whiteSpace=wrap;strokeColor=#D0CEE2;fontColor=#1A1A1A;fillColor=#5D7F99;labelBackgroundColor=none;" parent="1" vertex="1">
          <mxGeometry x="670" y="260" width="180" height="210" as="geometry" />
        </mxCell>
        <mxCell id="wcLtu0v9jD_Dla0ruhGK-4" style="shape=tableRow;horizontal=0;startSize=0;swimlaneHead=0;swimlaneBody=0;fillColor=none;collapsible=0;dropTarget=0;points=[[0,0.5],[1,0.5]];portConstraint=eastwest;top=0;left=0;right=0;bottom=0;html=1;strokeColor=#D0CEE2;fontColor=#1A1A1A;labelBackgroundColor=none;" vertex="1" parent="rOpsKsPKH9mTHyneZ53s-8">
          <mxGeometry y="30" width="180" height="30" as="geometry" />
        </mxCell>
        <mxCell id="wcLtu0v9jD_Dla0ruhGK-5" value="PK" style="shape=partialRectangle;connectable=0;fillColor=none;top=0;left=0;bottom=0;right=0;fontStyle=1;overflow=hidden;html=1;whiteSpace=wrap;strokeColor=#D0CEE2;fontColor=#1A1A1A;labelBackgroundColor=none;" vertex="1" parent="wcLtu0v9jD_Dla0ruhGK-4">
          <mxGeometry width="60" height="30" as="geometry">
            <mxRectangle width="60" height="30" as="alternateBounds" />
          </mxGeometry>
        </mxCell>
        <mxCell id="wcLtu0v9jD_Dla0ruhGK-6" value="IdMedico" style="shape=partialRectangle;connectable=0;fillColor=none;top=0;left=0;bottom=0;right=0;align=left;spacingLeft=6;fontStyle=5;overflow=hidden;html=1;whiteSpace=wrap;strokeColor=#D0CEE2;fontColor=#1A1A1A;labelBackgroundColor=none;" vertex="1" parent="wcLtu0v9jD_Dla0ruhGK-4">
          <mxGeometry x="60" width="120" height="30" as="geometry">
            <mxRectangle width="120" height="30" as="alternateBounds" />
          </mxGeometry>
        </mxCell>
        <mxCell id="G7nqIMJA9oM_WIrjRasf-9" style="shape=tableRow;horizontal=0;startSize=0;swimlaneHead=0;swimlaneBody=0;fillColor=none;collapsible=0;dropTarget=0;points=[[0,0.5],[1,0.5]];portConstraint=eastwest;top=0;left=0;right=0;bottom=0;html=1;strokeColor=#D0CEE2;fontColor=#1A1A1A;labelBackgroundColor=none;" parent="rOpsKsPKH9mTHyneZ53s-8" vertex="1">
          <mxGeometry y="60" width="180" height="30" as="geometry" />
        </mxCell>
        <mxCell id="G7nqIMJA9oM_WIrjRasf-10" value="FK0" style="shape=partialRectangle;connectable=0;fillColor=none;top=0;left=0;bottom=0;right=0;fontStyle=1;overflow=hidden;html=1;whiteSpace=wrap;strokeColor=#D0CEE2;fontColor=#1A1A1A;labelBackgroundColor=none;" parent="G7nqIMJA9oM_WIrjRasf-9" vertex="1">
          <mxGeometry width="60" height="30" as="geometry">
            <mxRectangle width="60" height="30" as="alternateBounds" />
          </mxGeometry>
        </mxCell>
        <mxCell id="G7nqIMJA9oM_WIrjRasf-11" value="IdUsuario" style="shape=partialRectangle;connectable=0;fillColor=none;top=0;left=0;bottom=0;right=0;align=left;spacingLeft=6;fontStyle=5;overflow=hidden;html=1;whiteSpace=wrap;strokeColor=#D0CEE2;fontColor=#1A1A1A;labelBackgroundColor=none;" parent="G7nqIMJA9oM_WIrjRasf-9" vertex="1">
          <mxGeometry x="60" width="120" height="30" as="geometry">
            <mxRectangle width="120" height="30" as="alternateBounds" />
          </mxGeometry>
        </mxCell>
        <mxCell id="rOpsKsPKH9mTHyneZ53s-9" value="" style="shape=tableRow;horizontal=0;startSize=0;swimlaneHead=0;swimlaneBody=0;fillColor=none;collapsible=0;dropTarget=0;points=[[0,0.5],[1,0.5]];portConstraint=eastwest;top=0;left=0;right=0;bottom=0;html=1;strokeColor=#D0CEE2;fontColor=#1A1A1A;labelBackgroundColor=none;" parent="rOpsKsPKH9mTHyneZ53s-8" vertex="1">
          <mxGeometry y="90" width="180" height="30" as="geometry" />
        </mxCell>
        <mxCell id="rOpsKsPKH9mTHyneZ53s-10" value="FK1" style="shape=partialRectangle;connectable=0;fillColor=none;top=0;left=0;bottom=0;right=0;fontStyle=1;overflow=hidden;html=1;whiteSpace=wrap;strokeColor=#D0CEE2;fontColor=#1A1A1A;labelBackgroundColor=none;" parent="rOpsKsPKH9mTHyneZ53s-9" vertex="1">
          <mxGeometry width="60" height="30" as="geometry">
            <mxRectangle width="60" height="30" as="alternateBounds" />
          </mxGeometry>
        </mxCell>
        <mxCell id="rOpsKsPKH9mTHyneZ53s-11" value="IdEspecialidade" style="shape=partialRectangle;connectable=0;fillColor=none;top=0;left=0;bottom=0;right=0;align=left;spacingLeft=6;fontStyle=5;overflow=hidden;html=1;whiteSpace=wrap;strokeColor=#D0CEE2;fontColor=#1A1A1A;labelBackgroundColor=none;" parent="rOpsKsPKH9mTHyneZ53s-9" vertex="1">
          <mxGeometry x="60" width="120" height="30" as="geometry">
            <mxRectangle width="120" height="30" as="alternateBounds" />
          </mxGeometry>
        </mxCell>
        <mxCell id="rOpsKsPKH9mTHyneZ53s-12" value="" style="shape=tableRow;horizontal=0;startSize=0;swimlaneHead=0;swimlaneBody=0;fillColor=none;collapsible=0;dropTarget=0;points=[[0,0.5],[1,0.5]];portConstraint=eastwest;top=0;left=0;right=0;bottom=1;html=1;strokeColor=#D0CEE2;fontColor=#1A1A1A;labelBackgroundColor=none;" parent="rOpsKsPKH9mTHyneZ53s-8" vertex="1">
          <mxGeometry y="120" width="180" height="30" as="geometry" />
        </mxCell>
        <mxCell id="rOpsKsPKH9mTHyneZ53s-13" value="FK2" style="shape=partialRectangle;connectable=0;fillColor=none;top=0;left=0;bottom=0;right=0;fontStyle=1;overflow=hidden;html=1;whiteSpace=wrap;strokeColor=#D0CEE2;fontColor=#1A1A1A;labelBackgroundColor=none;" parent="rOpsKsPKH9mTHyneZ53s-12" vertex="1">
          <mxGeometry width="60" height="30" as="geometry">
            <mxRectangle width="60" height="30" as="alternateBounds" />
          </mxGeometry>
        </mxCell>
        <mxCell id="rOpsKsPKH9mTHyneZ53s-14" value="IdClinica" style="shape=partialRectangle;connectable=0;fillColor=none;top=0;left=0;bottom=0;right=0;align=left;spacingLeft=6;fontStyle=5;overflow=hidden;html=1;whiteSpace=wrap;strokeColor=#D0CEE2;fontColor=#1A1A1A;labelBackgroundColor=none;" parent="rOpsKsPKH9mTHyneZ53s-12" vertex="1">
          <mxGeometry x="60" width="120" height="30" as="geometry">
            <mxRectangle width="120" height="30" as="alternateBounds" />
          </mxGeometry>
        </mxCell>
        <mxCell id="ha9Xordy5AQ4yib7uTij-1" style="shape=tableRow;horizontal=0;startSize=0;swimlaneHead=0;swimlaneBody=0;fillColor=none;collapsible=0;dropTarget=0;points=[[0,0.5],[1,0.5]];portConstraint=eastwest;top=0;left=0;right=0;bottom=1;html=1;strokeColor=#D0CEE2;fontColor=#1A1A1A;labelBackgroundColor=none;" vertex="1" parent="rOpsKsPKH9mTHyneZ53s-8">
          <mxGeometry y="150" width="180" height="30" as="geometry" />
        </mxCell>
        <mxCell id="ha9Xordy5AQ4yib7uTij-2" style="shape=partialRectangle;connectable=0;fillColor=none;top=0;left=0;bottom=0;right=0;fontStyle=1;overflow=hidden;html=1;whiteSpace=wrap;strokeColor=#D0CEE2;fontColor=#1A1A1A;labelBackgroundColor=none;" vertex="1" parent="ha9Xordy5AQ4yib7uTij-1">
          <mxGeometry width="60" height="30" as="geometry">
            <mxRectangle width="60" height="30" as="alternateBounds" />
          </mxGeometry>
        </mxCell>
        <mxCell id="ha9Xordy5AQ4yib7uTij-3" value="CRM" style="shape=partialRectangle;connectable=0;fillColor=none;top=0;left=0;bottom=0;right=0;align=left;spacingLeft=6;fontStyle=5;overflow=hidden;html=1;whiteSpace=wrap;strokeColor=#D0CEE2;fontColor=#1A1A1A;labelBackgroundColor=none;" vertex="1" parent="ha9Xordy5AQ4yib7uTij-1">
          <mxGeometry x="60" width="120" height="30" as="geometry">
            <mxRectangle width="120" height="30" as="alternateBounds" />
          </mxGeometry>
        </mxCell>
        <mxCell id="ZpZrkJBr7_BX35aEObXL-7" style="shape=tableRow;horizontal=0;startSize=0;swimlaneHead=0;swimlaneBody=0;fillColor=none;collapsible=0;dropTarget=0;points=[[0,0.5],[1,0.5]];portConstraint=eastwest;top=0;left=0;right=0;bottom=1;html=1;strokeColor=#D0CEE2;fontColor=#1A1A1A;labelBackgroundColor=none;" vertex="1" parent="rOpsKsPKH9mTHyneZ53s-8">
          <mxGeometry y="180" width="180" height="30" as="geometry" />
        </mxCell>
        <mxCell id="ZpZrkJBr7_BX35aEObXL-8" style="shape=partialRectangle;connectable=0;fillColor=none;top=0;left=0;bottom=0;right=0;fontStyle=1;overflow=hidden;html=1;whiteSpace=wrap;strokeColor=#D0CEE2;fontColor=#1A1A1A;labelBackgroundColor=none;" vertex="1" parent="ZpZrkJBr7_BX35aEObXL-7">
          <mxGeometry width="60" height="30" as="geometry">
            <mxRectangle width="60" height="30" as="alternateBounds" />
          </mxGeometry>
        </mxCell>
        <mxCell id="ZpZrkJBr7_BX35aEObXL-9" value="Nome" style="shape=partialRectangle;connectable=0;fillColor=none;top=0;left=0;bottom=0;right=0;align=left;spacingLeft=6;fontStyle=5;overflow=hidden;html=1;whiteSpace=wrap;strokeColor=#D0CEE2;fontColor=#1A1A1A;labelBackgroundColor=none;" vertex="1" parent="ZpZrkJBr7_BX35aEObXL-7">
          <mxGeometry x="60" width="120" height="30" as="geometry">
            <mxRectangle width="120" height="30" as="alternateBounds" />
          </mxGeometry>
        </mxCell>
        <mxCell id="G7nqIMJA9oM_WIrjRasf-15" value="Usuario" style="shape=table;startSize=30;container=1;collapsible=1;childLayout=tableLayout;fixedRows=1;rowLines=0;fontStyle=1;align=center;resizeLast=1;html=1;whiteSpace=wrap;strokeColor=#D0CEE2;fontColor=#1A1A1A;fillColor=#5D7F99;labelBackgroundColor=none;" parent="1" vertex="1">
          <mxGeometry x="310" y="50" width="180" height="180" as="geometry" />
        </mxCell>
        <mxCell id="G7nqIMJA9oM_WIrjRasf-16" value="" style="shape=tableRow;horizontal=0;startSize=0;swimlaneHead=0;swimlaneBody=0;fillColor=none;collapsible=0;dropTarget=0;points=[[0,0.5],[1,0.5]];portConstraint=eastwest;top=0;left=0;right=0;bottom=0;html=1;strokeColor=#D0CEE2;fontColor=#1A1A1A;labelBackgroundColor=none;" parent="G7nqIMJA9oM_WIrjRasf-15" vertex="1">
          <mxGeometry y="30" width="180" height="30" as="geometry" />
        </mxCell>
        <mxCell id="G7nqIMJA9oM_WIrjRasf-17" value="PK" style="shape=partialRectangle;connectable=0;fillColor=none;top=0;left=0;bottom=0;right=0;fontStyle=1;overflow=hidden;html=1;whiteSpace=wrap;strokeColor=#D0CEE2;fontColor=#1A1A1A;labelBackgroundColor=none;" parent="G7nqIMJA9oM_WIrjRasf-16" vertex="1">
          <mxGeometry width="60" height="30" as="geometry">
            <mxRectangle width="60" height="30" as="alternateBounds" />
          </mxGeometry>
        </mxCell>
        <mxCell id="G7nqIMJA9oM_WIrjRasf-18" value="IdUsuario" style="shape=partialRectangle;connectable=0;fillColor=none;top=0;left=0;bottom=0;right=0;align=left;spacingLeft=6;fontStyle=5;overflow=hidden;html=1;whiteSpace=wrap;strokeColor=#D0CEE2;fontColor=#1A1A1A;labelBackgroundColor=none;" parent="G7nqIMJA9oM_WIrjRasf-16" vertex="1">
          <mxGeometry x="60" width="120" height="30" as="geometry">
            <mxRectangle width="120" height="30" as="alternateBounds" />
          </mxGeometry>
        </mxCell>
        <mxCell id="G7nqIMJA9oM_WIrjRasf-19" value="" style="shape=tableRow;horizontal=0;startSize=0;swimlaneHead=0;swimlaneBody=0;fillColor=none;collapsible=0;dropTarget=0;points=[[0,0.5],[1,0.5]];portConstraint=eastwest;top=0;left=0;right=0;bottom=1;html=1;strokeColor=#D0CEE2;fontColor=#1A1A1A;labelBackgroundColor=none;" parent="G7nqIMJA9oM_WIrjRasf-15" vertex="1">
          <mxGeometry y="60" width="180" height="30" as="geometry" />
        </mxCell>
        <mxCell id="G7nqIMJA9oM_WIrjRasf-20" value="FK" style="shape=partialRectangle;connectable=0;fillColor=none;top=0;left=0;bottom=0;right=0;fontStyle=1;overflow=hidden;html=1;whiteSpace=wrap;strokeColor=#D0CEE2;fontColor=#1A1A1A;labelBackgroundColor=none;" parent="G7nqIMJA9oM_WIrjRasf-19" vertex="1">
          <mxGeometry width="60" height="30" as="geometry">
            <mxRectangle width="60" height="30" as="alternateBounds" />
          </mxGeometry>
        </mxCell>
        <mxCell id="G7nqIMJA9oM_WIrjRasf-21" value="IdTipodeUsuario" style="shape=partialRectangle;connectable=0;fillColor=none;top=0;left=0;bottom=0;right=0;align=left;spacingLeft=6;fontStyle=5;overflow=hidden;html=1;whiteSpace=wrap;strokeColor=#D0CEE2;fontColor=#1A1A1A;labelBackgroundColor=none;" parent="G7nqIMJA9oM_WIrjRasf-19" vertex="1">
          <mxGeometry x="60" width="120" height="30" as="geometry">
            <mxRectangle width="120" height="30" as="alternateBounds" />
          </mxGeometry>
        </mxCell>
        <mxCell id="G7nqIMJA9oM_WIrjRasf-22" value="" style="shape=tableRow;horizontal=0;startSize=0;swimlaneHead=0;swimlaneBody=0;fillColor=none;collapsible=0;dropTarget=0;points=[[0,0.5],[1,0.5]];portConstraint=eastwest;top=0;left=0;right=0;bottom=0;html=1;strokeColor=#D0CEE2;fontColor=#1A1A1A;labelBackgroundColor=none;" parent="G7nqIMJA9oM_WIrjRasf-15" vertex="1">
          <mxGeometry y="90" width="180" height="30" as="geometry" />
        </mxCell>
        <mxCell id="G7nqIMJA9oM_WIrjRasf-23" value="" style="shape=partialRectangle;connectable=0;fillColor=none;top=0;left=0;bottom=0;right=0;editable=1;overflow=hidden;html=1;whiteSpace=wrap;strokeColor=#D0CEE2;fontColor=#1A1A1A;labelBackgroundColor=none;" parent="G7nqIMJA9oM_WIrjRasf-22" vertex="1">
          <mxGeometry width="60" height="30" as="geometry">
            <mxRectangle width="60" height="30" as="alternateBounds" />
          </mxGeometry>
        </mxCell>
        <mxCell id="G7nqIMJA9oM_WIrjRasf-24" value="Nome" style="shape=partialRectangle;connectable=0;fillColor=none;top=0;left=0;bottom=0;right=0;align=left;spacingLeft=6;overflow=hidden;html=1;whiteSpace=wrap;strokeColor=#D0CEE2;fontColor=#1A1A1A;labelBackgroundColor=none;" parent="G7nqIMJA9oM_WIrjRasf-22" vertex="1">
          <mxGeometry x="60" width="120" height="30" as="geometry">
            <mxRectangle width="120" height="30" as="alternateBounds" />
          </mxGeometry>
        </mxCell>
        <mxCell id="G7nqIMJA9oM_WIrjRasf-25" value="" style="shape=tableRow;horizontal=0;startSize=0;swimlaneHead=0;swimlaneBody=0;fillColor=none;collapsible=0;dropTarget=0;points=[[0,0.5],[1,0.5]];portConstraint=eastwest;top=0;left=0;right=0;bottom=0;html=1;strokeColor=#D0CEE2;fontColor=#1A1A1A;labelBackgroundColor=none;" parent="G7nqIMJA9oM_WIrjRasf-15" vertex="1">
          <mxGeometry y="120" width="180" height="30" as="geometry" />
        </mxCell>
        <mxCell id="G7nqIMJA9oM_WIrjRasf-26" value="" style="shape=partialRectangle;connectable=0;fillColor=none;top=0;left=0;bottom=0;right=0;editable=1;overflow=hidden;html=1;whiteSpace=wrap;strokeColor=#D0CEE2;fontColor=#1A1A1A;labelBackgroundColor=none;" parent="G7nqIMJA9oM_WIrjRasf-25" vertex="1">
          <mxGeometry width="60" height="30" as="geometry">
            <mxRectangle width="60" height="30" as="alternateBounds" />
          </mxGeometry>
        </mxCell>
        <mxCell id="G7nqIMJA9oM_WIrjRasf-27" value="Email" style="shape=partialRectangle;connectable=0;fillColor=none;top=0;left=0;bottom=0;right=0;align=left;spacingLeft=6;overflow=hidden;html=1;whiteSpace=wrap;strokeColor=#D0CEE2;fontColor=#1A1A1A;labelBackgroundColor=none;" parent="G7nqIMJA9oM_WIrjRasf-25" vertex="1">
          <mxGeometry x="60" width="120" height="30" as="geometry">
            <mxRectangle width="120" height="30" as="alternateBounds" />
          </mxGeometry>
        </mxCell>
        <mxCell id="G7nqIMJA9oM_WIrjRasf-28" style="shape=tableRow;horizontal=0;startSize=0;swimlaneHead=0;swimlaneBody=0;fillColor=none;collapsible=0;dropTarget=0;points=[[0,0.5],[1,0.5]];portConstraint=eastwest;top=0;left=0;right=0;bottom=0;html=1;strokeColor=#D0CEE2;fontColor=#1A1A1A;labelBackgroundColor=none;" parent="G7nqIMJA9oM_WIrjRasf-15" vertex="1">
          <mxGeometry y="150" width="180" height="30" as="geometry" />
        </mxCell>
        <mxCell id="G7nqIMJA9oM_WIrjRasf-29" style="shape=partialRectangle;connectable=0;fillColor=none;top=0;left=0;bottom=0;right=0;editable=1;overflow=hidden;html=1;whiteSpace=wrap;strokeColor=#D0CEE2;fontColor=#1A1A1A;labelBackgroundColor=none;" parent="G7nqIMJA9oM_WIrjRasf-28" vertex="1">
          <mxGeometry width="60" height="30" as="geometry">
            <mxRectangle width="60" height="30" as="alternateBounds" />
          </mxGeometry>
        </mxCell>
        <mxCell id="G7nqIMJA9oM_WIrjRasf-30" value="Senha" style="shape=partialRectangle;connectable=0;fillColor=none;top=0;left=0;bottom=0;right=0;align=left;spacingLeft=6;overflow=hidden;html=1;whiteSpace=wrap;strokeColor=#D0CEE2;fontColor=#1A1A1A;labelBackgroundColor=none;" parent="G7nqIMJA9oM_WIrjRasf-28" vertex="1">
          <mxGeometry x="60" width="120" height="30" as="geometry">
            <mxRectangle width="120" height="30" as="alternateBounds" />
          </mxGeometry>
        </mxCell>
        <mxCell id="G7nqIMJA9oM_WIrjRasf-31" value="PresenÃ§aConsulta" style="shape=table;startSize=30;container=1;collapsible=1;childLayout=tableLayout;fixedRows=1;rowLines=0;fontStyle=1;align=center;resizeLast=1;html=1;whiteSpace=wrap;strokeColor=#D0CEE2;fontColor=#1A1A1A;fillColor=#5D7F99;labelBackgroundColor=none;" parent="1" vertex="1">
          <mxGeometry x="420" y="585" width="190" height="150" as="geometry" />
        </mxCell>
        <mxCell id="G7nqIMJA9oM_WIrjRasf-47" style="shape=tableRow;horizontal=0;startSize=0;swimlaneHead=0;swimlaneBody=0;fillColor=none;collapsible=0;dropTarget=0;points=[[0,0.5],[1,0.5]];portConstraint=eastwest;top=0;left=0;right=0;bottom=0;html=1;strokeColor=#D0CEE2;fontColor=#1A1A1A;labelBackgroundColor=none;" parent="G7nqIMJA9oM_WIrjRasf-31" vertex="1">
          <mxGeometry y="30" width="190" height="30" as="geometry" />
        </mxCell>
        <mxCell id="G7nqIMJA9oM_WIrjRasf-48" value="PK" style="shape=partialRectangle;connectable=0;fillColor=none;top=0;left=0;bottom=0;right=0;fontStyle=1;overflow=hidden;html=1;whiteSpace=wrap;strokeColor=#D0CEE2;fontColor=#1A1A1A;labelBackgroundColor=none;" parent="G7nqIMJA9oM_WIrjRasf-47" vertex="1">
          <mxGeometry width="60" height="30" as="geometry">
            <mxRectangle width="60" height="30" as="alternateBounds" />
          </mxGeometry>
        </mxCell>
        <mxCell id="G7nqIMJA9oM_WIrjRasf-49" value="IdPresenÃ§aConsulta" style="shape=partialRectangle;connectable=0;fillColor=none;top=0;left=0;bottom=0;right=0;align=left;spacingLeft=6;fontStyle=5;overflow=hidden;html=1;whiteSpace=wrap;strokeColor=#D0CEE2;fontColor=#1A1A1A;labelBackgroundColor=none;" parent="G7nqIMJA9oM_WIrjRasf-47" vertex="1">
          <mxGeometry x="60" width="130" height="30" as="geometry">
            <mxRectangle width="130" height="30" as="alternateBounds" />
          </mxGeometry>
        </mxCell>
        <mxCell id="G7nqIMJA9oM_WIrjRasf-32" value="" style="shape=tableRow;horizontal=0;startSize=0;swimlaneHead=0;swimlaneBody=0;fillColor=none;collapsible=0;dropTarget=0;points=[[0,0.5],[1,0.5]];portConstraint=eastwest;top=0;left=0;right=0;bottom=0;html=1;strokeColor=#D0CEE2;fontColor=#1A1A1A;labelBackgroundColor=none;" parent="G7nqIMJA9oM_WIrjRasf-31" vertex="1">
          <mxGeometry y="60" width="190" height="30" as="geometry" />
        </mxCell>
        <mxCell id="G7nqIMJA9oM_WIrjRasf-33" value="FK1" style="shape=partialRectangle;connectable=0;fillColor=none;top=0;left=0;bottom=0;right=0;fontStyle=1;overflow=hidden;html=1;whiteSpace=wrap;strokeColor=#D0CEE2;fontColor=#1A1A1A;labelBackgroundColor=none;" parent="G7nqIMJA9oM_WIrjRasf-32" vertex="1">
          <mxGeometry width="60" height="30" as="geometry">
            <mxRectangle width="60" height="30" as="alternateBounds" />
          </mxGeometry>
        </mxCell>
        <mxCell id="G7nqIMJA9oM_WIrjRasf-34" value="IdPaciente" style="shape=partialRectangle;connectable=0;fillColor=none;top=0;left=0;bottom=0;right=0;align=left;spacingLeft=6;fontStyle=5;overflow=hidden;html=1;whiteSpace=wrap;strokeColor=#D0CEE2;fontColor=#1A1A1A;labelBackgroundColor=none;" parent="G7nqIMJA9oM_WIrjRasf-32" vertex="1">
          <mxGeometry x="60" width="130" height="30" as="geometry">
            <mxRectangle width="130" height="30" as="alternateBounds" />
          </mxGeometry>
        </mxCell>
        <mxCell id="G7nqIMJA9oM_WIrjRasf-35" value="" style="shape=tableRow;horizontal=0;startSize=0;swimlaneHead=0;swimlaneBody=0;fillColor=none;collapsible=0;dropTarget=0;points=[[0,0.5],[1,0.5]];portConstraint=eastwest;top=0;left=0;right=0;bottom=1;html=1;strokeColor=#D0CEE2;fontColor=#1A1A1A;labelBackgroundColor=none;" parent="G7nqIMJA9oM_WIrjRasf-31" vertex="1">
          <mxGeometry y="90" width="190" height="30" as="geometry" />
        </mxCell>
        <mxCell id="G7nqIMJA9oM_WIrjRasf-36" value="FK2" style="shape=partialRectangle;connectable=0;fillColor=none;top=0;left=0;bottom=0;right=0;fontStyle=1;overflow=hidden;html=1;whiteSpace=wrap;strokeColor=#D0CEE2;fontColor=#1A1A1A;labelBackgroundColor=none;" parent="G7nqIMJA9oM_WIrjRasf-35" vertex="1">
          <mxGeometry width="60" height="30" as="geometry">
            <mxRectangle width="60" height="30" as="alternateBounds" />
          </mxGeometry>
        </mxCell>
        <mxCell id="G7nqIMJA9oM_WIrjRasf-37" value="IdConsulta" style="shape=partialRectangle;connectable=0;fillColor=none;top=0;left=0;bottom=0;right=0;align=left;spacingLeft=6;fontStyle=5;overflow=hidden;html=1;whiteSpace=wrap;strokeColor=#D0CEE2;fontColor=#1A1A1A;labelBackgroundColor=none;" parent="G7nqIMJA9oM_WIrjRasf-35" vertex="1">
          <mxGeometry x="60" width="130" height="30" as="geometry">
            <mxRectangle width="130" height="30" as="alternateBounds" />
          </mxGeometry>
        </mxCell>
        <mxCell id="G7nqIMJA9oM_WIrjRasf-38" value="" style="shape=tableRow;horizontal=0;startSize=0;swimlaneHead=0;swimlaneBody=0;fillColor=none;collapsible=0;dropTarget=0;points=[[0,0.5],[1,0.5]];portConstraint=eastwest;top=0;left=0;right=0;bottom=0;html=1;strokeColor=#D0CEE2;fontColor=#1A1A1A;labelBackgroundColor=none;" parent="G7nqIMJA9oM_WIrjRasf-31" vertex="1">
          <mxGeometry y="120" width="190" height="30" as="geometry" />
        </mxCell>
        <mxCell id="G7nqIMJA9oM_WIrjRasf-39" value="" style="shape=partialRectangle;connectable=0;fillColor=none;top=0;left=0;bottom=0;right=0;editable=1;overflow=hidden;html=1;whiteSpace=wrap;strokeColor=#D0CEE2;fontColor=#1A1A1A;labelBackgroundColor=none;" parent="G7nqIMJA9oM_WIrjRasf-38" vertex="1">
          <mxGeometry width="60" height="30" as="geometry">
            <mxRectangle width="60" height="30" as="alternateBounds" />
          </mxGeometry>
        </mxCell>
        <mxCell id="G7nqIMJA9oM_WIrjRasf-40" value="Situacao" style="shape=partialRectangle;connectable=0;fillColor=none;top=0;left=0;bottom=0;right=0;align=left;spacingLeft=6;overflow=hidden;html=1;whiteSpace=wrap;strokeColor=#D0CEE2;fontColor=#1A1A1A;labelBackgroundColor=none;" parent="G7nqIMJA9oM_WIrjRasf-38" vertex="1">
          <mxGeometry x="60" width="130" height="30" as="geometry">
            <mxRectangle width="130" height="30" as="alternateBounds" />
          </mxGeometry>
        </mxCell>
        <mxCell id="G7nqIMJA9oM_WIrjRasf-53" value="Consulta" style="shape=table;startSize=30;container=1;collapsible=1;childLayout=tableLayout;fixedRows=1;rowLines=0;fontStyle=1;align=center;resizeLast=1;html=1;whiteSpace=wrap;strokeColor=#D0CEE2;fontColor=#1A1A1A;fillColor=#5D7F99;labelBackgroundColor=none;" parent="1" vertex="1">
          <mxGeometry x="80" y="280" width="180" height="210" as="geometry" />
        </mxCell>
        <mxCell id="G7nqIMJA9oM_WIrjRasf-75" style="shape=tableRow;horizontal=0;startSize=0;swimlaneHead=0;swimlaneBody=0;fillColor=none;collapsible=0;dropTarget=0;points=[[0,0.5],[1,0.5]];portConstraint=eastwest;top=0;left=0;right=0;bottom=0;html=1;strokeColor=#D0CEE2;fontColor=#1A1A1A;labelBackgroundColor=none;" parent="G7nqIMJA9oM_WIrjRasf-53" vertex="1">
          <mxGeometry y="30" width="180" height="30" as="geometry" />
        </mxCell>
        <mxCell id="G7nqIMJA9oM_WIrjRasf-76" value="PK" style="shape=partialRectangle;connectable=0;fillColor=none;top=0;left=0;bottom=0;right=0;fontStyle=1;overflow=hidden;html=1;whiteSpace=wrap;strokeColor=#D0CEE2;fontColor=#1A1A1A;labelBackgroundColor=none;" parent="G7nqIMJA9oM_WIrjRasf-75" vertex="1">
          <mxGeometry width="60" height="30" as="geometry">
            <mxRectangle width="60" height="30" as="alternateBounds" />
          </mxGeometry>
        </mxCell>
        <mxCell id="G7nqIMJA9oM_WIrjRasf-77" value="IdConsulta" style="shape=partialRectangle;connectable=0;fillColor=none;top=0;left=0;bottom=0;right=0;align=left;spacingLeft=6;fontStyle=5;overflow=hidden;html=1;whiteSpace=wrap;strokeColor=#D0CEE2;fontColor=#1A1A1A;labelBackgroundColor=none;" parent="G7nqIMJA9oM_WIrjRasf-75" vertex="1">
          <mxGeometry x="60" width="120" height="30" as="geometry">
            <mxRectangle width="120" height="30" as="alternateBounds" />
          </mxGeometry>
        </mxCell>
        <mxCell id="G7nqIMJA9oM_WIrjRasf-54" style="shape=tableRow;horizontal=0;startSize=0;swimlaneHead=0;swimlaneBody=0;fillColor=none;collapsible=0;dropTarget=0;points=[[0,0.5],[1,0.5]];portConstraint=eastwest;top=0;left=0;right=0;bottom=0;html=1;strokeColor=#D0CEE2;fontColor=#1A1A1A;labelBackgroundColor=none;" parent="G7nqIMJA9oM_WIrjRasf-53" vertex="1">
          <mxGeometry y="60" width="180" height="30" as="geometry" />
        </mxCell>
        <mxCell id="G7nqIMJA9oM_WIrjRasf-55" value="FK1" style="shape=partialRectangle;connectable=0;fillColor=none;top=0;left=0;bottom=0;right=0;fontStyle=1;overflow=hidden;html=1;whiteSpace=wrap;strokeColor=#D0CEE2;fontColor=#1A1A1A;labelBackgroundColor=none;" parent="G7nqIMJA9oM_WIrjRasf-54" vertex="1">
          <mxGeometry width="60" height="30" as="geometry">
            <mxRectangle width="60" height="30" as="alternateBounds" />
          </mxGeometry>
        </mxCell>
        <mxCell id="G7nqIMJA9oM_WIrjRasf-56" value="IdMedico" style="shape=partialRectangle;connectable=0;fillColor=none;top=0;left=0;bottom=0;right=0;align=left;spacingLeft=6;fontStyle=5;overflow=hidden;html=1;whiteSpace=wrap;strokeColor=#D0CEE2;fontColor=#1A1A1A;labelBackgroundColor=none;" parent="G7nqIMJA9oM_WIrjRasf-54" vertex="1">
          <mxGeometry x="60" width="120" height="30" as="geometry">
            <mxRectangle width="120" height="30" as="alternateBounds" />
          </mxGeometry>
        </mxCell>
        <mxCell id="G7nqIMJA9oM_WIrjRasf-57" value="" style="shape=tableRow;horizontal=0;startSize=0;swimlaneHead=0;swimlaneBody=0;fillColor=none;collapsible=0;dropTarget=0;points=[[0,0.5],[1,0.5]];portConstraint=eastwest;top=0;left=0;right=0;bottom=0;html=1;strokeColor=#D0CEE2;fontColor=#1A1A1A;labelBackgroundColor=none;" parent="G7nqIMJA9oM_WIrjRasf-53" vertex="1">
          <mxGeometry y="90" width="180" height="30" as="geometry" />
        </mxCell>
        <mxCell id="G7nqIMJA9oM_WIrjRasf-58" value="FK2" style="shape=partialRectangle;connectable=0;fillColor=none;top=0;left=0;bottom=0;right=0;fontStyle=1;overflow=hidden;html=1;whiteSpace=wrap;strokeColor=#D0CEE2;fontColor=#1A1A1A;labelBackgroundColor=none;" parent="G7nqIMJA9oM_WIrjRasf-57" vertex="1">
          <mxGeometry width="60" height="30" as="geometry">
            <mxRectangle width="60" height="30" as="alternateBounds" />
          </mxGeometry>
        </mxCell>
        <mxCell id="G7nqIMJA9oM_WIrjRasf-59" value="IdPaciente" style="shape=partialRectangle;connectable=0;fillColor=none;top=0;left=0;bottom=0;right=0;align=left;spacingLeft=6;fontStyle=5;overflow=hidden;html=1;whiteSpace=wrap;strokeColor=#D0CEE2;fontColor=#1A1A1A;labelBackgroundColor=none;" parent="G7nqIMJA9oM_WIrjRasf-57" vertex="1">
          <mxGeometry x="60" width="120" height="30" as="geometry">
            <mxRectangle width="120" height="30" as="alternateBounds" />
          </mxGeometry>
        </mxCell>
        <mxCell id="G7nqIMJA9oM_WIrjRasf-60" value="" style="shape=tableRow;horizontal=0;startSize=0;swimlaneHead=0;swimlaneBody=0;fillColor=none;collapsible=0;dropTarget=0;points=[[0,0.5],[1,0.5]];portConstraint=eastwest;top=0;left=0;right=0;bottom=1;html=1;strokeColor=#D0CEE2;fontColor=#1A1A1A;labelBackgroundColor=none;" parent="G7nqIMJA9oM_WIrjRasf-53" vertex="1">
          <mxGeometry y="120" width="180" height="30" as="geometry" />
        </mxCell>
        <mxCell id="G7nqIMJA9oM_WIrjRasf-61" value="FK3" style="shape=partialRectangle;connectable=0;fillColor=none;top=0;left=0;bottom=0;right=0;fontStyle=1;overflow=hidden;html=1;whiteSpace=wrap;strokeColor=#D0CEE2;fontColor=#1A1A1A;labelBackgroundColor=none;" parent="G7nqIMJA9oM_WIrjRasf-60" vertex="1">
          <mxGeometry width="60" height="30" as="geometry">
            <mxRectangle width="60" height="30" as="alternateBounds" />
          </mxGeometry>
        </mxCell>
        <mxCell id="G7nqIMJA9oM_WIrjRasf-62" value="IdClinica" style="shape=partialRectangle;connectable=0;fillColor=none;top=0;left=0;bottom=0;right=0;align=left;spacingLeft=6;fontStyle=5;overflow=hidden;html=1;whiteSpace=wrap;strokeColor=#D0CEE2;fontColor=#1A1A1A;labelBackgroundColor=none;" parent="G7nqIMJA9oM_WIrjRasf-60" vertex="1">
          <mxGeometry x="60" width="120" height="30" as="geometry">
            <mxRectangle width="120" height="30" as="alternateBounds" />
          </mxGeometry>
        </mxCell>
        <mxCell id="G7nqIMJA9oM_WIrjRasf-63" value="" style="shape=tableRow;horizontal=0;startSize=0;swimlaneHead=0;swimlaneBody=0;fillColor=none;collapsible=0;dropTarget=0;points=[[0,0.5],[1,0.5]];portConstraint=eastwest;top=0;left=0;right=0;bottom=0;html=1;strokeColor=#D0CEE2;fontColor=#1A1A1A;labelBackgroundColor=none;" parent="G7nqIMJA9oM_WIrjRasf-53" vertex="1">
          <mxGeometry y="150" width="180" height="30" as="geometry" />
        </mxCell>
        <mxCell id="G7nqIMJA9oM_WIrjRasf-64" value="" style="shape=partialRectangle;connectable=0;fillColor=none;top=0;left=0;bottom=0;right=0;editable=1;overflow=hidden;html=1;whiteSpace=wrap;strokeColor=#D0CEE2;fontColor=#1A1A1A;labelBackgroundColor=none;" parent="G7nqIMJA9oM_WIrjRasf-63" vertex="1">
          <mxGeometry width="60" height="30" as="geometry">
            <mxRectangle width="60" height="30" as="alternateBounds" />
          </mxGeometry>
        </mxCell>
        <mxCell id="G7nqIMJA9oM_WIrjRasf-65" value="Descricao" style="shape=partialRectangle;connectable=0;fillColor=none;top=0;left=0;bottom=0;right=0;align=left;spacingLeft=6;overflow=hidden;html=1;whiteSpace=wrap;strokeColor=#D0CEE2;fontColor=#1A1A1A;labelBackgroundColor=none;" parent="G7nqIMJA9oM_WIrjRasf-63" vertex="1">
          <mxGeometry x="60" width="120" height="30" as="geometry">
            <mxRectangle width="120" height="30" as="alternateBounds" />
          </mxGeometry>
        </mxCell>
        <mxCell id="G7nqIMJA9oM_WIrjRasf-66" value="" style="shape=tableRow;horizontal=0;startSize=0;swimlaneHead=0;swimlaneBody=0;fillColor=none;collapsible=0;dropTarget=0;points=[[0,0.5],[1,0.5]];portConstraint=eastwest;top=0;left=0;right=0;bottom=0;html=1;strokeColor=#D0CEE2;fontColor=#1A1A1A;labelBackgroundColor=none;" parent="G7nqIMJA9oM_WIrjRasf-53" vertex="1">
          <mxGeometry y="180" width="180" height="30" as="geometry" />
        </mxCell>
        <mxCell id="G7nqIMJA9oM_WIrjRasf-67" value="" style="shape=partialRectangle;connectable=0;fillColor=none;top=0;left=0;bottom=0;right=0;editable=1;overflow=hidden;html=1;whiteSpace=wrap;strokeColor=#D0CEE2;fontColor=#1A1A1A;labelBackgroundColor=none;" parent="G7nqIMJA9oM_WIrjRasf-66" vertex="1">
          <mxGeometry width="60" height="30" as="geometry">
            <mxRectangle width="60" height="30" as="alternateBounds" />
          </mxGeometry>
        </mxCell>
        <mxCell id="G7nqIMJA9oM_WIrjRasf-68" value="DataConsulta" style="shape=partialRectangle;connectable=0;fillColor=none;top=0;left=0;bottom=0;right=0;align=left;spacingLeft=6;overflow=hidden;html=1;whiteSpace=wrap;strokeColor=#D0CEE2;fontColor=#1A1A1A;labelBackgroundColor=none;" parent="G7nqIMJA9oM_WIrjRasf-66" vertex="1">
          <mxGeometry x="60" width="120" height="30" as="geometry">
            <mxRectangle width="120" height="30" as="alternateBounds" />
          </mxGeometry>
        </mxCell>
        <mxCell id="1ZvmqWGZc5X6zY4zjdqe-1" value="Prontuario" style="shape=table;startSize=30;container=1;collapsible=1;childLayout=tableLayout;fixedRows=1;rowLines=0;fontStyle=1;align=center;resizeLast=1;html=1;whiteSpace=wrap;strokeColor=#D0CEE2;fontColor=#1A1A1A;fillColor=#5D7F99;labelBackgroundColor=none;" parent="1" vertex="1">
          <mxGeometry x="-160" y="680" width="180" height="120" as="geometry" />
        </mxCell>
        <mxCell id="1ZvmqWGZc5X6zY4zjdqe-2" style="shape=tableRow;horizontal=0;startSize=0;swimlaneHead=0;swimlaneBody=0;fillColor=none;collapsible=0;dropTarget=0;points=[[0,0.5],[1,0.5]];portConstraint=eastwest;top=0;left=0;right=0;bottom=0;html=1;strokeColor=#D0CEE2;fontColor=#1A1A1A;labelBackgroundColor=none;" parent="1ZvmqWGZc5X6zY4zjdqe-1" vertex="1">
          <mxGeometry y="30" width="180" height="30" as="geometry" />
        </mxCell>
        <mxCell id="1ZvmqWGZc5X6zY4zjdqe-3" value="PK" style="shape=partialRectangle;connectable=0;fillColor=none;top=0;left=0;bottom=0;right=0;fontStyle=1;overflow=hidden;html=1;whiteSpace=wrap;strokeColor=#D0CEE2;fontColor=#1A1A1A;labelBackgroundColor=none;" parent="1ZvmqWGZc5X6zY4zjdqe-2" vertex="1">
          <mxGeometry width="60" height="30" as="geometry">
            <mxRectangle width="60" height="30" as="alternateBounds" />
          </mxGeometry>
        </mxCell>
        <mxCell id="1ZvmqWGZc5X6zY4zjdqe-4" value="IdProntuario" style="shape=partialRectangle;connectable=0;fillColor=none;top=0;left=0;bottom=0;right=0;align=left;spacingLeft=6;fontStyle=5;overflow=hidden;html=1;whiteSpace=wrap;strokeColor=#D0CEE2;fontColor=#1A1A1A;labelBackgroundColor=none;" parent="1ZvmqWGZc5X6zY4zjdqe-2" vertex="1">
          <mxGeometry x="60" width="120" height="30" as="geometry">
            <mxRectangle width="120" height="30" as="alternateBounds" />
          </mxGeometry>
        </mxCell>
        <mxCell id="OyaNYBSMKmWiEZQ6EtJf-10" style="shape=tableRow;horizontal=0;startSize=0;swimlaneHead=0;swimlaneBody=0;fillColor=none;collapsible=0;dropTarget=0;points=[[0,0.5],[1,0.5]];portConstraint=eastwest;top=0;left=0;right=0;bottom=0;html=1;strokeColor=#D0CEE2;fontColor=#1A1A1A;labelBackgroundColor=none;" vertex="1" parent="1ZvmqWGZc5X6zY4zjdqe-1">
          <mxGeometry y="60" width="180" height="30" as="geometry" />
        </mxCell>
        <mxCell id="OyaNYBSMKmWiEZQ6EtJf-11" value="FK" style="shape=partialRectangle;connectable=0;fillColor=none;top=0;left=0;bottom=0;right=0;fontStyle=1;overflow=hidden;html=1;whiteSpace=wrap;strokeColor=#D0CEE2;fontColor=#1A1A1A;labelBackgroundColor=none;" vertex="1" parent="OyaNYBSMKmWiEZQ6EtJf-10">
          <mxGeometry width="60" height="30" as="geometry">
            <mxRectangle width="60" height="30" as="alternateBounds" />
          </mxGeometry>
        </mxCell>
        <mxCell id="OyaNYBSMKmWiEZQ6EtJf-12" value="IdConsulta" style="shape=partialRectangle;connectable=0;fillColor=none;top=0;left=0;bottom=0;right=0;align=left;spacingLeft=6;fontStyle=5;overflow=hidden;html=1;whiteSpace=wrap;strokeColor=#D0CEE2;fontColor=#1A1A1A;labelBackgroundColor=none;" vertex="1" parent="OyaNYBSMKmWiEZQ6EtJf-10">
          <mxGeometry x="60" width="120" height="30" as="geometry">
            <mxRectangle width="120" height="30" as="alternateBounds" />
          </mxGeometry>
        </mxCell>
        <mxCell id="OyaNYBSMKmWiEZQ6EtJf-13" style="shape=tableRow;horizontal=0;startSize=0;swimlaneHead=0;swimlaneBody=0;fillColor=none;collapsible=0;dropTarget=0;points=[[0,0.5],[1,0.5]];portConstraint=eastwest;top=0;left=0;right=0;bottom=0;html=1;strokeColor=#D0CEE2;fontColor=#1A1A1A;labelBackgroundColor=none;" vertex="1" parent="1ZvmqWGZc5X6zY4zjdqe-1">
          <mxGeometry y="90" width="180" height="30" as="geometry" />
        </mxCell>
        <mxCell id="OyaNYBSMKmWiEZQ6EtJf-14" style="shape=partialRectangle;connectable=0;fillColor=none;top=0;left=0;bottom=0;right=0;fontStyle=1;overflow=hidden;html=1;whiteSpace=wrap;strokeColor=#D0CEE2;fontColor=#1A1A1A;labelBackgroundColor=none;" vertex="1" parent="OyaNYBSMKmWiEZQ6EtJf-13">
          <mxGeometry width="60" height="30" as="geometry">
            <mxRectangle width="60" height="30" as="alternateBounds" />
          </mxGeometry>
        </mxCell>
        <mxCell id="OyaNYBSMKmWiEZQ6EtJf-15" value="Descricao" style="shape=partialRectangle;connectable=0;fillColor=none;top=0;left=0;bottom=0;right=0;align=left;spacingLeft=6;fontStyle=5;overflow=hidden;html=1;whiteSpace=wrap;strokeColor=#D0CEE2;fontColor=#1A1A1A;labelBackgroundColor=none;" vertex="1" parent="OyaNYBSMKmWiEZQ6EtJf-13">
          <mxGeometry x="60" width="120" height="30" as="geometry">
            <mxRectangle width="120" height="30" as="alternateBounds" />
          </mxGeometry>
        </mxCell>
        <mxCell id="1ZvmqWGZc5X6zY4zjdqe-23" value="Comentario" style="shape=table;startSize=30;container=1;collapsible=1;childLayout=tableLayout;fixedRows=1;rowLines=0;fontStyle=1;align=center;resizeLast=1;html=1;whiteSpace=wrap;strokeColor=#D0CEE2;fontColor=#1A1A1A;fillColor=#5D7F99;labelBackgroundColor=none;" parent="1" vertex="1">
          <mxGeometry x="350" y="370" width="190" height="150" as="geometry" />
        </mxCell>
        <mxCell id="1ZvmqWGZc5X6zY4zjdqe-24" style="shape=tableRow;horizontal=0;startSize=0;swimlaneHead=0;swimlaneBody=0;fillColor=none;collapsible=0;dropTarget=0;points=[[0,0.5],[1,0.5]];portConstraint=eastwest;top=0;left=0;right=0;bottom=0;html=1;strokeColor=#D0CEE2;fontColor=#1A1A1A;labelBackgroundColor=none;" parent="1ZvmqWGZc5X6zY4zjdqe-23" vertex="1">
          <mxGeometry y="30" width="190" height="30" as="geometry" />
        </mxCell>
        <mxCell id="1ZvmqWGZc5X6zY4zjdqe-25" value="PK" style="shape=partialRectangle;connectable=0;fillColor=none;top=0;left=0;bottom=0;right=0;fontStyle=1;overflow=hidden;html=1;whiteSpace=wrap;strokeColor=#D0CEE2;fontColor=#1A1A1A;labelBackgroundColor=none;" parent="1ZvmqWGZc5X6zY4zjdqe-24" vertex="1">
          <mxGeometry width="60" height="30" as="geometry">
            <mxRectangle width="60" height="30" as="alternateBounds" />
          </mxGeometry>
        </mxCell>
        <mxCell id="1ZvmqWGZc5X6zY4zjdqe-26" value="IdComentario" style="shape=partialRectangle;connectable=0;fillColor=none;top=0;left=0;bottom=0;right=0;align=left;spacingLeft=6;fontStyle=5;overflow=hidden;html=1;whiteSpace=wrap;strokeColor=#D0CEE2;fontColor=#1A1A1A;labelBackgroundColor=none;" parent="1ZvmqWGZc5X6zY4zjdqe-24" vertex="1">
          <mxGeometry x="60" width="130" height="30" as="geometry">
            <mxRectangle width="130" height="30" as="alternateBounds" />
          </mxGeometry>
        </mxCell>
        <mxCell id="1ZvmqWGZc5X6zY4zjdqe-27" value="" style="shape=tableRow;horizontal=0;startSize=0;swimlaneHead=0;swimlaneBody=0;fillColor=none;collapsible=0;dropTarget=0;points=[[0,0.5],[1,0.5]];portConstraint=eastwest;top=0;left=0;right=0;bottom=0;html=1;strokeColor=#D0CEE2;fontColor=#1A1A1A;labelBackgroundColor=none;" parent="1ZvmqWGZc5X6zY4zjdqe-23" vertex="1">
          <mxGeometry y="60" width="190" height="30" as="geometry" />
        </mxCell>
        <mxCell id="1ZvmqWGZc5X6zY4zjdqe-28" value="FK1" style="shape=partialRectangle;connectable=0;fillColor=none;top=0;left=0;bottom=0;right=0;fontStyle=1;overflow=hidden;html=1;whiteSpace=wrap;strokeColor=#D0CEE2;fontColor=#1A1A1A;labelBackgroundColor=none;" parent="1ZvmqWGZc5X6zY4zjdqe-27" vertex="1">
          <mxGeometry width="60" height="30" as="geometry">
            <mxRectangle width="60" height="30" as="alternateBounds" />
          </mxGeometry>
        </mxCell>
        <mxCell id="1ZvmqWGZc5X6zY4zjdqe-29" value="IdPaciente" style="shape=partialRectangle;connectable=0;fillColor=none;top=0;left=0;bottom=0;right=0;align=left;spacingLeft=6;fontStyle=5;overflow=hidden;html=1;whiteSpace=wrap;strokeColor=#D0CEE2;fontColor=#1A1A1A;labelBackgroundColor=none;" parent="1ZvmqWGZc5X6zY4zjdqe-27" vertex="1">
          <mxGeometry x="60" width="130" height="30" as="geometry">
            <mxRectangle width="130" height="30" as="alternateBounds" />
          </mxGeometry>
        </mxCell>
        <mxCell id="1ZvmqWGZc5X6zY4zjdqe-30" value="" style="shape=tableRow;horizontal=0;startSize=0;swimlaneHead=0;swimlaneBody=0;fillColor=none;collapsible=0;dropTarget=0;points=[[0,0.5],[1,0.5]];portConstraint=eastwest;top=0;left=0;right=0;bottom=1;html=1;strokeColor=#D0CEE2;fontColor=#1A1A1A;labelBackgroundColor=none;" parent="1ZvmqWGZc5X6zY4zjdqe-23" vertex="1">
          <mxGeometry y="90" width="190" height="30" as="geometry" />
        </mxCell>
        <mxCell id="1ZvmqWGZc5X6zY4zjdqe-31" value="FK2" style="shape=partialRectangle;connectable=0;fillColor=none;top=0;left=0;bottom=0;right=0;fontStyle=1;overflow=hidden;html=1;whiteSpace=wrap;strokeColor=#D0CEE2;fontColor=#1A1A1A;labelBackgroundColor=none;" parent="1ZvmqWGZc5X6zY4zjdqe-30" vertex="1">
          <mxGeometry width="60" height="30" as="geometry">
            <mxRectangle width="60" height="30" as="alternateBounds" />
          </mxGeometry>
        </mxCell>
        <mxCell id="1ZvmqWGZc5X6zY4zjdqe-32" value="IdConsulta" style="shape=partialRectangle;connectable=0;fillColor=none;top=0;left=0;bottom=0;right=0;align=left;spacingLeft=6;fontStyle=5;overflow=hidden;html=1;whiteSpace=wrap;strokeColor=#D0CEE2;fontColor=#1A1A1A;labelBackgroundColor=none;" parent="1ZvmqWGZc5X6zY4zjdqe-30" vertex="1">
          <mxGeometry x="60" width="130" height="30" as="geometry">
            <mxRectangle width="130" height="30" as="alternateBounds" />
          </mxGeometry>
        </mxCell>
        <mxCell id="1ZvmqWGZc5X6zY4zjdqe-33" value="" style="shape=tableRow;horizontal=0;startSize=0;swimlaneHead=0;swimlaneBody=0;fillColor=none;collapsible=0;dropTarget=0;points=[[0,0.5],[1,0.5]];portConstraint=eastwest;top=0;left=0;right=0;bottom=0;html=1;strokeColor=#D0CEE2;fontColor=#1A1A1A;labelBackgroundColor=none;" parent="1ZvmqWGZc5X6zY4zjdqe-23" vertex="1">
          <mxGeometry y="120" width="190" height="30" as="geometry" />
        </mxCell>
        <mxCell id="1ZvmqWGZc5X6zY4zjdqe-34" value="" style="shape=partialRectangle;connectable=0;fillColor=none;top=0;left=0;bottom=0;right=0;editable=1;overflow=hidden;html=1;whiteSpace=wrap;strokeColor=#D0CEE2;fontColor=#1A1A1A;labelBackgroundColor=none;" parent="1ZvmqWGZc5X6zY4zjdqe-33" vertex="1">
          <mxGeometry width="60" height="30" as="geometry">
            <mxRectangle width="60" height="30" as="alternateBounds" />
          </mxGeometry>
        </mxCell>
        <mxCell id="1ZvmqWGZc5X6zY4zjdqe-35" value="Descricao" style="shape=partialRectangle;connectable=0;fillColor=none;top=0;left=0;bottom=0;right=0;align=left;spacingLeft=6;overflow=hidden;html=1;whiteSpace=wrap;strokeColor=#D0CEE2;fontColor=#1A1A1A;labelBackgroundColor=none;" parent="1ZvmqWGZc5X6zY4zjdqe-33" vertex="1">
          <mxGeometry x="60" width="130" height="30" as="geometry">
            <mxRectangle width="130" height="30" as="alternateBounds" />
          </mxGeometry>
        </mxCell>
        <mxCell id="OyaNYBSMKmWiEZQ6EtJf-16" value="Paciente" style="shape=table;startSize=30;container=1;collapsible=1;childLayout=tableLayout;fixedRows=1;rowLines=0;fontStyle=1;align=center;resizeLast=1;html=1;whiteSpace=wrap;strokeColor=#D0CEE2;fontColor=#1A1A1A;fillColor=#5D7F99;labelBackgroundColor=none;" vertex="1" parent="1">
          <mxGeometry x="670" y="50" width="190" height="180" as="geometry" />
        </mxCell>
        <mxCell id="OyaNYBSMKmWiEZQ6EtJf-17" style="shape=tableRow;horizontal=0;startSize=0;swimlaneHead=0;swimlaneBody=0;fillColor=none;collapsible=0;dropTarget=0;points=[[0,0.5],[1,0.5]];portConstraint=eastwest;top=0;left=0;right=0;bottom=0;html=1;strokeColor=#D0CEE2;fontColor=#1A1A1A;labelBackgroundColor=none;" vertex="1" parent="OyaNYBSMKmWiEZQ6EtJf-16">
          <mxGeometry y="30" width="190" height="30" as="geometry" />
        </mxCell>
        <mxCell id="OyaNYBSMKmWiEZQ6EtJf-18" value="PK" style="shape=partialRectangle;connectable=0;fillColor=none;top=0;left=0;bottom=0;right=0;fontStyle=1;overflow=hidden;html=1;whiteSpace=wrap;strokeColor=#D0CEE2;fontColor=#1A1A1A;labelBackgroundColor=none;" vertex="1" parent="OyaNYBSMKmWiEZQ6EtJf-17">
          <mxGeometry width="60" height="30" as="geometry">
            <mxRectangle width="60" height="30" as="alternateBounds" />
          </mxGeometry>
        </mxCell>
        <mxCell id="OyaNYBSMKmWiEZQ6EtJf-19" value="IdPaciente" style="shape=partialRectangle;connectable=0;fillColor=none;top=0;left=0;bottom=0;right=0;align=left;spacingLeft=6;fontStyle=5;overflow=hidden;html=1;whiteSpace=wrap;strokeColor=#D0CEE2;fontColor=#1A1A1A;labelBackgroundColor=none;" vertex="1" parent="OyaNYBSMKmWiEZQ6EtJf-17">
          <mxGeometry x="60" width="130" height="30" as="geometry">
            <mxRectangle width="130" height="30" as="alternateBounds" />
          </mxGeometry>
        </mxCell>
        <mxCell id="OyaNYBSMKmWiEZQ6EtJf-20" value="" style="shape=tableRow;horizontal=0;startSize=0;swimlaneHead=0;swimlaneBody=0;fillColor=none;collapsible=0;dropTarget=0;points=[[0,0.5],[1,0.5]];portConstraint=eastwest;top=0;left=0;right=0;bottom=0;html=1;strokeColor=#D0CEE2;fontColor=#1A1A1A;labelBackgroundColor=none;" vertex="1" parent="OyaNYBSMKmWiEZQ6EtJf-16">
          <mxGeometry y="60" width="190" height="30" as="geometry" />
        </mxCell>
        <mxCell id="OyaNYBSMKmWiEZQ6EtJf-21" value="FK1" style="shape=partialRectangle;connectable=0;fillColor=none;top=0;left=0;bottom=0;right=0;fontStyle=1;overflow=hidden;html=1;whiteSpace=wrap;strokeColor=#D0CEE2;fontColor=#1A1A1A;labelBackgroundColor=none;" vertex="1" parent="OyaNYBSMKmWiEZQ6EtJf-20">
          <mxGeometry width="60" height="30" as="geometry">
            <mxRectangle width="60" height="30" as="alternateBounds" />
          </mxGeometry>
        </mxCell>
        <mxCell id="OyaNYBSMKmWiEZQ6EtJf-22" value="IdUsuario" style="shape=partialRectangle;connectable=0;fillColor=none;top=0;left=0;bottom=0;right=0;align=left;spacingLeft=6;fontStyle=5;overflow=hidden;html=1;whiteSpace=wrap;strokeColor=#D0CEE2;fontColor=#1A1A1A;labelBackgroundColor=none;" vertex="1" parent="OyaNYBSMKmWiEZQ6EtJf-20">
          <mxGeometry x="60" width="130" height="30" as="geometry">
            <mxRectangle width="130" height="30" as="alternateBounds" />
          </mxGeometry>
        </mxCell>
        <mxCell id="ZpZrkJBr7_BX35aEObXL-4" style="shape=tableRow;horizontal=0;startSize=0;swimlaneHead=0;swimlaneBody=0;fillColor=none;collapsible=0;dropTarget=0;points=[[0,0.5],[1,0.5]];portConstraint=eastwest;top=0;left=0;right=0;bottom=0;html=1;strokeColor=#D0CEE2;fontColor=#1A1A1A;labelBackgroundColor=none;" vertex="1" parent="OyaNYBSMKmWiEZQ6EtJf-16">
          <mxGeometry y="90" width="190" height="30" as="geometry" />
        </mxCell>
        <mxCell id="ZpZrkJBr7_BX35aEObXL-5" style="shape=partialRectangle;connectable=0;fillColor=none;top=0;left=0;bottom=0;right=0;fontStyle=1;overflow=hidden;html=1;whiteSpace=wrap;strokeColor=#D0CEE2;fontColor=#1A1A1A;labelBackgroundColor=none;" vertex="1" parent="ZpZrkJBr7_BX35aEObXL-4">
          <mxGeometry width="60" height="30" as="geometry">
            <mxRectangle width="60" height="30" as="alternateBounds" />
          </mxGeometry>
        </mxCell>
        <mxCell id="ZpZrkJBr7_BX35aEObXL-6" value="Nome" style="shape=partialRectangle;connectable=0;fillColor=none;top=0;left=0;bottom=0;right=0;align=left;spacingLeft=6;fontStyle=5;overflow=hidden;html=1;whiteSpace=wrap;strokeColor=#D0CEE2;fontColor=#1A1A1A;labelBackgroundColor=none;" vertex="1" parent="ZpZrkJBr7_BX35aEObXL-4">
          <mxGeometry x="60" width="130" height="30" as="geometry">
            <mxRectangle width="130" height="30" as="alternateBounds" />
          </mxGeometry>
        </mxCell>
        <mxCell id="ZpZrkJBr7_BX35aEObXL-13" style="shape=tableRow;horizontal=0;startSize=0;swimlaneHead=0;swimlaneBody=0;fillColor=none;collapsible=0;dropTarget=0;points=[[0,0.5],[1,0.5]];portConstraint=eastwest;top=0;left=0;right=0;bottom=0;html=1;strokeColor=#D0CEE2;fontColor=#1A1A1A;labelBackgroundColor=none;" vertex="1" parent="OyaNYBSMKmWiEZQ6EtJf-16">
          <mxGeometry y="120" width="190" height="30" as="geometry" />
        </mxCell>
        <mxCell id="ZpZrkJBr7_BX35aEObXL-14" style="shape=partialRectangle;connectable=0;fillColor=none;top=0;left=0;bottom=0;right=0;fontStyle=1;overflow=hidden;html=1;whiteSpace=wrap;strokeColor=#D0CEE2;fontColor=#1A1A1A;labelBackgroundColor=none;" vertex="1" parent="ZpZrkJBr7_BX35aEObXL-13">
          <mxGeometry width="60" height="30" as="geometry">
            <mxRectangle width="60" height="30" as="alternateBounds" />
          </mxGeometry>
        </mxCell>
        <mxCell id="ZpZrkJBr7_BX35aEObXL-15" value="CPF" style="shape=partialRectangle;connectable=0;fillColor=none;top=0;left=0;bottom=0;right=0;align=left;spacingLeft=6;fontStyle=5;overflow=hidden;html=1;whiteSpace=wrap;strokeColor=#D0CEE2;fontColor=#1A1A1A;labelBackgroundColor=none;" vertex="1" parent="ZpZrkJBr7_BX35aEObXL-13">
          <mxGeometry x="60" width="130" height="30" as="geometry">
            <mxRectangle width="130" height="30" as="alternateBounds" />
          </mxGeometry>
        </mxCell>
        <mxCell id="ZpZrkJBr7_BX35aEObXL-10" style="shape=tableRow;horizontal=0;startSize=0;swimlaneHead=0;swimlaneBody=0;fillColor=none;collapsible=0;dropTarget=0;points=[[0,0.5],[1,0.5]];portConstraint=eastwest;top=0;left=0;right=0;bottom=0;html=1;strokeColor=#D0CEE2;fontColor=#1A1A1A;labelBackgroundColor=none;" vertex="1" parent="OyaNYBSMKmWiEZQ6EtJf-16">
          <mxGeometry y="150" width="190" height="30" as="geometry" />
        </mxCell>
        <mxCell id="ZpZrkJBr7_BX35aEObXL-11" style="shape=partialRectangle;connectable=0;fillColor=none;top=0;left=0;bottom=0;right=0;fontStyle=1;overflow=hidden;html=1;whiteSpace=wrap;strokeColor=#D0CEE2;fontColor=#1A1A1A;labelBackgroundColor=none;" vertex="1" parent="ZpZrkJBr7_BX35aEObXL-10">
          <mxGeometry width="60" height="30" as="geometry">
            <mxRectangle width="60" height="30" as="alternateBounds" />
          </mxGeometry>
        </mxCell>
        <mxCell id="ZpZrkJBr7_BX35aEObXL-12" value="DataNascimento" style="shape=partialRectangle;connectable=0;fillColor=none;top=0;left=0;bottom=0;right=0;align=left;spacingLeft=6;fontStyle=5;overflow=hidden;html=1;whiteSpace=wrap;strokeColor=#D0CEE2;fontColor=#1A1A1A;labelBackgroundColor=none;" vertex="1" parent="ZpZrkJBr7_BX35aEObXL-10">
          <mxGeometry x="60" width="130" height="30" as="geometry">
            <mxRectangle width="130" height="30" as="alternateBounds" />
          </mxGeometry>
        </mxCell>
        <mxCell id="ZpZrkJBr7_BX35aEObXL-16" value="" style="edgeStyle=entityRelationEdgeStyle;fontSize=12;html=1;endArrow=ERoneToMany;rounded=0;strokeColor=#000000;fontColor=#1A1A1A;startSize=8;endSize=8;exitX=1;exitY=0.5;exitDx=0;exitDy=0;entryX=0;entryY=0.5;entryDx=0;entryDy=0;" edge="1" parent="1" source="UGhV_TyL9upz_DpbScVM-3" target="G7nqIMJA9oM_WIrjRasf-19">
          <mxGeometry width="100" height="100" relative="1" as="geometry">
            <mxPoint x="220" y="230" as="sourcePoint" />
            <mxPoint x="320" y="130" as="targetPoint" />
          </mxGeometry>
        </mxCell>
        <mxCell id="ZpZrkJBr7_BX35aEObXL-17" value="" style="edgeStyle=entityRelationEdgeStyle;fontSize=12;html=1;endArrow=ERoneToMany;rounded=0;strokeColor=#000000;fontColor=#1A1A1A;startSize=8;endSize=8;entryX=0;entryY=0.5;entryDx=0;entryDy=0;exitX=1;exitY=0.5;exitDx=0;exitDy=0;" edge="1" parent="1" source="G7nqIMJA9oM_WIrjRasf-16" target="OyaNYBSMKmWiEZQ6EtJf-20">
          <mxGeometry width="100" height="100" relative="1" as="geometry">
            <mxPoint x="510" y="330" as="sourcePoint" />
            <mxPoint x="610" y="230" as="targetPoint" />
          </mxGeometry>
        </mxCell>
        <mxCell id="ZpZrkJBr7_BX35aEObXL-18" value="" style="edgeStyle=entityRelationEdgeStyle;fontSize=12;html=1;endArrow=ERoneToMany;rounded=0;strokeColor=#000000;fontColor=#1A1A1A;startSize=8;endSize=8;entryX=0;entryY=0.5;entryDx=0;entryDy=0;exitX=1;exitY=0.5;exitDx=0;exitDy=0;" edge="1" parent="1" source="G7nqIMJA9oM_WIrjRasf-16" target="G7nqIMJA9oM_WIrjRasf-9">
          <mxGeometry width="100" height="100" relative="1" as="geometry">
            <mxPoint x="510" y="410" as="sourcePoint" />
            <mxPoint x="610" y="310" as="targetPoint" />
          </mxGeometry>
        </mxCell>
        <mxCell id="ZpZrkJBr7_BX35aEObXL-19" value="" style="edgeStyle=entityRelationEdgeStyle;fontSize=12;html=1;endArrow=ERoneToMany;rounded=0;strokeColor=#000000;fontColor=#1A1A1A;startSize=8;endSize=8;exitX=1;exitY=0.5;exitDx=0;exitDy=0;entryX=1;entryY=0.5;entryDx=0;entryDy=0;" edge="1" parent="1" source="j9YKCEQZaplh8smazgqn-9" target="rOpsKsPKH9mTHyneZ53s-12">
          <mxGeometry width="100" height="100" relative="1" as="geometry">
            <mxPoint x="560" y="560" as="sourcePoint" />
            <mxPoint x="660" y="460" as="targetPoint" />
          </mxGeometry>
        </mxCell>
        <mxCell id="ZpZrkJBr7_BX35aEObXL-20" value="" style="edgeStyle=entityRelationEdgeStyle;fontSize=12;html=1;endArrow=ERoneToMany;rounded=0;strokeColor=#000000;fontColor=#1A1A1A;startSize=8;endSize=8;exitX=1;exitY=0.5;exitDx=0;exitDy=0;entryX=1;entryY=0.5;entryDx=0;entryDy=0;" edge="1" parent="1" source="j9YKCEQZaplh8smazgqn-2" target="rOpsKsPKH9mTHyneZ53s-9">
          <mxGeometry width="100" height="100" relative="1" as="geometry">
            <mxPoint x="560" y="720" as="sourcePoint" />
            <mxPoint x="660" y="620" as="targetPoint" />
          </mxGeometry>
        </mxCell>
        <mxCell id="ZpZrkJBr7_BX35aEObXL-21" value="" style="edgeStyle=entityRelationEdgeStyle;fontSize=12;html=1;endArrow=ERoneToMany;rounded=0;strokeColor=#000000;fontColor=#1A1A1A;startSize=8;endSize=8;entryX=1;entryY=0.5;entryDx=0;entryDy=0;exitX=0;exitY=0.5;exitDx=0;exitDy=0;" edge="1" parent="1" source="wcLtu0v9jD_Dla0ruhGK-4" target="G7nqIMJA9oM_WIrjRasf-54">
          <mxGeometry width="100" height="100" relative="1" as="geometry">
            <mxPoint x="510" y="400" as="sourcePoint" />
            <mxPoint x="610" y="300" as="targetPoint" />
          </mxGeometry>
        </mxCell>
        <mxCell id="ZpZrkJBr7_BX35aEObXL-22" value="" style="edgeStyle=entityRelationEdgeStyle;fontSize=12;html=1;endArrow=ERoneToMany;rounded=0;strokeColor=#000000;fontColor=#1A1A1A;startSize=8;endSize=8;entryX=1;entryY=0.5;entryDx=0;entryDy=0;exitX=0;exitY=0.5;exitDx=0;exitDy=0;" edge="1" parent="1" source="OyaNYBSMKmWiEZQ6EtJf-17" target="G7nqIMJA9oM_WIrjRasf-57">
          <mxGeometry width="100" height="100" relative="1" as="geometry">
            <mxPoint x="510" y="400" as="sourcePoint" />
            <mxPoint x="610" y="300" as="targetPoint" />
            <Array as="points">
              <mxPoint x="470" y="270" />
              <mxPoint x="470" y="260" />
            </Array>
          </mxGeometry>
        </mxCell>
        <mxCell id="ZpZrkJBr7_BX35aEObXL-23" value="" style="edgeStyle=entityRelationEdgeStyle;fontSize=12;html=1;endArrow=ERoneToMany;rounded=0;strokeColor=#000000;fontColor=#1A1A1A;startSize=8;endSize=8;entryX=1;entryY=0.5;entryDx=0;entryDy=0;exitX=0;exitY=0.5;exitDx=0;exitDy=0;" edge="1" parent="1" source="G7nqIMJA9oM_WIrjRasf-75" target="OyaNYBSMKmWiEZQ6EtJf-10">
          <mxGeometry width="100" height="100" relative="1" as="geometry">
            <mxPoint x="10" y="540" as="sourcePoint" />
            <mxPoint x="280" y="430" as="targetPoint" />
          </mxGeometry>
        </mxCell>
        <mxCell id="ZpZrkJBr7_BX35aEObXL-24" value="" style="edgeStyle=entityRelationEdgeStyle;fontSize=12;html=1;endArrow=ERoneToMany;rounded=0;strokeColor=#000000;fontColor=#1A1A1A;startSize=8;endSize=8;entryX=1;entryY=0.5;entryDx=0;entryDy=0;exitX=0;exitY=0.5;exitDx=0;exitDy=0;" edge="1" parent="1" source="OyaNYBSMKmWiEZQ6EtJf-17" target="G7nqIMJA9oM_WIrjRasf-32">
          <mxGeometry width="100" height="100" relative="1" as="geometry">
            <mxPoint x="470" y="590" as="sourcePoint" />
            <mxPoint x="570" y="490" as="targetPoint" />
            <Array as="points">
              <mxPoint x="550" y="380" />
              <mxPoint x="540" y="370" />
            </Array>
          </mxGeometry>
        </mxCell>
        <mxCell id="ZpZrkJBr7_BX35aEObXL-25" value="" style="edgeStyle=entityRelationEdgeStyle;fontSize=12;html=1;endArrow=ERoneToMany;rounded=0;strokeColor=#000000;fontColor=#1A1A1A;startSize=8;endSize=8;entryX=0;entryY=0.5;entryDx=0;entryDy=0;exitX=1;exitY=0.5;exitDx=0;exitDy=0;" edge="1" parent="1" source="G7nqIMJA9oM_WIrjRasf-75" target="G7nqIMJA9oM_WIrjRasf-35">
          <mxGeometry width="100" height="100" relative="1" as="geometry">
            <mxPoint x="410" y="360" as="sourcePoint" />
            <mxPoint x="660" y="390" as="targetPoint" />
          </mxGeometry>
        </mxCell>
        <mxCell id="ZpZrkJBr7_BX35aEObXL-26" value="" style="edgeStyle=entityRelationEdgeStyle;fontSize=12;html=1;endArrow=ERoneToMany;rounded=0;strokeColor=#000000;fontColor=#1A1A1A;startSize=8;endSize=8;entryX=1;entryY=0.5;entryDx=0;entryDy=0;exitX=0;exitY=0.5;exitDx=0;exitDy=0;" edge="1" parent="1" source="OyaNYBSMKmWiEZQ6EtJf-17" target="1ZvmqWGZc5X6zY4zjdqe-27">
          <mxGeometry width="100" height="100" relative="1" as="geometry">
            <mxPoint x="520" y="540" as="sourcePoint" />
            <mxPoint x="620" y="440" as="targetPoint" />
          </mxGeometry>
        </mxCell>
        <mxCell id="ZpZrkJBr7_BX35aEObXL-27" value="" style="edgeStyle=entityRelationEdgeStyle;fontSize=12;html=1;endArrow=ERoneToMany;rounded=0;strokeColor=#000000;fontColor=#1A1A1A;startSize=8;endSize=8;exitX=1;exitY=0.5;exitDx=0;exitDy=0;entryX=0;entryY=0.5;entryDx=0;entryDy=0;" edge="1" parent="1" source="G7nqIMJA9oM_WIrjRasf-75" target="1ZvmqWGZc5X6zY4zjdqe-30">
          <mxGeometry width="100" height="100" relative="1" as="geometry">
            <mxPoint x="520" y="450" as="sourcePoint" />
            <mxPoint x="620" y="350" as="targetPoint" />
          </mxGeometry>
        </mxCell>
      </root>
    </mxGraphModel>
  </diagram>
</mxfile>
